<svg width="207" height="40" viewBox="0 0 207 40" fill="none" xmlns="http://www.w3.org/2000/svg">
<path d="M174.804 4.36279V23.5289L183.321 13.5109H189.656L182.65 22.8692L189.656 36.1623H183.321L178.949 28.3219C178.289 28.2927 177.822 28.9699 177.419 29.4136C175.656 31.3693 174.284 33.4067 174.798 36.1623H168.68V4.36279H174.798H174.804Z" fill="#707070"/>
<path d="M108.391 13.5051V36.1564C105.898 36.7519 106.085 34.0723 104.24 33.5177C101.187 35.7244 98.5654 37.0146 94.6598 36.5651C83.0422 35.2224 81.2617 17.6734 91.9276 13.4233C96.709 11.5202 100.65 12.8162 104.631 15.6593C105.91 14.6844 106.493 13.1023 108.397 13.5051H108.391ZM95.5939 18.3915C89.6275 19.4306 89.2363 28.3744 94.2979 30.3827C99.9257 32.6128 104.619 25.759 101.157 20.931C99.8965 19.1738 97.7831 18.012 95.5939 18.3915Z" fill="#707070"/>
<path d="M40.67 13.5051V36.1565C38.7376 36.7344 38.1363 33.4885 36.9571 33.5177C36.2857 33.5352 34.797 34.9772 33.9855 35.3742C31.0841 36.8045 28.0016 37.0088 24.9367 35.9404C12.3792 31.5795 16.1797 10.732 30.8155 12.6586C32.853 12.9271 36.5951 15.7118 36.9571 15.7118C38.364 15.7177 38.5158 12.7053 40.67 13.5051ZM27.8732 18.3973C19.6825 19.8977 23.3662 34.1365 31.4577 30.2426C37.8795 27.1484 34.7561 17.1363 27.8732 18.3973Z" fill="#707070"/>
<path d="M143.343 13.5051V19.168H130.89C130.184 19.4774 129.968 21.3047 130.271 21.7425C130.879 22.6065 137.259 22.0578 138.766 22.2037C145.398 22.8576 146.834 31.5737 141.58 35.0531C141.264 35.2633 139.32 36.1565 139.192 36.1565H124.118V30.4937H137.878C138.036 30.4937 139.063 29.3961 138.988 28.9758L138.97 28.5321C138.754 28.3803 138.433 27.8782 138.316 27.8782H129.577C129.372 27.8782 126.453 26.0393 126.103 25.6773C122.921 22.3613 123.797 16.5817 127.814 14.3633C128.135 14.1882 129.454 13.5051 129.577 13.5051H143.337H143.343Z" fill="#707070"/>
<path d="M55.0897 30.9315C57.4249 30.7564 60.1338 29.9216 60.7701 27.4462H61.4181L65.1603 31.5854C59.8711 39.6943 47.7105 37.6977 44.7098 28.427C41.0027 16.9671 53.9689 7.64965 63.3563 15.0639C64.413 15.8987 65.7032 16.897 64.9209 18.3098L55.7319 29.186L55.0839 30.9315H55.0897ZM57.2673 18.2981C51.3534 17.7143 49.567 22.2913 50.2793 27.4462C51.1199 27.6447 51.1258 27.1427 51.5111 26.7165C52.9764 25.1169 55.3758 21.8593 56.5843 20.0145C56.9287 19.4891 57.3666 18.987 57.2673 18.304V18.2981Z" fill="#707070"/>
<path d="M164.318 4.36279H158.2V36.1623H164.318V4.36279Z" fill="#707070"/>
<path d="M68.1963 13.5051C69.9944 13.1899 70.73 14.3166 71.4889 15.706C72.4522 15.6885 75.3887 13.5051 75.8382 13.5051H83.9238V19.168C81.5419 19.2497 77.0467 18.6426 75.2953 20.5808C75.2077 20.68 74.3145 22.3322 74.3145 22.4372V36.1565H68.1963V13.5051Z" fill="#707070"/>
<path d="M153.827 13.5051H148.147V36.1565H153.827V13.5051Z" fill="#707070"/>
<path d="M149.309 3.55717C152.076 2.73402 154.732 4.2227 154.732 7.1884C154.732 12.6002 146.863 11.8413 146.863 7.1884C146.863 6.09669 148.264 3.86658 149.303 3.55717H149.309Z" fill="#707070"/>
</svg>
