<svg width="144" height="96" viewBox="0 0 144 96" fill="none" xmlns="http://www.w3.org/2000/svg">
<g filter="url(#filter0_i_670_15637)">
<path d="M81.2754 26.3334C80.8076 26.697 80.9096 29.6586 80.9694 30.3658C81.0625 31.4675 81.3995 31.7956 82.4126 31.3988C84.7735 30.4722 87.5201 29.3083 89.8987 28.3684C90.4085 28.1667 90.9383 28.1157 91.4327 28.4283C92.2086 28.9182 93.1396 32.199 93.7071 33.2099C93.7071 33.2099 93.7071 33.2121 93.7093 33.2143C93.9044 33.5624 94.4121 33.5579 94.585 33.1988C94.8 32.7555 94.9086 32.2589 95.0527 31.7889C96.9436 25.562 98.1872 19.1155 100.127 12.8974C100.601 11.3922 103.477 10.9311 104.549 11.9841L123.215 38.9846C124.359 41.882 119.03 40.7559 118.458 42.0128C118.229 42.5116 118.81 43.5778 119.032 44.0988C123 53.3627 127.75 62.323 131.767 71.5715C132.25 72.9813 132.06 73.8282 130.444 73.9722C129.189 74.0831 126.904 74.0742 125.64 73.9722C124.784 73.9035 124.299 73.7284 123.822 72.9946C123.259 72.1257 122.16 68.6431 121.357 68.4015C121.118 68.3305 120.858 68.3616 120.617 68.4059C116.706 69.8446 112.869 71.9971 108.972 73.4025C107.744 73.8459 107.172 73.8149 105.953 73.9767C104.691 74.1452 104.416 75.6238 103.851 76.5349C101.045 81.0837 97.254 82.9724 92.0733 83.7949C89.1959 84.2515 85.3653 84.8611 82.5079 85.0141C81.2665 85.0806 80.5349 85.0717 80.2113 83.7173C79.3756 78.7073 79.1605 73.4424 78.296 68.4569C77.7507 65.3135 76.6977 68.5478 75.9728 69.6938C69.7392 79.5564 54.0421 79.5563 48.2186 69.3791C47.8085 68.663 46.6158 66.0295 46.2966 65.7081C45.7801 65.1893 45.4564 65.9408 45.3589 66.3731C44.3902 70.7202 43.4525 74.5464 42.2731 79.2637C41.8586 80.361 41.3155 80.4652 40.2027 80.3211C39.0499 80.1726 36.0462 79.4455 34.971 79.031C33.4237 78.4324 33.8937 77.3418 34.153 76.0715C34.6917 73.4247 35.9974 69.9022 36.2257 67.3618C36.3077 66.4595 36.2767 65.9408 35.2127 66.3487C33.488 67.0115 31.1515 69.4566 29.4135 70.002C28.8239 70.1882 28.4337 70.1948 27.9194 69.8402C26.9462 69.1685 25.1484 65.2425 24.3127 63.9923C23.5989 62.926 23.1733 62.8883 22.7543 64.143C21.7567 67.1335 21.4708 70.7113 20.4643 73.7018C20.0786 74.8434 19.7882 75.2646 18.5025 75.1272C17.3076 75.0008 14.3926 74.2759 13.2354 73.8703C12.1159 73.4779 11.8898 72.9924 12.0428 71.802C14.1088 63.5866 15.8534 55.2825 17.9306 47.0693C18.1833 46.0717 18.4737 44.2828 19.0057 43.4847C19.2739 43.0835 19.7195 42.9593 19.7417 42.3409C19.7638 41.7224 18.2653 40.2682 17.8108 39.6031C13.6122 33.456 13.6987 24.5023 18.7929 18.9072C25.3191 11.7403 39.9123 11.3523 44.337 20.9311C44.9976 22.3609 45.1749 23.2676 43.4569 23.7309C42.3795 24.0213 38.6066 24.7129 37.6445 24.56C36.7289 24.4159 36.4518 23.6112 35.9065 23.1035C33.7629 21.1173 30.8633 20.9111 28.181 21.902C19.633 25.0632 23.6632 40.9642 33.7673 38.007C35.9442 37.3686 37.1834 36.1117 38.1255 34.1121C38.4337 33.4604 38.4181 32.7311 39.0654 32.2567C40.1251 31.4808 43.4879 31.3833 44.951 30.9532C45.9419 30.6628 46.0749 30.133 46.2235 29.162C47.0836 23.5137 46.935 17.3089 47.7021 11.6006C47.8484 9.71634 49.4866 9.98014 50.9497 10.0577C52.1113 10.1176 53.3305 10.1508 54.8556 10.275C61.2644 10.7959 67.4359 10.4479 70.8786 16.4909C71.1247 16.9209 72.0491 19.171 72.2685 19.2352C72.723 19.2729 72.9025 18.7099 73.3326 18.5902C79.227 18.2466 85.2301 18.5458 91.1645 18.4372C92.1487 18.5214 92.479 18.8517 92.5633 19.836C92.6564 20.9355 92.7118 23.8728 92.5499 24.8925C92.448 25.542 91.9182 25.8479 91.2997 25.9056C88.7216 26.1405 81.7497 25.9632 81.2754 26.3312V26.3334ZM56.3054 18.3397C55.5473 18.5104 55.4919 19.7185 55.4121 20.3747C55.2923 21.3545 55.1749 22.7134 55.1394 23.6954C55.084 25.2161 55.1726 25.5088 56.6911 25.7504C57.702 25.9122 60.2291 26.1494 61.1713 26.0009C64.1905 25.5243 64.9952 20.5919 62.4282 19.0823C61.5481 18.5658 59.3313 18.3618 58.2717 18.3108C57.7552 18.2865 56.7687 18.2355 56.3032 18.3374L56.3054 18.3397ZM72.3195 25.6329C72.1355 25.491 71.3175 27.8785 69.5352 29.9778C68.7283 30.9288 67.5468 31.6604 67.4182 32.2522C67.2675 32.9483 68.0655 34.4136 68.4357 35.041C69.1828 36.3112 69.3535 36.6858 70.8897 36.1183C71.6922 35.8213 72.3993 35.5043 72.5545 34.5865C72.8139 33.0414 72.723 28.5635 72.59 26.892C72.5545 26.4487 72.4703 25.8435 72.3173 25.6329H72.3195ZM107.289 30.9133C107.662 30.5032 107.697 30.0465 107.498 29.5322C107.405 29.2906 105.447 26.3511 105.263 26.176C104.574 25.5221 104.212 26.0408 103.971 26.728C103.587 27.812 103.255 29.5234 103.009 30.6916C102.9 31.2104 102.477 32.7067 102.736 33.0991C103.024 33.3496 103.392 33.2188 103.707 33.119C104.088 32.9993 107.041 31.1882 107.292 30.9133H107.289ZM62.7807 42.762C62.6166 42.6002 62.3905 42.2278 62.2619 42.015C60.7745 39.5366 59.8878 36.442 58.3404 33.9547C57.8372 33.3629 56.2345 33.1611 55.4763 33.2232C54.7581 33.2831 54.4256 33.5823 54.2682 34.2806C53.816 36.2979 54.0997 38.8339 53.6408 40.8423C53.2729 42.4517 52.0913 42.2101 50.6836 42.1436C49.6107 42.0926 47.4671 41.9374 46.4806 41.6869C45.0109 41.3101 45.5562 40.4477 45.0929 39.8802C44.532 39.1952 43.0734 41.3943 42.63 41.8133C38.7218 45.5064 32.3774 46.8986 27.179 45.8101C26.3765 45.6417 24.9223 44.9833 24.3105 44.9456C24.1132 44.9345 23.9181 45.0143 23.7408 45.0919C23.4614 45.4998 24.3526 47.0139 24.5854 47.4727C26.1637 50.6028 28.2763 54.7194 30.1406 57.6279C30.9542 58.8981 31.1892 58.9069 32.5015 58.1754C36.9041 55.7192 41.1182 51.9174 45.554 49.3925C46.7754 48.5279 48.3161 49.7782 49.4223 49.2661C49.9521 49.0223 50.8166 48.0291 51.3553 47.6057C56.3897 43.6266 63.5033 42.8108 69.349 45.4488C70.0052 45.7436 71.5991 46.8919 72.1887 46.606C72.8227 46.2978 72.8338 44.2118 71.7941 43.9392C70.0783 43.4914 68.449 43.4958 66.6623 43.4759C64.9908 43.4005 63.7361 43.6931 62.7829 42.762H62.7807ZM81.364 42.312C81.5281 42.5271 81.701 42.6379 81.8495 42.6667C83.4589 42.9948 89.8078 42.9948 91.3972 42.6446C92.029 42.5049 92.2285 42.1059 92.4302 41.5472C92.8226 40.461 93.1751 38.927 93.4522 37.7765C93.563 37.3198 93.9332 36.1671 93.9066 35.5331C93.8978 35.3513 93.7736 35.1961 93.5985 35.1474C93.5076 35.1208 93.4101 35.1274 93.3214 35.1629L81.5946 40.031C80.9185 40.4588 80.9007 41.7046 81.364 42.3098V42.312ZM92.6497 49.8247C92.3926 50.1018 91.8029 50.2659 91.4305 50.2703C86.3141 50.3102 81.4771 50.2703 76.8107 50.2969C75.4718 50.4743 76.2388 51.8775 76.7354 52.5736C77.3339 53.4159 77.7994 53.376 78.777 53.3273C84.2037 53.0502 89.6593 51.0085 95.117 52.5669C98.6971 53.5911 101.386 55.8633 103.399 58.9313C103.891 59.6806 104.479 61.6026 105.452 60.1616C105.731 59.7471 106.037 59.0532 106.254 58.5678C108.624 53.2519 111.031 47.639 113.583 41.9152C113.977 41.033 114.955 41.3256 114.558 40.1817C114.425 39.8004 113.111 37.8585 112.803 37.5459C112.457 37.1979 112.106 36.9496 111.597 37.1447C107.837 39.2041 104.37 42.0881 100.672 44.1963C99.6925 44.7549 99.1427 44.9256 98.0454 45.1651C97.019 45.3889 94.3522 45.6018 93.6317 46.0762C92.5721 46.7744 93.3524 49.071 92.6541 49.827L92.6497 49.8247ZM61.5082 52.1679C51.4396 52.9216 52.3085 69.6007 62.7984 68.7694C72.6653 67.9869 71.8895 51.3898 61.5082 52.1679ZM115.684 56.147C115.412 56.2291 115.206 56.6303 115.075 56.8719C114.459 58.0047 113.355 60.585 112.958 61.8132C112.774 62.3851 112.537 63.11 113.392 63.1166C113.869 63.1211 117.232 61.7755 117.653 61.4496C118.207 61.0195 118.216 60.656 118.054 59.9843C117.914 59.4057 116.997 57.4128 116.678 56.8342C116.438 56.3997 116.267 55.9763 115.682 56.1493L115.684 56.147ZM89.4686 59.756C88.8124 59.7981 87.1388 59.9621 86.6067 60.2215C86.139 60.4498 85.9417 60.8843 85.8951 61.3853L87.6686 75.1915C87.7706 75.626 87.9546 76.1514 88.4245 76.2999C89.176 76.5349 91.9381 75.9895 92.7938 75.728C100.581 73.3648 98.9277 59.1464 89.4686 59.756Z" fill="#0A1532" fill-opacity="0.02"/>
</g>
<defs>
<filter id="filter0_i_670_15637" x="12" y="10" width="120" height="75.0352" filterUnits="userSpaceOnUse" color-interpolation-filters="sRGB">
<feFlood flood-opacity="0" result="BackgroundImageFix"/>
<feBlend mode="normal" in="SourceGraphic" in2="BackgroundImageFix" result="shape"/>
<feColorMatrix in="SourceAlpha" type="matrix" values="0 0 0 0 0 0 0 0 0 0 0 0 0 0 0 0 0 0 127 0" result="hardAlpha"/>
<feOffset/>
<feGaussianBlur stdDeviation="2"/>
<feComposite in2="hardAlpha" operator="arithmetic" k2="-1" k3="1"/>
<feColorMatrix type="matrix" values="0 0 0 0 0.0392157 0 0 0 0 0.0784314 0 0 0 0 0.196078 0 0 0 0.08 0"/>
<feBlend mode="normal" in2="shape" result="effect1_innerShadow_670_15637"/>
</filter>
</defs>
</svg>
