<svg width="32" height="32" viewBox="0 0 32 32" fill="none" xmlns="http://www.w3.org/2000/svg">
<circle cx="16" cy="16" r="15.3" fill="white" stroke="#999999" stroke-width="1.4"/>
<path d="M26.4925 27.5865C26.1355 23.328 23.2195 19.806 19.2775 18.525C20.929 17.4555 22.0255 15.6075 22.0255 13.4985C22.027 10.1865 19.333 7.5 16.012 7.5C12.6895 7.5 9.99547 10.1865 9.99547 13.4985C9.99547 15.6075 11.092 17.4555 12.7435 18.5265C8.80147 19.806 5.88697 23.328 5.52847 27.5865C5.52397 27.6675 5.51347 27.714 5.52847 27.825C5.55847 28.2 5.88997 28.5 6.26647 28.5C6.68647 28.5 7.01797 28.1565 7.01797 27.75C7.40947 23.115 11.29 19.5015 16.012 19.5015C20.7325 19.5015 24.613 23.115 25.0045 27.75C25.0045 28.1565 25.336 28.5 25.756 28.5C26.1325 28.5 26.464 28.2 26.4925 27.825C26.5075 27.714 26.4985 27.666 26.4925 27.5865ZM11.5 13.4985C11.5 11.0145 13.5205 9 16.012 9C18.5035 9 20.5225 11.0145 20.5225 13.4985C20.5225 15.984 18.5035 17.9985 16.012 17.9985C13.5205 17.9985 11.5 15.984 11.5 13.4985Z" fill="#999999"/>
</svg>
