<svg width="16" height="16" viewBox="0 0 16 16" fill="none" xmlns="http://www.w3.org/2000/svg">
<path d="M2 8C2 7.45 2.07083 6.92083 2.2125 6.4125C2.35833 5.9 2.56042 5.42083 2.81875 4.975C3.08125 4.52917 3.39375 4.125 3.75625 3.7625C4.12292 3.39583 4.52917 3.08333 4.975 2.825C5.42083 2.5625 5.89792 2.36042 6.40625 2.21875C6.91875 2.07292 7.45 2 8 2C8.55 2 9.07917 2.07292 9.5875 2.21875C10.1 2.36042 10.5771 2.5625 11.0187 2.825C11.4646 3.08333 11.8708 3.39583 12.2375 3.7625C12.6042 4.12917 12.9167 4.53542 13.175 4.98125C13.4375 5.42292 13.6396 5.9 13.7812 6.4125C13.9271 6.92083 14 7.45 14 8C14 8.55 13.9271 9.08125 13.7812 9.59375C13.6396 10.1021 13.4375 10.5792 13.175 11.025C12.9167 11.4708 12.6042 11.8771 12.2375 12.2437C11.875 12.6062 11.4708 12.9187 11.025 13.1812C10.5792 13.4396 10.1 13.6417 9.5875 13.7875C9.07917 13.9292 8.55 14 8 14C7.44583 14 6.9125 13.9292 6.4 13.7875C5.89167 13.6417 5.41458 13.4396 4.96875 13.1812C4.52708 12.9187 4.12292 12.6062 3.75625 12.2437C3.39375 11.8771 3.08125 11.4729 2.81875 11.0312C2.56042 10.5854 2.35833 10.1062 2.2125 9.59375C2.07083 9.08125 2 8.55 2 8ZM5.8 10.7C5.8625 10.7 5.925 10.6875 5.9875 10.6625C6.05417 10.6375 6.11042 10.6021 6.15625 10.5562L8 8.70625L9.84375 10.5562C9.88958 10.6021 9.94375 10.6375 10.0062 10.6625C10.0729 10.6875 10.1375 10.7 10.2 10.7C10.3417 10.7 10.4604 10.6521 10.5562 10.5562C10.6521 10.4604 10.7 10.3417 10.7 10.2C10.7 10.0583 10.6521 9.93958 10.5562 9.84375L8.70625 8L10.5562 6.15625C10.6521 6.06042 10.7 5.94167 10.7 5.8C10.7 5.65833 10.6521 5.53958 10.5562 5.44375C10.4604 5.34792 10.3417 5.3 10.2 5.3C10.0583 5.3 9.93958 5.34792 9.84375 5.44375L8 7.29375L6.15625 5.44375C6.06042 5.34792 5.94167 5.3 5.8 5.3C5.65833 5.3 5.53958 5.34792 5.44375 5.44375C5.34792 5.53958 5.3 5.65833 5.3 5.8C5.3 5.8625 5.3125 5.92708 5.3375 5.99375C5.3625 6.05625 5.39792 6.11042 5.44375 6.15625L7.29375 8L5.44375 9.84375C5.39792 9.88958 5.3625 9.94583 5.3375 10.0125C5.3125 10.075 5.3 10.1375 5.3 10.2C5.3 10.3375 5.34792 10.4562 5.44375 10.5562C5.54375 10.6521 5.6625 10.7 5.8 10.7Z" fill="#FF3D30"/>
</svg>
