<svg width="155" height="20" viewBox="0 0 155 20" fill="none" xmlns="http://www.w3.org/2000/svg">
<g id="Frame 35097">
<path id="Vector" d="M0 10C0 4.12787 4.04448 0 9.72898 0C14.8575 0 18.1515 2.93259 19.173 7.33843H14.1348C13.7543 6.55392 13.1532 5.89743 12.4052 5.44937C11.6572 5.00131 10.7948 4.78115 9.92356 4.81584C7.06741 4.81584 5.15636 6.90063 5.15636 10C5.15636 13.0994 7.06741 15.1772 9.92356 15.1772C10.863 15.2184 11.7916 14.9627 12.5775 14.4462C13.3634 13.9298 13.9666 13.1789 14.3016 12.3002H19.2842C18.4017 16.9215 15.0174 20 9.72898 20C4.04448 20 0 15.8721 0 10Z" fill="#121316"/>
<path id="Vector_2" d="M37.018 19.5552V19.6941H31.3405L28.0674 13.7108H25.3571V19.6941H20.2842V0.305664H28.5399C32.8902 0.305664 35.9409 3.04368 35.9409 7.14375C35.9543 8.2573 35.6678 9.35394 35.1115 10.3187C34.5552 11.2834 33.7495 12.0806 32.779 12.6267L37.018 19.5552ZM25.3571 9.41616H28.2897C29.8742 9.41616 30.8123 8.53361 30.8123 7.03256C30.8123 5.53152 29.8742 4.67676 28.2897 4.67676H25.3571V9.41616Z" fill="#121316"/>
<path id="Vector_3" d="M50.3739 15.1493V19.6941H38.0181V0.305664H50.1237V4.81574H43.0563V7.6719H49.5678V12.1055H43.0563V15.1215L50.3739 15.1493Z" fill="#121316"/>
<path id="Vector_4" d="M71.7907 19.5136V19.7915H66.3286L65.2098 17.3246H57.9061L56.829 19.7915H51.3738V19.5136L60.4843 0.208496H62.7011L71.7907 19.5136ZM59.7616 12.9465H63.3404L61.5962 8.21406L59.7616 12.9465Z" fill="#121316"/>
<path id="Vector_5" d="M92.8255 0.270996V19.729H87.7526V14.3572L87.8637 10.0625L82.9993 15.0173H82.6448L77.7803 10.0625L77.8637 14.3572V19.729H72.7908V0.270996H74.8408L82.8186 8.65876L90.7755 0.270996H92.8255Z" fill="#121316"/>
<path id="Vector_6" d="M93.8257 10C93.8257 4.12787 98.0369 0 103.992 0C109.948 0 114.159 4.12787 114.159 10C114.159 15.8721 109.948 20 103.992 20C98.0369 20 93.8257 15.8721 93.8257 10ZM108.982 10C108.982 6.89368 106.988 4.81584 103.992 4.81584C100.997 4.81584 99.0099 6.90063 99.0099 10C99.0099 13.0994 101.004 15.1772 103.992 15.1772C106.981 15.1772 108.989 13.0994 108.989 10H108.982Z" fill="#121316"/>
<path id="Vector_7" d="M132.81 9.96868C132.81 15.813 128.821 19.6977 122.859 19.6977H115.159V0.302246H122.88C128.821 0.302246 132.81 4.19384 132.81 9.96868ZM127.626 9.96868C127.626 6.75117 125.854 4.84012 122.831 4.84012H120.232V15.1459H122.831C125.854 15.1459 127.626 13.2279 127.626 9.96868Z" fill="#121316"/>
<path id="Vector_8" d="M154.227 19.5136V19.7915H148.772L147.66 17.3246H140.35L139.265 19.7915H133.81V19.5136L142.928 0.208496H145.145L154.227 19.5136ZM142.205 12.9465H145.777L144.033 8.21406L142.205 12.9465Z" fill="#121316"/>
</g>
</svg>
