<svg width="112" height="32" viewBox="0 0 112 32" fill="none" xmlns="http://www.w3.org/2000/svg">
<path d="M99.9268 6.02101C100.057 6.08525 100.206 6.06437 100.357 6.10612C100.55 6.15912 100.662 6.26671 100.791 6.41445C102.265 9.39656 103.611 12.4542 105.005 15.4764C105.66 16.896 107.214 20.1206 107.274 20.3053C107.38 20.6281 107.139 20.9621 106.798 20.9605C106.745 20.9605 106.699 20.9605 106.668 20.9621C105.995 20.9958 105.07 21.0006 104.399 20.9573C103.927 20.9268 103.603 20.8641 103.344 20.4466C103.058 19.9857 102.896 19.3675 102.65 18.8809C102.241 18.0683 101.896 18.3943 101.216 18.6673C99.4161 19.3899 97.6738 20.286 95.8318 20.8898C95.2617 20.9717 94.9293 20.7774 94.5616 21.3459C94.2934 21.7602 94.136 22.2002 93.8277 22.629C91.7914 25.4425 88.7692 25.4425 85.6168 25.8086C85.1415 25.8632 84.0158 26.1202 83.6272 25.9323C83.4023 25.8231 83.3012 25.5035 83.2562 25.2755C82.8226 23.0176 82.7969 20.5365 82.3922 18.2594C82.3617 18.0924 82.2943 17.5753 82.0277 17.7166C81.9201 17.7744 81.4672 18.7251 81.342 18.9258C78.5975 23.3276 71.4402 23.4159 68.6234 19.0607C68.4661 18.8182 67.9939 17.8114 67.8189 17.7263C67.7788 17.707 67.7242 17.6925 67.6792 17.7022C67.5475 17.7311 67.525 18.4923 67.5282 18.6304C67.5507 19.5923 67.6567 20.8079 67.562 21.7554C67.4865 22.5182 66.9549 22.401 66.3865 22.4315C65.728 22.4668 64.9861 22.5246 64.3261 22.4684C63.5842 22.4058 63.5922 21.7827 63.6099 21.1709C63.6452 19.9359 63.6998 18.4104 63.6211 17.1803C63.597 16.8109 63.5585 16.403 63.1056 16.7081C62.3637 17.3553 61.7278 18.2835 60.9811 18.9034C60.5089 19.2952 60.199 19.2406 59.7445 18.86C59.062 18.2883 58.4213 17.2895 57.734 16.7563C57.4385 16.5267 57.2297 16.5588 57.196 16.9602C57.1045 18.033 57.2233 19.1764 57.233 20.2491C57.2378 20.7485 57.2988 21.7185 57.1093 22.1488C57.0451 22.2934 56.9343 22.3897 56.7817 22.4379C56.202 22.6242 55.3782 22.5021 54.776 22.4829C54.3873 22.47 53.8702 22.5808 53.5298 22.3672C52.9356 21.9947 53.5571 20.7437 52.881 20.6329C52.4073 20.5542 51.9111 20.9043 51.4068 20.5799C50.9765 20.3021 50.4786 19.2342 50.1061 18.7958C49.7335 18.3574 49.4942 18.5533 49.0815 18.7958C47.4965 19.7288 45.9597 20.9701 44.3635 21.8517C43.4818 22.3383 42.5215 22.2773 41.574 22.5166C40.6266 22.7559 41.1035 23.4351 40.861 24.1498C40.7342 24.5255 40.3391 24.5673 39.9858 24.5914C38.3783 24.6958 33.3825 24.6331 32.5281 24.5737C32.1957 24.5512 31.7766 24.4934 31.624 24.1594C31.3864 23.6359 31.6112 22.5905 31.5245 22.0027C31.465 21.5996 31.0475 21.6012 30.7247 21.5675C29.7307 21.4631 28.568 21.4824 27.5997 21.309C26.8658 21.1773 26.7245 20.6538 26.4306 20.0516C26.0018 19.1699 25.6164 18.0747 25.1202 17.2509C24.9805 17.0197 24.8569 16.8783 24.5887 16.7948C24.4008 16.737 23.8564 16.6616 23.6637 16.668C23.2703 16.6824 23.092 16.9763 23.0535 17.3344C22.9603 18.2128 22.9844 19.2149 22.8302 20.0773C22.7323 20.6281 22.4737 20.832 21.9101 20.8063C21.3416 20.7806 20.7506 20.6971 20.1822 20.6361C19.6618 20.5799 19.2202 20.6746 18.9906 20.0981C18.9472 19.9889 18.9039 19.5971 18.7513 19.6116C18.5377 19.6308 17.8922 20.4691 17.6722 20.673C14.3143 23.7644 8.28581 23.1702 5.99262 19.0688C5.52692 18.2353 5.25392 17.328 5.01785 16.4078C5.07406 15.5423 4.95041 14.59 5.02428 13.7356C5.16559 12.1137 6.34431 10.2991 7.60974 9.30182C10.8536 6.74687 16.6396 7.0022 18.5538 11.0586C18.875 11.7379 18.8878 12.1137 18.0913 12.316C17.5887 12.4445 15.9635 12.7496 15.5107 12.687C15.0883 12.6292 14.7559 12.088 14.4379 11.8247C13.0842 10.7037 10.685 11.1341 9.66366 12.5152C8.03208 14.72 9.26058 18.5404 12.0789 19.0093C13.4182 19.2326 15.0064 18.5131 15.5942 17.2686C15.8912 16.6375 15.7901 16.2472 16.5898 16.0433C17.306 15.8602 18.2117 15.8474 18.8894 15.6306C19.5013 15.4331 19.3824 14.8357 19.4354 14.325C19.4884 13.8143 19.5559 13.2828 19.604 12.7625C19.7807 10.8306 19.8401 8.75421 20.1163 6.84804C20.2095 6.20087 20.3989 5.97765 21.083 6.00174C22.1943 6.04028 23.4581 6.23459 24.5807 6.34058C26.6747 6.5381 28.5889 6.45299 30.137 8.1215C30.699 8.72691 30.8436 9.28415 31.2161 9.96183C31.5245 10.5255 31.5951 10.1337 31.9661 9.99877C32.109 9.94578 32.3659 9.90563 32.5201 9.89439C33.9815 9.79482 38.9356 9.85263 39.8124 9.91205C40.5672 9.96344 40.7631 10.1208 40.8177 10.882C40.853 11.3766 40.861 12.414 40.7534 12.8781C40.6619 13.2715 40.3359 13.3759 39.9666 13.408C38.6786 13.5172 37.2141 13.2876 35.9294 13.3968C35.6484 13.4209 35.4573 13.5895 35.4187 13.8738C35.3754 14.1965 35.3657 15.3206 35.4139 15.6354C35.4621 15.9502 35.711 15.9871 35.9904 15.9293C37.0792 15.5407 38.1487 14.9882 39.2343 14.6092C39.8204 14.4037 40.1689 14.2865 40.5126 14.9176C40.7904 15.4282 40.9397 16.1685 41.2497 16.6471C41.5837 17.1642 41.7555 16.5748 41.8551 16.2504C42.5906 13.8593 43.1317 11.383 43.7982 8.9694C43.9186 8.5326 44.174 7.35389 44.4502 7.06804C44.6959 6.81431 45.4378 6.68263 45.7782 6.73241C46.1187 6.7822 46.2728 6.99096 46.4848 7.2206C48.5195 10.0245 50.3245 13.0114 52.3848 15.796C52.4988 15.9518 53.0288 16.7756 53.1813 16.281C53.2102 16.1894 53.2375 15.8827 53.244 15.7671C53.2729 15.2853 53.2054 14.8019 53.2022 14.3282C53.1878 12.369 53.2263 10.4099 53.2215 8.4507C53.3291 7.63331 54.5078 7.73127 54.9895 8.16325C56.6211 9.82533 58.0728 11.6657 59.6916 13.3358C60.1797 13.84 60.3516 14.007 60.9072 13.4418C62.4761 11.8471 63.9054 10.018 65.4679 8.41377C65.9224 7.94646 66.2403 7.70879 66.9421 7.81156C67.4624 7.88865 67.5202 8.30939 67.5491 8.76706C67.6021 9.60051 67.4656 10.5383 67.5411 11.3589C67.5636 11.5966 67.6503 11.9274 67.8879 11.6239C68.1096 11.3413 68.2653 10.8756 68.4564 10.5464C71.1286 5.95999 78.2218 5.9102 81.1669 10.1642C81.5042 10.6524 81.7322 11.4842 82.426 11.4553C85.7389 11.1711 89.3521 9.90402 92.2668 12.1378C93.1869 12.8428 93.8534 13.7597 94.4058 14.7698C94.727 15.0091 94.849 14.7506 94.9887 14.4952L98.6084 6.66978C98.7866 6.35022 98.9601 6.1559 99.3326 6.07722C99.4097 6.06116 99.604 6.03386 99.6731 6.02743H99.9204L99.9268 6.02101ZM24.1198 9.87351C23.8885 9.91526 23.7167 10.1561 23.6814 10.381C23.6203 10.7632 23.6284 11.2192 23.5962 11.6111C23.5689 11.9515 23.4806 12.3482 23.4758 12.6838C23.471 13.0371 23.699 13.2523 24.0314 13.3133C24.4875 13.3984 25.5442 13.4932 26.0051 13.4851C27.7442 13.4546 28.2035 10.7744 26.6587 10.1561C26.2283 9.98432 25.0961 9.88154 24.6047 9.86388C24.4586 9.85906 24.2611 9.84782 24.1198 9.87351ZM74.5684 10.8226C69.7925 11.2642 70.6645 19.4381 75.6909 18.3975C79.8919 17.5271 79.2527 10.389 74.5684 10.8226ZM99.6442 12.5842C99.5559 12.6099 99.4579 12.7705 99.4145 12.8492C99.0869 13.4466 98.6228 14.5835 98.39 15.2387C98.2551 15.6193 98.1684 15.9534 98.7112 15.8474C99.0211 15.7864 100.089 15.3447 100.397 15.1874C100.706 15.03 100.833 14.8742 100.759 14.4984C100.715 14.28 100.206 13.1575 100.076 12.9199C99.9911 12.7657 99.8449 12.5264 99.6442 12.5842ZM47.5479 15.6884C47.6892 15.5439 47.7197 15.3977 47.6764 15.197C47.6378 15.0187 46.7562 13.6955 46.5956 13.5221C46.488 13.4064 46.3515 13.2956 46.1909 13.3968C46.0304 13.498 45.8296 14.4743 45.7702 14.7136C45.653 15.1858 45.4201 15.9726 45.3832 16.4255C45.3495 16.8286 45.5662 16.8848 45.9019 16.7354C46.1428 16.6294 47.3825 15.8538 47.5479 15.6852V15.6884ZM31.3237 13.4466C31.176 13.4851 30.8211 14.3362 30.7119 14.5241C30.5754 14.757 30.3586 15.0653 30.1836 15.2709C29.9941 15.4925 29.2056 16.1268 29.1638 16.3083C29.1478 16.3821 29.1478 16.4721 29.1542 16.5475C29.1735 16.7579 29.7805 17.9639 29.9411 18.1052C30.137 18.2787 30.2895 18.2658 30.5224 18.2C30.8837 18.0988 31.4634 17.8531 31.5325 17.442C31.4699 16.2858 31.6513 14.9722 31.5421 13.8336C31.5325 13.7308 31.4859 13.4048 31.3237 13.4482V13.4466ZM87.4989 14.317C87.2099 14.3362 86.7377 14.3764 86.4615 14.4326C86.1355 14.4968 85.9428 14.6381 85.8995 14.985C86.1966 17.1899 86.4182 19.4092 86.765 21.6044C86.9064 21.9465 87.1521 21.969 87.4877 21.9513C89.3778 21.8566 90.8391 21.0938 91.2695 19.1491C91.8252 16.6326 90.2418 14.1339 87.5005 14.317H87.4989ZM40.5061 20.9509C40.5816 20.8754 40.6587 20.6891 40.6956 20.5847C40.8883 20.0596 41.2577 18.7556 41.3316 18.2193C41.4231 17.5608 41.2898 17.5817 40.7663 17.7792C39.1283 18.3991 37.5337 19.1571 35.8973 19.7834C35.3256 20.0291 35.1634 20.9284 35.8475 21.1259L40.1287 21.1291C40.2331 21.1179 40.4323 21.0231 40.5061 20.9509Z" fill="black"/>
</svg>
