<svg width="279" height="55" viewBox="0 0 279 55" fill="none" xmlns="http://www.w3.org/2000/svg">
<path d="M257.992 0.0571019C258.346 0.23168 258.752 0.174942 259.162 0.288418C259.686 0.432445 259.991 0.724864 260.34 1.12639C264.347 9.23119 268.004 17.5411 271.793 25.755C273.573 29.6132 277.798 38.377 277.96 38.879C278.248 39.7562 277.593 40.664 276.668 40.6597C276.524 40.6597 276.397 40.6597 276.314 40.664C274.486 40.7557 271.972 40.7688 270.147 40.6509C268.864 40.568 267.983 40.3978 267.28 39.263C266.503 38.0104 266.062 36.3301 265.395 35.0077C264.282 32.7993 263.343 33.6853 261.497 34.4272C256.604 36.3912 251.869 38.8266 246.863 40.4676C245.314 40.6902 244.41 40.1621 243.411 41.7071C242.682 42.8332 242.254 44.029 241.416 45.1943C235.882 52.8409 227.668 52.8409 219.101 53.836C217.809 53.9843 214.749 54.6827 213.693 54.172C213.082 53.8752 212.807 53.0067 212.685 52.387C211.507 46.2505 211.437 39.5074 210.337 33.3186C210.254 32.8647 210.071 31.4594 209.346 31.8435C209.054 32.0006 207.823 34.5843 207.482 35.1299C200.024 47.0929 180.571 47.3329 172.916 35.4965C172.488 34.8375 171.205 32.101 170.729 31.8696C170.62 31.8173 170.472 31.778 170.35 31.8042C169.992 31.8827 169.931 33.9515 169.939 34.3268C170.001 36.9411 170.289 40.245 170.031 42.8201C169.826 44.8932 168.381 44.5746 166.836 44.6575C165.047 44.7535 163.03 44.9106 161.237 44.7579C159.22 44.5877 159.242 42.8943 159.29 41.2314C159.386 37.8751 159.535 33.7289 159.321 30.3857C159.255 29.3819 159.15 28.2733 157.92 29.1026C155.903 30.8614 154.175 33.3841 152.146 35.0688C150.862 36.1337 150.02 35.9853 148.785 34.9509C146.93 33.3972 145.189 30.6825 143.321 29.2335C142.518 28.6094 141.95 28.6967 141.859 29.7878C141.61 32.7033 141.933 35.8107 141.959 38.7262C141.972 40.0835 142.138 42.7197 141.623 43.8894C141.448 44.2822 141.147 44.544 140.732 44.675C139.157 45.1812 136.918 44.8495 135.281 44.7972C134.225 44.7622 132.82 45.0634 131.894 44.4829C130.28 43.4704 131.969 40.0705 130.131 39.7693C128.844 39.5555 127.495 40.5069 126.125 39.6253C124.955 38.8702 123.602 35.9679 122.589 34.7764C121.577 33.5849 120.927 34.1173 119.805 34.7764C115.497 37.3121 111.32 40.6858 106.982 43.0819C104.586 44.4044 101.976 44.2385 99.401 44.8888C96.826 45.5391 98.1223 47.3853 97.4632 49.3275C97.1184 50.3488 96.0448 50.4622 95.0846 50.5277C90.7158 50.8114 77.1379 50.6412 74.816 50.4797C73.9126 50.4186 72.7735 50.2615 72.3589 49.3537C71.7129 47.9308 72.3239 45.0896 72.0883 43.4922C71.9268 42.3967 70.792 42.4011 69.9148 42.3094C67.2132 42.0257 64.0533 42.0781 61.4215 41.6067C59.427 41.2489 59.0429 39.826 58.2442 38.1894C57.0789 35.7933 56.0314 32.8167 54.6828 30.5778C54.3031 29.9493 53.967 29.5652 53.2382 29.3383C52.7275 29.1811 51.248 28.976 50.7242 28.9935C49.655 29.0327 49.1705 29.8314 49.0658 30.8047C48.8126 33.1921 48.8781 35.9155 48.4591 38.2592C48.1929 39.7562 47.4902 40.3105 45.9583 40.2407C44.4132 40.1708 42.8071 39.9439 41.2621 39.778C39.848 39.6253 38.6478 39.8828 38.0237 38.3159C37.9058 38.0192 37.788 36.9542 37.3734 36.9935C36.7929 37.0459 35.0384 39.3241 34.4405 39.8784C25.3144 48.28 8.93019 46.6652 2.69775 35.5183C1.43205 33.2532 0.690095 30.7873 0.0485198 28.2864C0.201276 25.934 -0.134787 23.3459 0.0659776 21.024C0.45005 16.6159 3.65356 11.684 7.09275 8.97369C15.909 2.02984 31.6341 2.72379 36.8365 13.7484C37.7094 15.5946 37.7443 16.6159 35.5796 17.1658C34.2135 17.5149 29.7967 18.3442 28.5659 18.174C27.418 18.0168 26.5146 16.546 25.6504 15.8303C21.9712 12.7839 15.4507 13.9535 12.6749 17.707C8.24061 23.6994 11.5794 34.0824 19.239 35.3568C22.879 35.9635 27.1954 34.0082 28.7928 30.6258C29.6003 28.9105 29.3253 27.85 31.4988 27.2957C33.4454 26.7981 35.9069 26.7632 37.7487 26.174C39.4116 25.6372 39.0886 24.0136 39.2326 22.6257C39.3767 21.2378 39.56 19.7932 39.6909 18.3791C40.171 13.1287 40.3325 7.48541 41.0832 2.3048C41.3363 0.545921 41.8513 -0.0607385 43.7106 0.00472843C46.7308 0.109475 50.1656 0.637575 53.2164 0.925629C58.9076 1.46246 64.11 1.23114 68.3174 5.76581C69.8449 7.41121 70.2377 8.92568 71.2503 10.7675C72.0883 12.2994 72.2803 11.2345 73.2885 10.8679C73.6769 10.7238 74.3752 10.6147 74.7942 10.5842C78.7659 10.3136 92.2302 10.4707 94.6132 10.6322C96.6645 10.7718 97.197 11.1996 97.3454 13.2683C97.4414 14.6126 97.4632 17.432 97.1708 18.6933C96.922 19.7626 96.036 20.0463 95.0322 20.1336C91.5319 20.4304 87.5515 19.8063 84.06 20.1031C83.2962 20.1685 82.7768 20.6268 82.6721 21.3993C82.5542 22.2766 82.528 25.3317 82.659 26.1871C82.7899 27.0425 83.4664 27.1429 84.2258 26.9858C87.1849 25.9296 90.0917 24.4282 93.042 23.3982C94.6351 22.8396 95.5821 22.521 96.5161 24.2362C97.2712 25.6241 97.6771 27.6361 98.5194 28.9367C99.4272 30.3421 99.8942 28.7403 100.165 27.8587C102.164 21.36 103.635 14.63 105.446 8.07025C105.773 6.88312 106.467 3.6796 107.218 2.90273C107.886 2.21314 109.902 1.85526 110.827 1.99056C111.752 2.12586 112.171 2.69323 112.748 3.31735C118.277 10.9377 123.183 19.0556 128.783 26.6236C129.092 27.0469 130.533 29.2859 130.947 27.9416C131.026 27.6929 131.1 26.8592 131.118 26.545C131.196 25.2357 131.013 23.922 131.004 22.6344C130.965 17.3098 131.07 11.9852 131.056 6.66053C131.349 4.43902 134.552 4.70525 135.862 5.87929C140.296 10.3965 144.241 15.3982 148.641 19.9372C149.968 21.3076 150.435 21.7616 151.945 20.2253C156.209 15.8914 160.093 10.9202 164.34 6.56014C165.575 5.29009 166.439 4.64415 168.346 4.92347C169.76 5.13297 169.918 6.27646 169.996 7.52033C170.14 9.78548 169.769 12.3343 169.974 14.5646C170.035 15.2105 170.271 16.1096 170.917 15.2847C171.519 14.5166 171.943 13.2509 172.462 12.3561C179.725 -0.108747 199.002 -0.244046 207.007 11.3174C207.923 12.6442 208.543 14.905 210.429 14.8264C219.432 14.0539 229.252 10.6104 237.174 16.6813C239.675 18.5973 241.486 21.0894 242.987 23.8347C243.86 24.485 244.192 23.7823 244.572 23.0883L254.409 1.82034C254.894 0.951816 255.365 0.423716 256.378 0.209858C256.587 0.166213 257.115 0.0920176 257.303 0.0745598H257.975L257.992 0.0571019ZM51.9638 10.5274C51.3353 10.6409 50.8683 11.2956 50.7723 11.9066C50.6064 12.9453 50.6282 14.1849 50.5409 15.2498C50.4667 16.175 50.2267 17.2531 50.2136 18.1652C50.2005 19.1254 50.8203 19.7103 51.7237 19.8761C52.9632 20.1074 55.835 20.3649 57.0876 20.3431C61.8143 20.2602 63.0626 12.9759 58.864 11.2956C57.6943 10.8286 54.6173 10.5493 53.2818 10.5013C52.8847 10.4882 52.3478 10.4576 51.9638 10.5274ZM189.073 13.1068C176.093 14.3071 178.463 36.5222 192.124 33.694C203.541 31.3284 201.804 11.9284 189.073 13.1068ZM257.224 17.8946C256.984 17.9645 256.718 18.4009 256.6 18.6148C255.71 20.2384 254.448 23.3284 253.816 25.1091C253.449 26.1435 253.213 27.0513 254.688 26.7632C255.531 26.5974 258.433 25.3971 259.271 24.9694C260.109 24.5417 260.454 24.1184 260.253 23.0971C260.135 22.5035 258.752 19.4528 258.398 18.8068C258.167 18.3878 257.77 17.7375 257.224 17.8946ZM115.637 26.3311C116.021 25.9383 116.104 25.5412 115.986 24.9956C115.881 24.5112 113.485 20.9148 113.049 20.4435C112.756 20.1292 112.385 19.8281 111.949 20.1031C111.512 20.378 110.967 23.0316 110.805 23.6819C110.487 24.9651 109.854 27.1036 109.754 28.3344C109.662 29.4299 110.251 29.5827 111.163 29.1768C111.818 28.8887 115.187 26.7807 115.637 26.3224V26.3311ZM71.5427 20.2384C71.1412 20.3431 70.1766 22.6563 69.8799 23.1669C69.5089 23.7998 68.9197 24.6377 68.4439 25.1964C67.9289 25.7987 65.786 27.5226 65.6725 28.0158C65.6289 28.2166 65.6289 28.461 65.6463 28.6661C65.6987 29.2379 67.3485 32.5156 67.7849 32.8997C68.3174 33.371 68.732 33.3361 69.3648 33.1572C70.3468 32.8822 71.9224 32.2144 72.1101 31.0971C71.9399 27.9547 72.4331 24.3846 72.1363 21.2902C72.1101 21.0109 71.9835 20.1249 71.5427 20.2427V20.2384ZM224.216 22.6039C223.43 22.6563 222.147 22.7654 221.396 22.9181C220.51 23.0927 219.987 23.4768 219.869 24.4195C220.676 30.4119 221.279 36.4436 222.221 42.4098C222.605 43.3394 223.273 43.4005 224.185 43.3525C229.322 43.095 233.294 41.0219 234.464 35.7365C235.974 28.8974 231.67 22.1063 224.22 22.6039H224.216ZM96.4987 40.6335C96.7038 40.4283 96.9133 39.9221 97.0137 39.6384C97.5374 38.2112 98.5413 34.6673 98.742 33.2095C98.9908 31.4201 98.6285 31.4768 97.2057 32.0137C92.754 33.6983 88.4201 35.7584 83.9727 37.4605C82.4189 38.1283 81.9781 40.5724 83.8374 41.1092L95.473 41.1179C95.7567 41.0874 96.2979 40.8299 96.4987 40.6335Z" fill="#704DFF"/>
</svg>
