<svg width="20" height="20" viewBox="0 0 20 20" fill="none" xmlns="http://www.w3.org/2000/svg">
<g id="li:sparkles">
<path id="Vector" fill-rule="evenodd" clip-rule="evenodd" d="M10 2C10.3455 2 10.652 2.22182 10.7599 2.55004L12.2895 7.20044L12.2896 7.20045C12.3287 7.31945 12.3952 7.4276 12.4838 7.51618C12.5724 7.60477 12.6805 7.67131 12.7996 7.71045L12.7996 7.71045L17.45 9.24005C17.7782 9.34801 18 9.65448 18 10C18 10.3455 17.7782 10.652 17.45 10.7599L12.7996 12.2895L12.7996 12.2896C12.6805 12.3287 12.5724 12.3952 12.4838 12.4838C12.3952 12.5724 12.3287 12.6805 12.2896 12.7996L12.2895 12.7996L10.7599 17.45C10.652 17.7782 10.3455 18 10 18C9.65448 18 9.34801 17.7782 9.24005 17.45L7.71045 12.7996L7.71045 12.7996C7.67131 12.6805 7.60477 12.5724 7.51618 12.4838C7.4276 12.3952 7.31945 12.3287 7.20045 12.2896L7.20044 12.2895L2.55004 10.7599C2.22182 10.652 2 10.3455 2 10C2 9.65448 2.22182 9.34801 2.55004 9.24005L7.20044 7.71045L7.20045 7.71045C7.31945 7.67131 7.4276 7.60477 7.51618 7.51618C7.60477 7.4276 7.67131 7.31945 7.71045 7.20045L7.71045 7.20044L9.24005 2.55004C9.34801 2.22182 9.65448 2 10 2ZM9.23035 7.70035C9.23035 7.70035 9.23035 7.70036 9.23035 7.70036C9.11293 8.05737 8.9133 8.38181 8.64756 8.64756C8.38181 8.9133 8.05737 9.11293 7.70036 9.23035C7.70036 9.23035 7.70035 9.23035 7.70035 9.23035L5.36041 10L7.70035 10.7697C7.70035 10.7697 7.70036 10.7697 7.70036 10.7697C8.05737 10.8871 8.38181 11.0867 8.64756 11.3524C8.9133 11.6182 9.11293 11.9426 9.23035 12.2996C9.23035 12.2996 9.23035 12.2996 9.23035 12.2997L10 14.6396L10.7697 12.2997C10.7697 12.2996 10.7697 12.2996 10.7697 12.2996C10.8871 11.9426 11.0867 11.6182 11.3524 11.3524C11.6182 11.0867 11.9426 10.8871 12.2996 10.7697C12.2996 10.7697 12.2996 10.7697 12.2997 10.7697L14.6396 10L12.2997 9.23035C12.2996 9.23035 12.2996 9.23035 12.2996 9.23035C11.9426 9.11293 11.6182 8.9133 11.3524 8.64756C11.0867 8.38181 10.8871 8.05737 10.7697 7.70036C10.7697 7.70036 10.7697 7.70035 10.7697 7.70035L10 5.36041L9.23035 7.70035Z" fill="white"/>
<path id="Vector_2" fill-rule="evenodd" clip-rule="evenodd" d="M4.4001 2C4.84193 2 5.2001 2.35817 5.2001 2.8V6C5.2001 6.44183 4.84193 6.8 4.4001 6.8C3.95827 6.8 3.6001 6.44183 3.6001 6V2.8C3.6001 2.35817 3.95827 2 4.4001 2Z" fill="#FAFAFA"/>
<path id="Vector_3" fill-rule="evenodd" clip-rule="evenodd" d="M15.5998 13.2C16.0416 13.2 16.3998 13.5582 16.3998 14V17.2C16.3998 17.6418 16.0416 18 15.5998 18C15.158 18 14.7998 17.6418 14.7998 17.2V14C14.7998 13.5582 15.158 13.2 15.5998 13.2Z" fill="#FAFAFA"/>
<path id="Vector_4" fill-rule="evenodd" clip-rule="evenodd" d="M2 4.39998C2 3.95815 2.35817 3.59998 2.8 3.59998H6C6.44183 3.59998 6.8 3.95815 6.8 4.39998C6.8 4.8418 6.44183 5.19998 6 5.19998H2.8C2.35817 5.19998 2 4.8418 2 4.39998Z" fill="#FAFAFA"/>
<path id="Vector_5" fill-rule="evenodd" clip-rule="evenodd" d="M13.2002 15.6C13.2002 15.1582 13.5584 14.8 14.0002 14.8H17.2002C17.642 14.8 18.0002 15.1582 18.0002 15.6C18.0002 16.0418 17.642 16.4 17.2002 16.4H14.0002C13.5584 16.4 13.2002 16.0418 13.2002 15.6Z" fill="#FAFAFA"/>
</g>
</svg>
