<svg width="16" height="16" viewBox="0 0 16 16" fill="none" xmlns="http://www.w3.org/2000/svg">
<path d="M8 2C11.3137 2 14 4.68629 14 8C14 11.3137 11.3137 14 8 14C4.68629 14 2 11.3137 2 8C2 4.68629 4.68629 2 8 2ZM11.1035 5.64648C10.9083 5.45123 10.5917 5.45125 10.3965 5.64648L6.98633 9.05469L5.60352 7.67285L5.52539 7.6084C5.33132 7.48022 5.06736 7.50201 4.89648 7.67285C4.72563 7.84373 4.70385 8.10769 4.83203 8.30176L4.89648 8.37988L6.63281 10.1172C6.72658 10.211 6.8547 10.2627 6.9873 10.2627C7.11972 10.2626 7.24717 10.2108 7.34082 10.1172L11.1035 6.35352C11.2987 6.15825 11.2988 5.84174 11.1035 5.64648Z" fill="#04AE54"/>
</svg>
