<svg width="40" height="40" viewBox="0 0 40 40" fill="none" xmlns="http://www.w3.org/2000/svg">
<rect x="2" y="2" width="36" height="36" rx="18" fill="#F4EBFF"/>
<rect x="2" y="2" width="36" height="36" rx="18" stroke="#F9F5FF" stroke-width="4"/>
<path d="M15.8333 19.166V15.8327C15.8333 14.7276 16.2723 13.6678 17.0537 12.8864C17.8351 12.105 18.8949 11.666 20 11.666C21.1051 11.666 22.1649 12.105 22.9463 12.8864C23.7277 13.6678 24.1667 14.7276 24.1667 15.8327V19.166M14.1667 19.166H25.8333C26.7538 19.166 27.5 19.9122 27.5 20.8327V26.666C27.5 27.5865 26.7538 28.3327 25.8333 28.3327H14.1667C13.2462 28.3327 12.5 27.5865 12.5 26.666V20.8327C12.5 19.9122 13.2462 19.166 14.1667 19.166Z" stroke="#704DFF" stroke-width="1.66667" stroke-linecap="round" stroke-linejoin="round"/>
</svg>
