<svg width="16" height="16" viewBox="0 0 16 16" fill="none" xmlns="http://www.w3.org/2000/svg">
<g id="li:crown">
<path id="Vector" fill-rule="evenodd" clip-rule="evenodd" d="M1.0274 2.07439C1.3021 1.93249 1.63832 1.99809 1.83953 2.23284L5.22388 6.18125L7.4212 2.33594C7.53989 2.12822 7.76079 2.00003 8.00003 2.00003C8.23926 2.00003 8.46016 2.12822 8.57886 2.33594L10.7762 6.18125L14.1605 2.23284C14.3617 1.99809 14.698 1.93249 14.9727 2.07439C15.2474 2.21629 15.3884 2.52844 15.3135 2.82839L13.3135 10.8284C13.2393 11.1252 12.9726 11.3334 12.6667 11.3334H3.33336C3.02745 11.3334 2.76079 11.1252 2.6866 10.8284L0.686598 2.82839C0.61161 2.52844 0.752699 2.21629 1.0274 2.07439ZM2.66505 5.24474L3.85388 10H12.1462L13.335 5.24474L11.1729 7.76723C11.0318 7.93183 10.8195 8.01755 10.6036 7.99704C10.3878 7.97653 10.1954 7.85236 10.0879 7.66413L8.00003 4.01041L5.91219 7.66413C5.80463 7.85236 5.61225 7.97653 5.39643 7.99704C5.1806 8.01755 4.96828 7.93183 4.82719 7.76723L2.66505 5.24474ZM2.66669 13.3334C2.66669 12.9652 2.96517 12.6667 3.33336 12.6667H12.6667C13.0349 12.6667 13.3334 12.9652 13.3334 13.3334C13.3334 13.7016 13.0349 14 12.6667 14H3.33336C2.96517 14 2.66669 13.7016 2.66669 13.3334Z" fill="#999999"/>
</g>
</svg>
