<svg width="21" height="20" viewBox="0 0 21 20" fill="none" xmlns="http://www.w3.org/2000/svg">
<g clip-path="url(#clip0_369_3081)">
<path d="M11.6709 5.16797C11.7136 5.26455 11.7641 5.35861 11.8213 5.4502L11.9121 5.58105C12.1302 5.87629 12.4123 6.09984 12.7588 6.25098L13.2295 6.45703C13.7044 6.66426 14.0446 6.9968 14.249 7.45508L14.5302 8.08887C15.1362 9.45269 16.9397 9.66665 17.9238 8.7334L18 8.83398C18.1157 8.98834 18.1736 9.17839 18.165 9.37109C18.1564 9.5639 18.0812 9.74815 17.9521 9.8916L10.4521 18.2246C10.374 18.3113 10.2785 18.3812 10.1719 18.4287C10.0653 18.4762 9.94966 18.5009 9.83298 18.501C9.7163 18.501 9.60073 18.4761 9.49412 18.4287C9.38749 18.3813 9.29197 18.3113 9.21384 18.2246L1.71384 9.8916C1.58468 9.74814 1.50962 9.56395 1.50095 9.37109C1.49238 9.17835 1.55026 8.98836 1.66599 8.83398L4.16599 5.50098C4.24351 5.39764 4.34443 5.31369 4.45994 5.25586C4.57561 5.19805 4.70367 5.16797 4.83298 5.16797H11.6709ZM9.59861 7.7002C9.12295 7.7002 8.6826 7.79721 8.28416 7.99609L8.11619 8.08789C7.72784 8.3169 7.41338 8.63396 7.17283 9.03223L7.0742 9.20801C6.82004 9.69404 6.70018 10.2666 6.70017 10.9141C6.70017 11.56 6.81926 12.1326 7.07127 12.6201L7.16892 12.7959C7.40804 13.1942 7.72205 13.5112 8.11033 13.7402L8.27927 13.832C8.67828 14.0309 9.12021 14.1279 9.59861 14.1279C9.96588 14.1279 10.3082 14.0739 10.622 13.9609L10.624 13.96C10.9323 13.8469 11.207 13.689 11.4433 13.4844L11.4443 13.4834C11.6772 13.2795 11.8669 13.0428 12.0117 12.7744L12.0107 12.7734C12.1569 12.5057 12.2531 12.2192 12.2969 11.915L12.3457 11.5742L12.0019 11.5723L10.9658 11.5674L10.7158 11.5654L10.6689 11.8115C10.6502 11.9104 10.6209 11.9974 10.582 12.0742L10.54 12.1484L10.5381 12.1504C10.4917 12.2242 10.4377 12.2885 10.376 12.3438L10.3125 12.3955L10.3105 12.3975C10.2221 12.4638 10.1197 12.5152 10.0019 12.5518C9.88501 12.5868 9.75566 12.6054 9.61228 12.6055C9.35772 12.6055 9.14179 12.5449 8.95603 12.4287H8.95701C8.82138 12.3418 8.70179 12.2216 8.60154 12.0605L8.50779 11.8848C8.39608 11.6373 8.33298 11.3174 8.33298 10.9141C8.33299 10.5176 8.39646 10.2012 8.50877 9.95508L8.60154 9.7793C8.70102 9.61734 8.82011 9.49534 8.95701 9.40723L8.95896 9.40625C9.14425 9.28571 9.35998 9.22266 9.61521 9.22266C9.76069 9.2227 9.89092 9.24278 10.0078 9.28027L10.0127 9.28125L10.0976 9.31152C10.1801 9.34474 10.2537 9.38721 10.3193 9.43848L10.3828 9.49316C10.4437 9.5507 10.4972 9.61766 10.5429 9.69434L10.5439 9.69531C10.6017 9.79068 10.644 9.90541 10.6679 10.043L10.7119 10.292H12.3427L12.2969 9.95215C12.25 9.60351 12.1497 9.28477 11.9902 9.00195H11.9892C11.8734 8.79287 11.7329 8.60646 11.5674 8.44434L11.3926 8.28906C11.2113 8.14271 11.0115 8.02399 10.7949 7.93164L10.5722 7.84766C10.2679 7.74828 9.9425 7.70024 9.59861 7.7002ZM16.5 1C16.5845 1.00011 16.6674 1.02562 16.7373 1.07324C16.8072 1.12096 16.8616 1.18879 16.8926 1.26758L17.1025 1.77637C17.4566 2.63862 18.1283 3.33264 18.9785 3.71484L19.5761 3.98047C19.6527 4.01574 19.7181 4.07258 19.7636 4.14355C19.8091 4.21456 19.8329 4.29752 19.833 4.38184C19.833 4.46617 19.8091 4.54907 19.7636 4.62012C19.7181 4.69119 19.6528 4.7479 19.5761 4.7832L18.9433 5.06543C18.1141 5.43698 17.4542 6.10631 17.0937 6.94043L16.8886 7.41211C16.7378 7.75709 16.2604 7.75704 16.1103 7.41211L15.9052 6.94043C15.5452 6.10628 14.8855 5.43738 14.0566 5.06543L13.4228 4.7832C13.3464 4.74781 13.2817 4.69104 13.2363 4.62012C13.191 4.54921 13.167 4.46694 13.167 4.38281C13.167 4.29852 13.1909 4.21556 13.2363 4.14453C13.2817 4.07361 13.3464 4.01681 13.4228 3.98145L14.0215 3.71484C14.8713 3.3323 15.5427 2.63864 15.8965 1.77637L16.1074 1.26758C16.1383 1.18888 16.1919 1.12093 16.2617 1.07324C16.3317 1.02557 16.4153 1 16.5 1Z" fill="white"/>
</g>
<defs>
<clipPath id="clip0_369_3081">
<rect width="20" height="20" fill="white" transform="translate(0.5)"/>
</clipPath>
</defs>
</svg>
