<svg width="24" height="24" viewBox="0 0 24 24" fill="none" xmlns="http://www.w3.org/2000/svg">
<path d="M12 3C12.6 3 13 3.4 13 4C13 4.6 12.6 5 12 5H6C5.4 5 5 5.4 5 6V18C5 18.6 5.4 19 6 19H12C12.6 19 13 19.4 13 20C13 20.6 12.6 21 12 21H6C4.30001 21 3 19.7 3 18V6C3 4.30001 4.30001 3 6 3H12ZM15.0996 7C15.4996 6.59999 16.1 6.59999 16.5 7L20.7002 11.2002C20.8001 11.3001 20.9004 11.4001 20.9004 11.5V11.5996C21.0004 11.6996 21 11.9 21 12C21 12.0999 21.0001 12.2994 20.9004 12.2002V12.2998C20.8005 12.3997 20.7999 12.4997 20.7002 12.5996L16.5 16.7998C16.1 17.1998 15.4996 17.1998 15.0996 16.7998C14.7 16.3999 14.7001 15.8003 15.0996 15.4004L17.5996 12.9004H10C9.50014 12.9004 9.0003 12.4002 9 11.9004C9 11.4004 9.49999 10.9004 10 10.9004H17.5996L15.0996 8.40039C14.6997 8.00046 14.6998 7.40001 15.0996 7Z" fill="#0A1532" fill-opacity="0.6"/>
</svg>
