<svg width="24" height="24" viewBox="0 0 24 24" fill="none" xmlns="http://www.w3.org/2000/svg">
<path d="M16.25 8.8C16.6 9.2 16.55 9.85 16.15 10.2C13.45 12.5 10.55 12.5 7.84999 10.2C7.44999 9.85 7.39999 9.2 7.74999 8.8C8.09999 8.4 8.74999 8.35 9.14999 8.7C11.1 10.4 12.9 10.4 14.85 8.7C15.25 8.35 15.9 8.4 16.25 8.8ZM17.45 3.95H6.54999C6.19999 3.95 5.84999 4.15 5.69999 4.45L2.84999 9.3C2.64999 9.7 2.69999 10.2 2.99999 10.5L11.25 19.2C11.65 19.6 12.25 19.6 12.65 19.25L12.7 19.2L21 10.5C21.3 10.2 21.35 9.7 21.15 9.3L18.3 4.45C18.1 4.15 17.8 3.95 17.45 3.95ZM18.35 1.99995C19.05 1.99995 19.65 2.45 20.05 3L23.25 8.7C23.65 9.4 23.55 10.3 23.05 10.95L23 11.05L13.45 21.4C13.4 21.45 13.4 21.5 13.35 21.5C12.55 22.2 11.35 22.2 10.6 21.45L10.5 21.35L0.99999 11.05C0.44999 10.45 0.29999 9.55 0.69999 8.8L0.74999 8.7L3.94999 3C4.29999 2.4 4.89999 2 5.59999 2L18.35 1.99995Z" fill="#0A1532"/>
</svg>
