<svg width="24" height="24" viewBox="0 0 24 24" fill="none" xmlns="http://www.w3.org/2000/svg">
<path d="M14.25 1C14.7821 1.00002 15.3003 1.16972 15.7293 1.48444C16.1583 1.79915 16.4757 2.24249 16.6355 2.75H17.4215C19.3685 2.75 20.9365 4.3715 20.998 6.377L21 6.5V19C21 21.02 19.471 22.6825 17.54 22.748L17.4215 22.75H6.5785C4.6315 22.75 3.0635 21.1285 3.002 19.123L3 19V6.5C3 4.48 4.529 2.8175 6.46 2.752L6.5785 2.75H7.3645C7.52427 2.24249 7.84173 1.79915 8.27073 1.48444C8.69974 1.16972 9.21793 1.00002 9.75 1H14.25ZM7.3645 4.25H6.5785C5.4745 4.25 4.5555 5.19 4.5025 6.39L4.5 6.5V19C4.5 20.215 5.3865 21.191 6.4785 21.2475L6.5785 21.25H17.4215C18.5255 21.25 19.4445 20.31 19.4975 19.11L19.5 19V6.5C19.5 5.285 18.6135 4.309 17.5215 4.2525L17.4215 4.25H16.635C16.4753 4.75743 16.1579 5.20071 15.729 5.51542C15.3001 5.83013 14.782 5.99988 14.25 6H9.75C9.21793 5.99998 8.69974 5.83028 8.27073 5.51556C7.84173 5.20085 7.52427 4.75751 7.3645 4.25ZM16.25 14.5C16.4489 14.5 16.6397 14.579 16.7803 14.7197C16.921 14.8603 17 15.0511 17 15.25C17 15.4489 16.921 15.6397 16.7803 15.7803C16.6397 15.921 16.4489 16 16.25 16H7.75C7.55109 16 7.36032 15.921 7.21967 15.7803C7.07902 15.6397 7 15.4489 7 15.25C7 15.0511 7.07902 14.8603 7.21967 14.7197C7.36032 14.579 7.55109 14.5 7.75 14.5H16.25ZM16.25 10C16.4489 10 16.6397 10.079 16.7803 10.2197C16.921 10.3603 17 10.5511 17 10.75C17 10.9489 16.921 11.1397 16.7803 11.2803C16.6397 11.421 16.4489 11.5 16.25 11.5H7.75C7.55109 11.5 7.36032 11.421 7.21967 11.2803C7.07902 11.1397 7 10.9489 7 10.75C7 10.5511 7.07902 10.3603 7.21967 10.2197C7.36032 10.079 7.55109 10 7.75 10H16.25ZM14.25 2.5H9.75C9.61867 2.49998 9.48861 2.52583 9.36727 2.57608C9.24593 2.62632 9.13567 2.69998 9.04279 2.79284C8.94992 2.8857 8.87625 2.99595 8.82598 3.11728C8.77572 3.23862 8.74985 3.36866 8.74985 3.5C8.74985 3.63133 8.77572 3.76138 8.82598 3.88272C8.87625 4.00405 8.94992 4.1143 9.04279 4.20716C9.13567 4.30002 9.24593 4.37368 9.36727 4.42392C9.48861 4.47417 9.61867 4.50002 9.75 4.5H14.25C14.3813 4.50002 14.5114 4.47417 14.6327 4.42392C14.7541 4.37368 14.8643 4.30002 14.9572 4.20716C15.0501 4.1143 15.1238 4.00405 15.174 3.88272C15.2243 3.76138 15.2502 3.63133 15.2502 3.5C15.2502 3.36866 15.2243 3.23862 15.174 3.11728C15.1238 2.99595 15.0501 2.8857 14.9572 2.79284C14.8643 2.69998 14.7541 2.62632 14.6327 2.57608C14.5114 2.52583 14.3813 2.49998 14.25 2.5Z" fill="#0A1532"/>
<path d="M2.75 6.5C2.75 4.3564 4.37486 2.57257 6.45117 2.50195H6.45605L6.57422 2.5H7.18848C7.37795 2.0151 7.70124 1.59265 8.12305 1.2832C8.59494 0.937025 9.16475 0.750019 9.75 0.75H14.25L14.4688 0.758789C14.9763 0.799288 15.4641 0.980329 15.877 1.2832C16.2988 1.59265 16.622 2.0151 16.8115 2.5H17.4219C19.45 2.5002 21.0782 4.13372 21.2373 6.1709L21.248 6.36914V6.37305L21.25 6.49609V19C21.25 21.1436 19.6251 22.9274 17.5488 22.998H17.5439L17.4258 23H6.57812C4.48467 22.9998 2.81732 21.2593 2.75195 19.1309V19.127L2.75 19.0039V6.5ZM19.25 6.5C19.25 5.40271 18.453 4.55092 17.5088 4.50195L17.415 4.5H16.8105C16.6211 4.9847 16.2986 5.4074 15.877 5.7168C15.4642 6.01967 14.9762 6.20063 14.4688 6.24121L14.25 6.25H9.75C9.16475 6.24998 8.59494 6.06297 8.12305 5.7168C7.70124 5.40735 7.37795 4.9849 7.18848 4.5H6.57812C5.62438 4.50021 4.79979 5.31823 4.75195 6.40137L4.75 6.50586V19C4.75 20.0973 5.54704 20.9491 6.49121 20.998L6.58496 21H17.4219C18.3756 20.9998 19.2002 20.1818 19.248 19.0986L19.25 19V6.5ZM16.75 15.25C16.75 15.1174 16.6973 14.9903 16.6035 14.8965C16.5097 14.8027 16.3826 14.75 16.25 14.75H7.75C7.61739 14.75 7.49025 14.8027 7.39648 14.8965C7.30272 14.9903 7.25 15.1174 7.25 15.25C7.25 15.3826 7.30272 15.5097 7.39648 15.6035C7.49025 15.6973 7.61739 15.75 7.75 15.75H16.25C16.3826 15.75 16.5097 15.6973 16.6035 15.6035C16.6973 15.5097 16.75 15.3826 16.75 15.25ZM16.75 10.75C16.75 10.6174 16.6973 10.4903 16.6035 10.3965C16.5097 10.3027 16.3826 10.25 16.25 10.25H7.75C7.61739 10.25 7.49025 10.3027 7.39648 10.3965C7.30272 10.4903 7.25 10.6174 7.25 10.75C7.25 10.8826 7.30272 11.0097 7.39648 11.1035C7.49025 11.1973 7.61739 11.25 7.75 11.25H16.25C16.3826 11.25 16.5097 11.1973 16.6035 11.1035C16.6973 11.0097 16.75 10.8826 16.75 10.75ZM15 3.5C15 3.40152 14.981 3.30388 14.9434 3.21289C14.9057 3.12189 14.8499 3.03937 14.7803 2.96973C14.7106 2.9001 14.6281 2.84432 14.5371 2.80664C14.4917 2.78785 14.4445 2.77419 14.3965 2.76465L14.25 2.75H9.75C9.65155 2.74998 9.55386 2.76899 9.46289 2.80664C9.3719 2.84432 9.28938 2.9001 9.21973 2.96973C9.15007 3.03937 9.09434 3.12189 9.05664 3.21289C9.01896 3.30388 9 3.40152 9 3.5L9.01465 3.64648C9.02421 3.69446 9.03783 3.74169 9.05664 3.78711C9.09434 3.87811 9.15007 3.96063 9.21973 4.03027C9.28938 4.0999 9.3719 4.15568 9.46289 4.19336C9.55386 4.23101 9.65155 4.25002 9.75 4.25H14.25L14.3965 4.23535C14.4445 4.22581 14.4917 4.21215 14.5371 4.19336C14.6281 4.15568 14.7106 4.0999 14.7803 4.03027C14.8499 3.96063 14.9057 3.87811 14.9434 3.78711C14.981 3.69612 15 3.59848 15 3.5ZM17.25 15.25C17.25 15.5152 17.1446 15.7695 16.957 15.957C16.7695 16.1446 16.5152 16.25 16.25 16.25H7.75C7.48478 16.25 7.2305 16.1446 7.04297 15.957C6.85543 15.7695 6.75 15.5152 6.75 15.25C6.75 14.9848 6.85543 14.7305 7.04297 14.543C7.23051 14.3554 7.48478 14.25 7.75 14.25H16.25C16.5152 14.25 16.7695 14.3554 16.957 14.543C17.1446 14.7305 17.25 14.9848 17.25 15.25ZM17.25 10.75C17.25 11.0152 17.1446 11.2695 16.957 11.457C16.7695 11.6446 16.5152 11.75 16.25 11.75H7.75C7.48478 11.75 7.23051 11.6446 7.04297 11.457C6.85543 11.2695 6.75 11.0152 6.75 10.75C6.75 10.4848 6.85543 10.2305 7.04297 10.043C7.2305 9.85543 7.48478 9.75 7.75 9.75H16.25C16.5152 9.75 16.7695 9.85543 16.957 10.043C17.1446 10.2305 17.25 10.4848 17.25 10.75ZM3.25 18.9961L3.25195 19.1152L3.26172 19.291C3.4022 21.0902 4.83437 22.4998 6.57812 22.5H17.417L17.5312 22.498L17.6982 22.4883C19.4054 22.3408 20.75 20.8369 20.75 19V6.50391L20.748 6.38477L20.7383 6.20898C20.5978 4.40981 19.1656 3.0002 17.4219 3H16.4521L16.3975 2.8252C16.2537 2.36841 15.9672 1.96881 15.5811 1.68555C15.2432 1.43786 14.844 1.28991 14.4287 1.25684L14.25 1.25H9.75C9.2713 1.25002 8.80498 1.4025 8.41895 1.68555C8.03282 1.96881 7.74634 2.36841 7.60254 2.8252L7.54785 3H6.58301L6.46777 3.00098L6.46875 3.00195C4.68322 3.06252 3.25 4.60372 3.25 6.5V18.9961ZM19.75 19.0059L19.7471 19.1152V19.1211C19.6889 20.4377 18.6758 21.4998 17.4219 21.5H6.57227L6.47266 21.4971H6.46582C5.22608 21.4329 4.25 20.3326 4.25 19V6.49414L4.25293 6.38477V6.37891L4.27441 6.13574C4.43805 4.93398 5.40241 4.0002 6.57812 4H7.54785L7.60254 4.1748C7.74634 4.63159 8.03282 5.03119 8.41895 5.31445C8.80498 5.5975 9.2713 5.74998 9.75 5.75H14.25L14.4287 5.74316C14.844 5.70999 15.2433 5.56134 15.5811 5.31348C15.967 5.03023 16.2527 4.63145 16.3965 4.1748L16.4512 4H17.4277L17.5273 4.00293H17.5342L17.7637 4.02637C18.8924 4.20499 19.75 5.25065 19.75 6.5V19.0059ZM15.5 3.5C15.5 3.66417 15.4681 3.82685 15.4053 3.97852C15.3424 4.13018 15.2499 4.26771 15.1338 4.38379C15.0177 4.49986 14.8802 4.59247 14.7285 4.65527C14.6149 4.70233 14.495 4.73209 14.373 4.74414L14.25 4.75H9.75C9.58585 4.75002 9.42315 4.71807 9.27148 4.65527C9.11981 4.59247 8.9823 4.49986 8.86621 4.38379C8.75012 4.26771 8.65756 4.13018 8.59473 3.97852C8.54765 3.86488 8.51792 3.74501 8.50586 3.62305L8.5 3.5C8.5 3.33583 8.5319 3.17315 8.59473 3.02148C8.65756 2.86981 8.75012 2.73229 8.86621 2.61621C8.9823 2.50014 9.11981 2.40753 9.27148 2.34473C9.42315 2.28193 9.58585 2.24998 9.75 2.25H14.25L14.373 2.25586C14.495 2.26791 14.6149 2.29767 14.7285 2.34473C14.8802 2.40753 15.0177 2.50014 15.1338 2.61621C15.2499 2.73229 15.3424 2.86982 15.4053 3.02148C15.4681 3.17315 15.5 3.33583 15.5 3.5Z" fill="#0A1532"/>
</svg>
