<svg width="24" height="24" viewBox="0 0 24 24" fill="none" xmlns="http://www.w3.org/2000/svg">
<path d="M12.1924 1.52734C15.3637 1.52749 17.9434 4.10791 17.9434 7.2793C17.9432 9.18601 17.0101 10.8778 15.5771 11.9248C17.2446 12.5061 18.7345 13.5072 19.9033 14.8311C19.9762 14.9136 20.0316 15.0101 20.0674 15.1143C20.1032 15.2186 20.1182 15.3294 20.1113 15.4395C20.1044 15.5493 20.0767 15.657 20.0283 15.7559C19.9798 15.8549 19.9118 15.9436 19.8291 16.0166C19.7464 16.0896 19.6502 16.1458 19.5459 16.1816C19.4416 16.2174 19.3308 16.2324 19.2207 16.2256C19.1108 16.2187 19.0033 16.19 18.9043 16.1416C18.8052 16.0931 18.7165 16.0251 18.6436 15.9424C17.836 15.0276 16.8426 14.295 15.7305 13.793C14.6184 13.2911 13.4124 13.0308 12.1924 13.0303C7.44926 13.0303 3.58984 16.8898 3.58984 21.6328C3.58968 22.0967 3.21382 22.4727 2.75 22.4727C2.28626 22.4726 1.91032 22.0967 1.91016 21.6328C1.91016 17.1491 4.79617 13.3287 8.80762 11.9258C7.37411 10.8788 6.44055 9.1864 6.44043 7.2793C6.44043 4.1077 9.02078 1.52734 12.1924 1.52734ZM21.25 20.791C21.4727 20.791 21.6862 20.8796 21.8438 21.0371C22.0012 21.1946 22.0898 21.4081 22.0898 21.6309C22.0898 21.8536 22.0013 22.0671 21.8438 22.2246C21.6862 22.3821 21.4727 22.4707 21.25 22.4707H14.5352C14.3124 22.4707 14.0989 22.3821 13.9414 22.2246C13.7839 22.0671 13.6953 21.8536 13.6953 21.6309C13.6953 21.4081 13.784 21.1946 13.9414 21.0371C14.0989 20.8796 14.3124 20.7911 14.5352 20.791H21.25ZM21.25 17.8408C21.4727 17.8408 21.6862 17.9294 21.8438 18.0869C22.0012 18.2444 22.0898 18.4579 22.0898 18.6807C22.0898 18.9034 22.0012 19.1169 21.8438 19.2744C21.6862 19.4319 21.4727 19.5205 21.25 19.5205H14.5352C14.4249 19.5205 14.3157 19.4992 14.2139 19.457C14.112 19.4148 14.0194 19.3524 13.9414 19.2744C13.8635 19.1964 13.801 19.1038 13.7588 19.002C13.7167 18.9002 13.6953 18.7908 13.6953 18.6807C13.6953 18.5705 13.7166 18.4612 13.7588 18.3594C13.801 18.2575 13.8634 18.1649 13.9414 18.0869C14.0194 18.0089 14.112 17.9465 14.2139 17.9043C14.3157 17.8622 14.425 17.8408 14.5352 17.8408H21.25ZM12.1924 3.20703C9.9473 3.20703 8.12012 5.03422 8.12012 7.2793C8.12024 9.52427 9.94738 11.3506 12.1924 11.3506C14.4373 11.3505 16.2635 9.52434 16.2637 7.2793C16.2637 5.03415 14.4374 3.20711 12.1924 3.20703Z" fill="#0A1532"/>
<path d="M12.1924 1.52734L12.1924 1.42734H12.1924V1.52734ZM17.9434 7.2793L18.0434 7.2793V7.2793H17.9434ZM15.5771 11.9248L15.5182 11.8441L15.3643 11.9565L15.5442 12.0192L15.5771 11.9248ZM19.9033 14.8311L19.9783 14.7649L19.9783 14.7649L19.9033 14.8311ZM20.0674 15.1143L20.162 15.0818L20.162 15.0818L20.0674 15.1143ZM20.1113 15.4395L20.2111 15.4457L20.2111 15.4457L20.1113 15.4395ZM20.0283 15.7559L20.1181 15.7998L20.1182 15.7998L20.0283 15.7559ZM19.8291 16.0166L19.7629 15.9416L19.7629 15.9416L19.8291 16.0166ZM19.5459 16.1816L19.5784 16.2762L19.5784 16.2762L19.5459 16.1816ZM19.2207 16.2256L19.2144 16.3254L19.2145 16.3254L19.2207 16.2256ZM18.9043 16.1416L18.8604 16.2314L18.8604 16.2314L18.9043 16.1416ZM18.6436 15.9424L18.7185 15.8762L18.7185 15.8762L18.6436 15.9424ZM15.7305 13.793L15.7716 13.7018L15.7716 13.7018L15.7305 13.793ZM12.1924 13.0303L12.1924 12.9303H12.1924V13.0303ZM3.58984 21.6328L3.68984 21.6328V21.6328H3.58984ZM2.75 22.4727L2.74998 22.5727H2.75V22.4727ZM1.91016 21.6328H1.81016L1.81016 21.6328L1.91016 21.6328ZM8.80762 11.9258L8.84063 12.0202L9.02036 11.9573L8.8666 11.845L8.80762 11.9258ZM6.44043 7.2793H6.34043V7.2793L6.44043 7.2793ZM21.25 20.791L21.25 20.691H21.25V20.791ZM21.8438 21.0371L21.9145 20.9664L21.9145 20.9664L21.8438 21.0371ZM22.0898 21.6309L22.1898 21.6309V21.6309H22.0898ZM21.8438 22.2246L21.9145 22.2953L21.8438 22.2246ZM21.25 22.4707V22.5707H21.25L21.25 22.4707ZM14.5352 22.4707L14.5351 22.5707H14.5352V22.4707ZM13.9414 22.2246L13.8707 22.2953L13.8707 22.2953L13.9414 22.2246ZM13.6953 21.6309H13.5953V21.6309L13.6953 21.6309ZM13.9414 21.0371L13.8707 20.9664L13.8707 20.9664L13.9414 21.0371ZM14.5352 20.791V20.691H14.5351L14.5352 20.791ZM21.25 17.8408L21.25 17.7408H21.25V17.8408ZM21.8438 18.0869L21.9145 18.0162L21.9145 18.0162L21.8438 18.0869ZM22.0898 18.6807H22.1898V18.6806L22.0898 18.6807ZM21.8438 19.2744L21.9145 19.3451L21.9145 19.3451L21.8438 19.2744ZM21.25 19.5205V19.6205H21.25L21.25 19.5205ZM14.5352 19.5205L14.5351 19.6205H14.5352V19.5205ZM14.2139 19.457L14.1756 19.5494L14.1756 19.5494L14.2139 19.457ZM13.9414 19.2744L13.8707 19.3451L13.8707 19.3451L13.9414 19.2744ZM13.7588 19.002L13.6664 19.0402L13.6664 19.0402L13.7588 19.002ZM13.6953 18.6807L13.5953 18.6806V18.6807H13.6953ZM13.7588 18.3594L13.6664 18.3211L13.6664 18.3211L13.7588 18.3594ZM13.9414 18.0869L13.8707 18.0162H13.8707L13.9414 18.0869ZM14.2139 17.9043L14.1756 17.8119L14.1756 17.8119L14.2139 17.9043ZM14.5352 17.8408V17.7408H14.5351L14.5352 17.8408ZM12.1924 3.20703L12.1924 3.10703H12.1924V3.20703ZM8.12012 7.2793H8.02012V7.2793L8.12012 7.2793ZM12.1924 11.3506V11.4506H12.1924L12.1924 11.3506ZM16.2637 7.2793L16.3637 7.2793V7.2793H16.2637ZM12.1924 1.52734L12.1924 1.62734C15.3085 1.62749 17.8434 4.16312 17.8434 7.2793H17.9434H18.0434C18.0434 4.05269 15.419 1.42749 12.1924 1.42734L12.1924 1.52734ZM17.9434 7.2793L17.8434 7.27929C17.8432 9.1526 16.9266 10.815 15.5182 11.8441L15.5771 11.9248L15.6361 12.0055C17.0936 10.9407 18.0432 9.21943 18.0434 7.2793L17.9434 7.2793ZM15.5771 11.9248L15.5442 12.0192C17.1955 12.5949 18.6709 13.5863 19.8284 14.8972L19.9033 14.8311L19.9783 14.7649C18.7982 13.4282 17.2938 12.4174 15.6101 11.8304L15.5771 11.9248ZM19.9033 14.8311L19.8283 14.8972C19.8923 14.9697 19.9412 15.0546 19.9728 15.1467L20.0674 15.1143L20.162 15.0818C20.122 14.9656 20.0601 14.8576 19.9783 14.7649L19.9033 14.8311ZM20.0674 15.1143L19.9728 15.1467C20.0043 15.2387 20.0176 15.3363 20.0115 15.4332L20.1113 15.4395L20.2111 15.4457C20.2188 15.3224 20.202 15.1985 20.162 15.0818L20.0674 15.1143ZM20.1113 15.4395L20.0115 15.4332C20.0054 15.5304 19.9809 15.6252 19.9385 15.7119L20.0283 15.7559L20.1182 15.7998C20.1724 15.6887 20.2034 15.5682 20.2111 15.4457L20.1113 15.4395ZM20.0283 15.7559L19.9385 15.7119C19.8959 15.799 19.836 15.8772 19.7629 15.9416L19.8291 16.0166L19.8953 16.0916C19.9877 16.0101 20.0638 15.9109 20.1181 15.7998L20.0283 15.7559ZM19.8291 16.0166L19.7629 15.9416C19.69 16.0061 19.6052 16.0555 19.5134 16.0871L19.5459 16.1816L19.5784 16.2762C19.6952 16.2361 19.8029 16.1732 19.8953 16.0916L19.8291 16.0166ZM19.5459 16.1816L19.5134 16.0871C19.4215 16.1186 19.3239 16.1318 19.2269 16.1258L19.2207 16.2256L19.2145 16.3254C19.3377 16.3331 19.4616 16.3163 19.5784 16.2762L19.5459 16.1816ZM19.2207 16.2256L19.227 16.1258C19.1303 16.1197 19.0355 16.0945 18.9482 16.0518L18.9043 16.1416L18.8604 16.2314C18.971 16.2855 19.0913 16.3177 19.2144 16.3254L19.2207 16.2256ZM18.9043 16.1416L18.9482 16.0518C18.8611 16.0092 18.783 15.9492 18.7185 15.8762L18.6436 15.9424L18.5686 16.0085C18.6501 16.101 18.7493 16.1771 18.8604 16.2314L18.9043 16.1416ZM18.6436 15.9424L18.7185 15.8762C17.9016 14.9508 16.8966 14.2097 15.7716 13.7018L15.7305 13.793L15.6893 13.8841C16.7886 14.3803 17.7704 15.1045 18.5686 16.0086L18.6436 15.9424ZM15.7305 13.793L15.7716 13.7018C14.6467 13.1941 13.4267 12.9308 12.1924 12.9303L12.1924 13.0303L12.1923 13.1303C13.3982 13.1308 14.5902 13.388 15.6893 13.8841L15.7305 13.793ZM12.1924 13.0303V12.9303C7.39403 12.9303 3.48984 16.8346 3.48984 21.6328H3.58984H3.68984C3.68984 16.945 7.50449 13.1303 12.1924 13.1303V13.0303ZM3.58984 21.6328L3.48984 21.6328C3.4897 22.0415 3.15856 22.3727 2.75 22.3727V22.4727V22.5727C3.26907 22.5727 3.68966 22.1519 3.68984 21.6328L3.58984 21.6328ZM2.75 22.4727L2.75002 22.3727C2.3415 22.3726 2.0103 22.0414 2.01016 21.6328L1.91016 21.6328L1.81016 21.6328C1.81034 22.1519 2.23101 22.5726 2.74998 22.5727L2.75 22.4727ZM1.91016 21.6328H2.01016C2.01016 17.1931 4.86791 13.4095 8.84063 12.0202L8.80762 11.9258L8.77461 11.8314C4.72443 13.2478 1.81016 17.1052 1.81016 21.6328H1.91016ZM8.80762 11.9258L8.8666 11.845C7.45764 10.816 6.54054 9.15298 6.54043 7.27929L6.44043 7.2793L6.34043 7.2793C6.34055 9.21981 7.29058 10.9417 8.74864 12.0065L8.80762 11.9258ZM6.44043 7.2793H6.54043C6.54043 4.16293 9.07601 1.62734 12.1924 1.62734V1.52734V1.42734C8.96555 1.42734 6.34043 4.05247 6.34043 7.2793H6.44043ZM21.25 20.791L21.25 20.891C21.4462 20.891 21.6343 20.969 21.773 21.1078L21.8438 21.0371L21.9145 20.9664C21.7382 20.7902 21.4993 20.691 21.25 20.691L21.25 20.791ZM21.8438 21.0371L21.773 21.1078C21.9118 21.2466 21.9898 21.4347 21.9898 21.6309H22.0898H22.1898C22.1898 21.3815 22.0906 21.1426 21.9145 20.9664L21.8438 21.0371ZM22.0898 21.6309L21.9898 21.6308C21.9898 21.827 21.9118 22.0151 21.773 22.1539L21.8438 22.2246L21.9145 22.2953C22.0907 22.1191 22.1898 21.8802 22.1898 21.6309L22.0898 21.6309ZM21.8438 22.2246L21.773 22.1539C21.6343 22.2927 21.4462 22.3707 21.25 22.3707L21.25 22.4707L21.25 22.5707C21.4993 22.5707 21.7382 22.4716 21.9145 22.2953L21.8438 22.2246ZM21.25 22.4707V22.3707H14.5352V22.4707V22.5707H21.25V22.4707ZM14.5352 22.4707L14.5352 22.3707C14.339 22.3707 14.1509 22.2927 14.0121 22.1539L13.9414 22.2246L13.8707 22.2953C14.0469 22.4715 14.2859 22.5707 14.5351 22.5707L14.5352 22.4707ZM13.9414 22.2246L14.0121 22.1539C13.8734 22.0151 13.7953 21.827 13.7953 21.6308L13.6953 21.6309L13.5953 21.6309C13.5953 21.8802 13.6945 22.1191 13.8707 22.2953L13.9414 22.2246ZM13.6953 21.6309H13.7953C13.7953 21.4347 13.8734 21.2466 14.0121 21.1078L13.9414 21.0371L13.8707 20.9664C13.6945 21.1426 13.5953 21.3816 13.5953 21.6309H13.6953ZM13.9414 21.0371L14.0121 21.1078C14.1509 20.9691 14.339 20.8911 14.5352 20.891L14.5352 20.791L14.5351 20.691C14.2859 20.6911 14.0469 20.7902 13.8707 20.9664L13.9414 21.0371ZM14.5352 20.791V20.891H21.25V20.791V20.691H14.5352V20.791ZM21.25 17.8408L21.25 17.9408C21.4462 17.9408 21.6343 18.0189 21.773 18.1576L21.8438 18.0869L21.9145 18.0162C21.7382 17.84 21.4993 17.7408 21.25 17.7408L21.25 17.8408ZM21.8438 18.0869L21.773 18.1576C21.9118 18.2964 21.9898 18.4845 21.9898 18.6807L22.0898 18.6807L22.1898 18.6806C22.1898 18.4314 22.0907 18.1924 21.9145 18.0162L21.8438 18.0869ZM22.0898 18.6807H21.9898C21.9898 18.8768 21.9118 19.0649 21.773 19.2037L21.8438 19.2744L21.9145 19.3451C22.0906 19.1689 22.1898 18.93 22.1898 18.6807H22.0898ZM21.8438 19.2744L21.773 19.2037C21.6343 19.3425 21.4462 19.4205 21.25 19.4205L21.25 19.5205L21.25 19.6205C21.4993 19.6205 21.7382 19.5214 21.9145 19.3451L21.8438 19.2744ZM21.25 19.5205V19.4205H14.5352V19.5205V19.6205H21.25V19.5205ZM14.5352 19.5205L14.5352 19.4205C14.4378 19.4205 14.3416 19.4017 14.2521 19.3646L14.2139 19.457L14.1756 19.5494C14.2898 19.5967 14.4121 19.6205 14.5351 19.6205L14.5352 19.5205ZM14.2139 19.457L14.2521 19.3646C14.1626 19.3276 14.081 19.2726 14.0121 19.2037L13.9414 19.2744L13.8707 19.3451C13.9578 19.4322 14.0613 19.5021 14.1756 19.5494L14.2139 19.457ZM13.9414 19.2744L14.0121 19.2037C13.9433 19.1348 13.8882 19.0531 13.8512 18.9637L13.7588 19.002L13.6664 19.0402C13.7137 19.1545 13.7837 19.2581 13.8707 19.3451L13.9414 19.2744ZM13.7588 19.002L13.8512 18.9637C13.8142 18.8743 13.7953 18.7779 13.7953 18.6807H13.6953H13.5953C13.5953 18.8037 13.6192 18.9261 13.6664 19.0402L13.7588 19.002ZM13.6953 18.6807L13.7953 18.6807C13.7953 18.5833 13.8142 18.4871 13.8512 18.3976L13.7588 18.3594L13.6664 18.3211C13.6191 18.4353 13.5953 18.5576 13.5953 18.6806L13.6953 18.6807ZM13.7588 18.3594L13.8512 18.3976C13.8883 18.3081 13.9432 18.2265 14.0121 18.1576L13.9414 18.0869L13.8707 18.0162C13.7836 18.1033 13.7138 18.2068 13.6664 18.3211L13.7588 18.3594ZM13.9414 18.0869L14.0121 18.1576C14.081 18.0887 14.1626 18.0338 14.2521 17.9967L14.2139 17.9043L14.1756 17.8119C14.0613 17.8593 13.9578 17.9291 13.8707 18.0162L13.9414 18.0869ZM14.2139 17.9043L14.2521 17.9967C14.3416 17.9597 14.4378 17.9408 14.5352 17.9408L14.5352 17.8408L14.5351 17.7408C14.4121 17.7408 14.2898 17.7646 14.1756 17.8119L14.2139 17.9043ZM14.5352 17.8408V17.9408H21.25V17.8408V17.7408H14.5352V17.8408ZM12.1924 3.20703V3.10703C9.89207 3.10703 8.02012 4.97899 8.02012 7.2793H8.12012H8.22012C8.22012 5.08945 10.0025 3.30703 12.1924 3.30703V3.20703ZM8.12012 7.2793L8.02012 7.2793C8.02025 9.57952 9.89218 11.4506 12.1924 11.4506V11.3506V11.2506C10.0026 11.2506 8.22024 9.46901 8.22012 7.27929L8.12012 7.2793ZM12.1924 11.3506L12.1924 11.4506C14.4925 11.4505 16.3635 9.57957 16.3637 7.2793L16.2637 7.2793L16.1637 7.27929C16.1635 9.46911 14.3821 11.2505 12.1924 11.2506L12.1924 11.3506ZM16.2637 7.2793H16.3637C16.3637 4.97894 14.4927 3.10711 12.1924 3.10703L12.1924 3.20703L12.1924 3.30703C14.3821 3.30711 16.1637 5.08935 16.1637 7.2793H16.2637Z" fill="#0A1532"/>
</svg>
