<svg width="16" height="16" viewBox="0 0 16 16" fill="none" xmlns="http://www.w3.org/2000/svg">
<g id="li:wand">
<path id="Vector" fill-rule="evenodd" clip-rule="evenodd" d="M9.99998 0.666626C10.3682 0.666626 10.6666 0.965103 10.6666 1.33329V2.66663C10.6666 3.03482 10.3682 3.33329 9.99998 3.33329C9.63179 3.33329 9.33331 3.03482 9.33331 2.66663V1.33329C9.33331 0.965103 9.63179 0.666626 9.99998 0.666626Z" fill="#999999"/>
<path id="Vector_2" fill-rule="evenodd" clip-rule="evenodd" d="M9.99998 8.66663C10.3682 8.66663 10.6666 8.9651 10.6666 9.33329V10.6666C10.6666 11.0348 10.3682 11.3333 9.99998 11.3333C9.63179 11.3333 9.33331 11.0348 9.33331 10.6666V9.33329C9.33331 8.9651 9.63179 8.66663 9.99998 8.66663Z" fill="#999999"/>
<path id="Vector_3" fill-rule="evenodd" clip-rule="evenodd" d="M4.66669 6.00004C4.66669 5.63185 4.96516 5.33337 5.33335 5.33337H6.66669C7.03488 5.33337 7.33335 5.63185 7.33335 6.00004C7.33335 6.36823 7.03488 6.66671 6.66669 6.66671H5.33335C4.96516 6.66671 4.66669 6.36823 4.66669 6.00004Z" fill="#999999"/>
<path id="Vector_4" fill-rule="evenodd" clip-rule="evenodd" d="M12.6667 6.00004C12.6667 5.63185 12.9652 5.33337 13.3334 5.33337H14.6667C15.0349 5.33337 15.3334 5.63185 15.3334 6.00004C15.3334 6.36823 15.0349 6.66671 14.6667 6.66671H13.3334C12.9652 6.66671 12.6667 6.36823 12.6667 6.00004Z" fill="#999999"/>
<path id="Vector_5" fill-rule="evenodd" clip-rule="evenodd" d="M11.3953 7.39521C11.6556 7.13486 12.0777 7.13486 12.3381 7.39521L13.1381 8.19521C13.3984 8.45556 13.3984 8.87767 13.1381 9.13802C12.8777 9.39837 12.4556 9.39837 12.1953 9.13802L11.3953 8.33802C11.1349 8.07767 11.1349 7.65556 11.3953 7.39521Z" fill="#999999"/>
<path id="Vector_6" fill-rule="evenodd" clip-rule="evenodd" d="M13.1381 2.86189C13.3984 3.12224 13.3984 3.54435 13.1381 3.8047L12.3381 4.6047C12.0777 4.86505 11.6556 4.86505 11.3953 4.6047C11.1349 4.34435 11.1349 3.92224 11.3953 3.66189L12.1953 2.86189C12.4556 2.60154 12.8777 2.60154 13.1381 2.86189Z" fill="#999999"/>
<path id="Vector_7" fill-rule="evenodd" clip-rule="evenodd" d="M8.47145 7.52864C8.7318 7.78899 8.7318 8.2111 8.47145 8.47145L2.47145 14.4714C2.2111 14.7318 1.78899 14.7318 1.52864 14.4714C1.26829 14.2111 1.26829 13.789 1.52864 13.5286L7.52864 7.52864C7.78899 7.26829 8.2111 7.26829 8.47145 7.52864Z" fill="#999999"/>
<path id="Vector_8" fill-rule="evenodd" clip-rule="evenodd" d="M6.86195 2.86189C7.1223 2.60154 7.54441 2.60154 7.80476 2.86189L8.60476 3.66189C8.86511 3.92224 8.86511 4.34435 8.60476 4.6047C8.34441 4.86505 7.9223 4.86505 7.66195 4.6047L6.86195 3.8047C6.6016 3.54435 6.6016 3.12224 6.86195 2.86189Z" fill="#999999"/>
</g>
</svg>
