<svg width="12" height="12" viewBox="0 0 12 12" fill="none" xmlns="http://www.w3.org/2000/svg">
<path d="M6 0C9.31371 0 12 2.68629 12 6C12 9.31371 9.31371 12 6 12C2.68629 12 0 9.31371 0 6C0 2.68629 2.68629 0 6 0ZM9.10352 3.64648C8.90826 3.45123 8.59175 3.45125 8.39648 3.64648L4.98633 7.05469L3.60352 5.67285L3.52539 5.6084C3.33132 5.48022 3.06736 5.50201 2.89648 5.67285C2.72563 5.84373 2.70385 6.10769 2.83203 6.30176L2.89648 6.37988L4.63281 8.11719C4.72658 8.21095 4.8547 8.2627 4.9873 8.2627C5.11972 8.26256 5.24717 8.21082 5.34082 8.11719L9.10352 4.35352C9.29875 4.15825 9.29876 3.84174 9.10352 3.64648Z" fill="#04AE54"/>
</svg>
