<svg width="12" height="12" viewBox="0 0 12 12" fill="none" xmlns="http://www.w3.org/2000/svg">
<path d="M0 6C0 5.45 0.0708333 4.92083 0.2125 4.4125C0.358333 3.9 0.560417 3.42083 0.81875 2.975C1.08125 2.52917 1.39375 2.125 1.75625 1.7625C2.12292 1.39583 2.52917 1.08333 2.975 0.825C3.42083 0.5625 3.89792 0.360417 4.40625 0.21875C4.91875 0.0729166 5.45 0 6 0C6.55 0 7.07917 0.0729166 7.5875 0.21875C8.1 0.360417 8.57708 0.5625 9.01875 0.825C9.46458 1.08333 9.87083 1.39583 10.2375 1.7625C10.6042 2.12917 10.9167 2.53542 11.175 2.98125C11.4375 3.42292 11.6396 3.9 11.7812 4.4125C11.9271 4.92083 12 5.45 12 6C12 6.55 11.9271 7.08125 11.7812 7.59375C11.6396 8.10208 11.4375 8.57917 11.175 9.025C10.9167 9.47083 10.6042 9.87708 10.2375 10.2437C9.875 10.6062 9.47083 10.9187 9.025 11.1812C8.57917 11.4396 8.1 11.6417 7.5875 11.7875C7.07917 11.9292 6.55 12 6 12C5.44583 12 4.9125 11.9292 4.4 11.7875C3.89167 11.6417 3.41458 11.4396 2.96875 11.1812C2.52708 10.9187 2.12292 10.6062 1.75625 10.2437C1.39375 9.87708 1.08125 9.47292 0.81875 9.03125C0.560417 8.58542 0.358333 8.10625 0.2125 7.59375C0.0708333 7.08125 0 6.55 0 6ZM3.8 8.7C3.8625 8.7 3.925 8.6875 3.9875 8.6625C4.05417 8.6375 4.11042 8.60208 4.15625 8.55625L6 6.70625L7.84375 8.55625C7.88958 8.60208 7.94375 8.6375 8.00625 8.6625C8.07292 8.6875 8.1375 8.7 8.2 8.7C8.34167 8.7 8.46042 8.65208 8.55625 8.55625C8.65208 8.46042 8.7 8.34167 8.7 8.2C8.7 8.05833 8.65208 7.93958 8.55625 7.84375L6.70625 6L8.55625 4.15625C8.65208 4.06042 8.7 3.94167 8.7 3.8C8.7 3.65833 8.65208 3.53958 8.55625 3.44375C8.46042 3.34792 8.34167 3.3 8.2 3.3C8.05833 3.3 7.93958 3.34792 7.84375 3.44375L6 5.29375L4.15625 3.44375C4.06042 3.34792 3.94167 3.3 3.8 3.3C3.65833 3.3 3.53958 3.34792 3.44375 3.44375C3.34792 3.53958 3.3 3.65833 3.3 3.8C3.3 3.8625 3.3125 3.92708 3.3375 3.99375C3.3625 4.05625 3.39792 4.11042 3.44375 4.15625L5.29375 6L3.44375 7.84375C3.39792 7.88958 3.3625 7.94583 3.3375 8.0125C3.3125 8.075 3.3 8.1375 3.3 8.2C3.3 8.3375 3.34792 8.45625 3.44375 8.55625C3.54375 8.65208 3.6625 8.7 3.8 8.7Z" fill="#FF3D30"/>
</svg>
