<svg width="24" height="24" viewBox="0 0 24 24" fill="none" xmlns="http://www.w3.org/2000/svg">
<g id="li:x">
<path id="Vector" fill-rule="evenodd" clip-rule="evenodd" d="M18.707 5.29289C19.0975 5.68342 19.0975 6.31658 18.707 6.70711L6.70698 18.7071C6.31646 19.0976 5.6833 19.0976 5.29277 18.7071C4.90225 18.3166 4.90225 17.6834 5.29277 17.2929L17.2928 5.29289C17.6833 4.90237 18.3165 4.90237 18.707 5.29289Z" fill="#D4D4D4"/>
<path id="Vector_2" fill-rule="evenodd" clip-rule="evenodd" d="M5.29277 5.29289C5.6833 4.90237 6.31646 4.90237 6.70698 5.29289L18.707 17.2929C19.0975 17.6834 19.0975 18.3166 18.707 18.7071C18.3165 19.0976 17.6833 19.0976 17.2928 18.7071L5.29277 6.70711C4.90225 6.31658 4.90225 5.68342 5.29277 5.29289Z" fill="#D4D4D4"/>
</g>
</svg>
