<svg width="24" height="24" viewBox="0 0 24 24" fill="none" xmlns="http://www.w3.org/2000/svg">
<path d="M12.0049 3.7998C12.3635 3.7998 12.6922 4.02113 12.8223 4.32031L12.8369 4.35156L14.6855 8.14746C14.7837 8.3489 14.9611 8.49838 15.1729 8.5625L15.2656 8.58496L19.3975 9.31543C19.4044 9.31666 19.412 9.31732 19.4189 9.31836C19.5886 9.34376 19.7474 9.41773 19.876 9.53125C20.0046 9.64486 20.0974 9.79369 20.1436 9.95898L20.1533 9.98926C20.1946 10.1171 20.2084 10.252 20.1953 10.3848L20.1729 10.5166C20.1415 10.6468 20.0839 10.7688 20.0039 10.875L19.916 10.9766C19.9141 10.9785 19.9121 10.9804 19.9102 10.9824L16.9561 13.7949C16.7607 13.981 16.672 14.2532 16.7207 14.5186L17.4707 18.5957V18.5967C17.5355 18.9466 17.4001 19.3062 17.0996 19.5371L17.082 19.5518C16.9414 19.6661 16.7652 19.7279 16.584 19.7266H16.5781L16.4883 19.7197C16.4219 19.7106 16.3448 19.692 16.2627 19.6611L16.1367 19.6055L12.3662 17.6992C12.1683 17.5992 11.9393 17.5857 11.7334 17.6602L11.6465 17.6982L7.85352 19.6016L7.83594 19.6104C7.73947 19.6617 7.63427 19.694 7.52637 19.707L7.41797 19.7139H7.41309C7.26998 19.7142 7.12956 19.6798 7.00391 19.6143L6.88379 19.5381C6.62715 19.3416 6.48585 19.0176 6.49707 18.7227L6.51074 18.5977L6.51172 18.5928L7.28809 14.5234C7.33283 14.2886 7.26968 14.0483 7.12012 13.8662L7.05078 13.791L4.09863 11.0107C4.00317 10.9118 3.92798 10.7957 3.87695 10.6689L3.83398 10.5371C3.7886 10.3611 3.78887 10.1766 3.83496 10.001C3.96284 9.62413 4.25613 9.39474 4.58203 9.35059L4.61914 9.34473L8.75098 8.58496C9.00096 8.53899 9.2139 8.37695 9.3252 8.14844L11.1787 4.34473C11.3492 3.99968 11.6868 3.79988 12.0049 3.7998Z" stroke="white" stroke-width="1.6" stroke-linejoin="round"/>
<path d="M13.0488 9.75C13.2534 9.75003 13.45 9.83193 13.5947 9.97656C13.7392 10.1213 13.8203 10.3179 13.8203 10.5225L13.8174 10.5986C13.7998 10.7751 13.7211 10.9408 13.5947 11.0674C13.4681 11.194 13.3017 11.2725 13.125 11.29L13.0488 11.2939C12.5518 11.2939 12.1769 11.4142 11.9082 11.6299L11.7998 11.7285C11.5569 11.9751 11.4266 12.3019 11.3594 12.5869C11.3262 12.7274 11.3102 12.8533 11.3018 12.9453C11.2976 12.9911 11.295 13.0285 11.2939 13.0547C11.2934 13.0676 11.2931 13.0778 11.293 13.085V13.0947L11.29 13.1709C11.2753 13.3477 11.2005 13.5158 11.0762 13.6445C10.934 13.7915 10.7387 13.8761 10.5342 13.8799H10.5176C10.3171 13.8778 10.1254 13.7977 9.98242 13.6572C9.85728 13.5342 9.77736 13.3729 9.75586 13.2002L9.75098 13.126L9.75 13.1182V13.0928C9.75006 13.0782 9.75037 13.0587 9.75098 13.0352C9.7522 12.9879 9.75542 12.9235 9.76172 12.8457C9.77434 12.69 9.80106 12.4783 9.85742 12.2383C9.9698 11.7602 10.2034 11.1534 10.6934 10.6523L10.8066 10.542C11.3862 10.0105 12.1475 9.75 13.0488 9.75Z" fill="white"/>
</svg>
