<svg width="25" height="24" viewBox="0 0 25 24" fill="none" xmlns="http://www.w3.org/2000/svg">
<path d="M12.5049 3.7998C12.8635 3.7998 13.1922 4.02113 13.3223 4.32031L13.3369 4.35156L15.1855 8.14746C15.2837 8.3489 15.4611 8.49838 15.6729 8.5625L15.7656 8.58496L19.8975 9.31543C19.9044 9.31666 19.912 9.31732 19.9189 9.31836C20.0886 9.34376 20.2474 9.41773 20.376 9.53125C20.5046 9.64486 20.5974 9.79369 20.6436 9.95898L20.6533 9.98926C20.6946 10.1171 20.7084 10.252 20.6953 10.3848L20.6729 10.5166C20.6415 10.6468 20.5839 10.7688 20.5039 10.875L20.416 10.9766C20.4141 10.9785 20.4121 10.9804 20.4102 10.9824L17.4561 13.7949C17.2607 13.981 17.172 14.2532 17.2207 14.5186L17.9707 18.5957V18.5967C18.0355 18.9466 17.9001 19.3062 17.5996 19.5371L17.582 19.5518C17.4414 19.6661 17.2652 19.7279 17.084 19.7266H17.0781L16.9883 19.7197C16.9219 19.7106 16.8448 19.692 16.7627 19.6611L16.6367 19.6055L12.8662 17.6992C12.6683 17.5992 12.4393 17.5857 12.2334 17.6602L12.1465 17.6982L8.35352 19.6016L8.33594 19.6104C8.23947 19.6617 8.13427 19.694 8.02637 19.707L7.91797 19.7139H7.91309C7.76998 19.7142 7.62956 19.6798 7.50391 19.6143L7.38379 19.5381C7.12715 19.3416 6.98585 19.0176 6.99707 18.7227L7.01074 18.5977L7.01172 18.5928L7.78809 14.5234C7.83283 14.2886 7.76968 14.0483 7.62012 13.8662L7.55078 13.791L4.59863 11.0107C4.50317 10.9118 4.42798 10.7957 4.37695 10.6689L4.33398 10.5371C4.2886 10.3611 4.28887 10.1766 4.33496 10.001C4.46284 9.62413 4.75613 9.39474 5.08203 9.35059L5.11914 9.34473L9.25098 8.58496C9.50096 8.53899 9.7139 8.37695 9.8252 8.14844L11.6787 4.34473C11.8492 3.99968 12.1868 3.79988 12.5049 3.7998Z" stroke="#0A1532" stroke-opacity="0.6" stroke-width="1.6" stroke-linejoin="round"/>
<path d="M13.5488 9.75C13.7534 9.75003 13.95 9.83193 14.0947 9.97656C14.2392 10.1213 14.3203 10.3179 14.3203 10.5225L14.3174 10.5986C14.2998 10.7751 14.2211 10.9408 14.0947 11.0674C13.9681 11.194 13.8017 11.2725 13.625 11.29L13.5488 11.2939C13.0518 11.2939 12.6769 11.4142 12.4082 11.6299L12.2998 11.7285C12.0569 11.9751 11.9266 12.3019 11.8594 12.5869C11.8262 12.7274 11.8102 12.8533 11.8018 12.9453C11.7976 12.9911 11.795 13.0285 11.7939 13.0547C11.7934 13.0676 11.7931 13.0778 11.793 13.085V13.0947L11.79 13.1709C11.7753 13.3477 11.7005 13.5158 11.5762 13.6445C11.434 13.7915 11.2387 13.8761 11.0342 13.8799H11.0176C10.8171 13.8778 10.6254 13.7977 10.4824 13.6572C10.3573 13.5342 10.2774 13.3729 10.2559 13.2002L10.251 13.126L10.25 13.1182V13.0928C10.2501 13.0782 10.2504 13.0587 10.251 13.0352C10.2522 12.9879 10.2554 12.9235 10.2617 12.8457C10.2743 12.69 10.3011 12.4783 10.3574 12.2383C10.4698 11.7602 10.7034 11.1534 11.1934 10.6523L11.3066 10.542C11.8862 10.0105 12.6475 9.75 13.5488 9.75Z" fill="#0A1532" fill-opacity="0.6"/>
</svg>
