<svg width="24" height="24" viewBox="0 0 24 24" fill="none" xmlns="http://www.w3.org/2000/svg">
<path d="M12.0049 3C12.6731 3 13.295 3.402 13.5557 4.00098L15.4043 7.79688L19.5371 8.52734C19.8594 8.57556 20.161 8.71598 20.4053 8.93164C20.6496 9.14749 20.8264 9.43012 20.9141 9.74414C21.0142 10.0543 21.0272 10.3862 20.9512 10.7031C20.8751 11.02 20.7133 11.3101 20.4834 11.541L20.4736 11.5508L17.5078 14.374L18.2568 18.4512C18.3775 19.1028 18.1215 19.7617 17.5879 20.1719C17.3029 20.4039 16.9456 20.5291 16.5781 20.5264L16.3838 20.5127C16.1844 20.4858 15.9747 20.4195 15.7764 20.3193L12.0059 18.4131L8.21191 20.3164C7.96701 20.4469 7.6935 20.5145 7.41602 20.5137C7.05112 20.5148 6.69536 20.3975 6.40332 20.1787C5.87235 19.7761 5.60104 19.0781 5.72656 18.4424L6.50195 14.374L3.52832 11.5713C3.30223 11.3388 3.14065 11.0513 3.05957 10.7373C2.97855 10.4235 2.98027 10.094 3.06543 9.78125L3.07227 9.75977C3.28834 9.10484 3.82435 8.64571 4.47461 8.55762L8.60645 7.79883L10.4609 3.99023C10.7584 3.38823 11.365 3.00007 12.0049 3ZM13.0488 9.75C12.1475 9.75 11.3862 10.0105 10.8066 10.542L10.6934 10.6523C10.2034 11.1534 9.9698 11.7602 9.85742 12.2383C9.80106 12.4783 9.77434 12.69 9.76172 12.8457C9.75542 12.9235 9.7522 12.9879 9.75098 13.0352C9.75037 13.0587 9.75006 13.0782 9.75 13.0928V13.1182L9.75098 13.126L9.75586 13.2002C9.77736 13.3729 9.85728 13.5342 9.98242 13.6572C10.1254 13.7977 10.3171 13.8778 10.5176 13.8799H10.5342C10.7387 13.8761 10.934 13.7915 11.0762 13.6445C11.2005 13.5158 11.2753 13.3477 11.29 13.1709L11.293 13.0947V13.085C11.2931 13.0778 11.2934 13.0676 11.2939 13.0547C11.295 13.0285 11.2976 12.9911 11.3018 12.9453C11.3102 12.8533 11.3262 12.7274 11.3594 12.5869C11.4266 12.3019 11.5569 11.9751 11.7998 11.7285L11.9082 11.6299C12.1769 11.4142 12.5518 11.2939 13.0488 11.2939L13.125 11.29C13.3017 11.2725 13.4681 11.194 13.5947 11.0674C13.7211 10.9408 13.7998 10.7751 13.8174 10.5986L13.8203 10.5225C13.8203 10.3179 13.7392 10.1213 13.5947 9.97656C13.45 9.83193 13.2534 9.75003 13.0488 9.75Z" fill="#FD9E1A"/>
</svg>
