<svg width="24" height="24" viewBox="0 0 24 24" fill="none" xmlns="http://www.w3.org/2000/svg">
<path d="M3.00336 10.6941C2.99262 10.5703 3.00771 10.4457 3.04768 10.3282C3.08765 10.2106 3.15162 10.1026 3.23554 10.011C3.31946 9.91951 3.42149 9.84641 3.53516 9.79639C3.64883 9.74637 3.77165 9.72052 3.89584 9.72049H5.60688C5.84453 9.72049 6.07245 9.8149 6.24049 9.98294C6.40854 10.151 6.50294 10.3789 6.50294 10.6166V19.1292C6.50294 19.3668 6.40854 19.5948 6.24049 19.7628C6.07245 19.9308 5.84453 20.0252 5.60688 20.0252H4.63644C4.41217 20.0253 4.19603 19.9413 4.03071 19.7897C3.86539 19.6382 3.76291 19.4301 3.74351 19.2067L3.00336 10.6941ZM9.19114 10.3365C9.19114 9.96198 9.42412 9.62685 9.76238 9.46735C10.5012 9.11878 11.7597 8.41851 12.3274 7.47181C13.059 6.25137 13.197 4.0466 13.2194 3.54167C13.2225 3.47088 13.2207 3.40009 13.2302 3.3302C13.3516 2.45519 15.0402 3.47715 15.6876 4.55781C16.0393 5.14384 16.0841 5.914 16.0474 6.51571C16.0075 7.15909 15.8189 7.78051 15.6339 8.3979L15.2396 9.71377H20.1039C20.2423 9.71376 20.3789 9.74583 20.5029 9.80747C20.6268 9.8691 20.7348 9.95863 20.8184 10.069C20.9019 10.1794 20.9588 10.3076 20.9845 10.4437C21.0101 10.5797 21.0039 10.7199 20.9663 10.8531L18.5604 19.3729C18.5073 19.5608 18.3943 19.7262 18.2385 19.844C18.0827 19.9617 17.8928 20.0254 17.6975 20.0252H10.0872C9.84956 20.0252 9.62164 19.9308 9.45359 19.7628C9.28555 19.5948 9.19114 19.3668 9.19114 19.1292V10.3365Z" fill="#FF3D30" stroke="#FF3D30" stroke-linecap="round" stroke-linejoin="round"/>
<path d="M5.70312 10.6154C5.70303 10.5901 5.69268 10.566 5.6748 10.548C5.65679 10.53 5.63192 10.5197 5.60644 10.5197H3.89648L3.85742 10.5275C3.84523 10.5329 3.83419 10.5411 3.82519 10.551C3.81624 10.5607 3.80896 10.5726 3.80469 10.5851C3.8005 10.5976 3.79964 10.6111 3.80078 10.6242L4.54004 19.1369L4.5498 19.1711C4.55502 19.1816 4.56245 19.1913 4.57129 19.1994C4.589 19.2156 4.61272 19.2248 4.63672 19.2248H5.60644C5.63189 19.2248 5.6568 19.2144 5.6748 19.1965C5.69282 19.1784 5.70312 19.1536 5.70312 19.1281V10.6154ZM13.5293 2.20135C13.9396 2.17845 14.3439 2.34441 14.6436 2.50701C15.2736 2.84898 15.969 3.46974 16.374 4.14568L16.458 4.29705C16.857 5.06555 16.8826 5.95923 16.8457 6.56365V6.56463C16.8107 7.12829 16.6787 7.66939 16.5391 8.1574L16.4004 8.62713L16.3145 8.91326H20.1035L20.2998 8.924C20.4939 8.94657 20.6835 9.00258 20.8594 9.09002C21.0939 9.20663 21.298 9.37636 21.4561 9.58513C21.6141 9.79395 21.7219 10.0368 21.7705 10.2941C21.8069 10.4872 21.8093 10.6851 21.7783 10.8781L21.7363 11.0695L19.3301 19.589V19.59C19.2295 19.9455 19.0154 20.2588 18.7207 20.4816C18.4628 20.6765 18.1553 20.7926 17.835 20.8185L17.6973 20.8244H10.0869C9.6372 20.8243 9.2057 20.6453 8.88769 20.3273C8.5698 20.0093 8.3916 19.5778 8.3916 19.1281V10.3361C8.3916 9.6227 8.83029 9.022 9.4209 8.74334L9.69824 8.60662C9.99163 8.45643 10.328 8.26514 10.6484 8.03924C11.0843 7.7319 11.4396 7.39665 11.6416 7.05974L11.7441 6.86931C11.9753 6.39937 12.1407 5.7566 12.25 5.10564C12.3713 4.38302 12.4095 3.74021 12.4199 3.50506L12.4229 3.40935C12.4243 3.36436 12.4274 3.29773 12.4375 3.22283V3.2199L12.4775 3.03142C12.532 2.84213 12.6332 2.65111 12.8057 2.49431C13.034 2.28673 13.3043 2.21398 13.5293 2.20135ZM7.30273 19.1281C7.30273 19.5777 7.12446 20.0093 6.80664 20.3273C6.48856 20.6454 6.05627 20.8244 5.60644 20.8244H4.63672C4.21235 20.8245 3.80311 20.6658 3.49023 20.3791C3.21636 20.128 3.03373 19.7945 2.96777 19.4318L2.94629 19.2756L2.20605 10.7629C2.18572 10.5287 2.21438 10.2921 2.29004 10.0695C2.36565 9.84719 2.48686 9.64304 2.64551 9.4699C2.80431 9.29667 2.9978 9.15832 3.21289 9.06365C3.428 8.96899 3.66049 8.92017 3.89551 8.9201H5.60644C6.05627 8.9201 6.48857 9.09812 6.80664 9.41619C7.12457 9.73417 7.30264 10.1658 7.30273 10.6154V19.1281ZM9.99121 19.1281C9.99121 19.1536 10.0015 19.1784 10.0195 19.1965C10.0375 19.2143 10.0616 19.2247 10.0869 19.2248H17.6982L17.7285 19.2199C17.7383 19.2166 17.7475 19.2115 17.7559 19.2053C17.7725 19.1926 17.7843 19.1746 17.79 19.1545L20.1963 10.6349L20.1982 10.591C20.1955 10.5765 20.1896 10.5627 20.1807 10.551C20.1717 10.5391 20.1598 10.5292 20.1465 10.5226L20.1035 10.5129H15.2393C14.9865 10.5128 14.7486 10.3933 14.5977 10.1906C14.4468 9.98782 14.4011 9.72571 14.4736 9.48357L14.8672 8.16717L15.0029 7.70818C15.1292 7.26564 15.2242 6.86618 15.249 6.46502C15.283 5.90676 15.225 5.34084 15.002 4.96892L15.001 4.96795C14.7807 4.60047 14.37 4.21295 13.9922 3.97967C13.9661 4.33097 13.919 4.82894 13.8281 5.37029C13.7121 6.0611 13.5165 6.89675 13.1709 7.59295L13.0137 7.88201C12.6481 8.49166 12.0902 8.9803 11.5703 9.34685C11.0417 9.71953 10.4976 10.0037 10.1035 10.1896V10.1906C10.018 10.231 9.99121 10.3006 9.99121 10.3361V19.1281Z" fill="#FF3D30"/>
</svg>
