<svg width="25" height="24" viewBox="0 0 25 24" fill="none" xmlns="http://www.w3.org/2000/svg">
<path d="M12.6349 2.5C11.741 2.50041 10.8823 2.84341 10.2402 3.45652C9.59811 4.06962 9.22295 4.9048 9.194 5.78558H4.84709C4.61967 5.79365 4.40429 5.8884 4.24629 6.04987C4.08829 6.21134 4 6.42695 4 6.6513C4 6.87565 4.08829 7.09126 4.24629 7.25273C4.40429 7.4142 4.61967 7.50895 4.84709 7.51702H5.81573V17.1976C5.81573 19.0154 7.06551 20.5 8.61009 20.5H16.481C18.0233 20.5 19.2753 19.0233 19.2753 17.1976V7.52263H20.1529C20.3803 7.51456 20.5957 7.41981 20.7537 7.25834C20.9117 7.09687 21 6.88127 21 6.65691C21 6.43256 20.9117 6.21695 20.7537 6.05548C20.5957 5.89401 20.3803 5.79926 20.1529 5.79119H16.0701C16.0452 4.90956 15.6722 4.07231 15.0307 3.45763C14.3891 2.84295 13.5295 2.49937 12.6349 2.5ZM10.8376 5.78558C10.8658 5.33429 11.0678 4.91065 11.4023 4.60132C11.7368 4.29198 12.1785 4.12033 12.6372 4.12147C13.5978 4.12147 14.373 4.85085 14.4287 5.78558H10.8376ZM8.60895 18.883C8.06146 18.883 7.45934 18.1907 7.45934 17.1987V7.52263H17.6294V17.2066C17.6294 18.1952 17.0262 18.8898 16.4798 18.8898H8.60895V18.8819V18.883Z" fill="#0A1532" fill-opacity="0.6"/>
<path d="M12.6479 16.199C13.0722 16.199 13.423 15.853 13.423 15.4197V10.9783C13.423 10.545 13.0759 10.2 12.6479 10.2C12.2237 10.2 11.8729 10.545 11.8729 10.9783V15.4207C11.8729 15.852 12.2224 16.199 12.6479 16.199ZM15.5975 16.199C16.0218 16.199 16.3725 15.853 16.3725 15.4197V10.9783C16.3725 10.545 16.0254 10.2 15.5975 10.2C15.1732 10.2 14.8236 10.545 14.8236 10.9783V15.4207C14.8236 15.852 15.1611 16.199 15.5975 16.199Z" fill="#0A1532" fill-opacity="0.6"/>
<path d="M10.6182 15.4197C10.6182 15.853 10.2686 16.199 9.84315 16.199C9.41042 16.199 9.0693 15.852 9.0693 15.4207V10.9783C9.0693 10.545 9.41886 10.2 9.84315 10.2C10.2711 10.2 10.6182 10.545 10.6182 10.9783V15.4197Z" fill="#0A1532" fill-opacity="0.6"/>
</svg>
