<svg width="24" height="24" viewBox="0 0 24 24" fill="none" xmlns="http://www.w3.org/2000/svg">
<path d="M12.1349 2.5C11.241 2.50041 10.3823 2.84341 9.74019 3.45652C9.09811 4.06962 8.72295 4.9048 8.694 5.78558H4.34709C4.11967 5.79365 3.90429 5.8884 3.74629 6.04987C3.58829 6.21134 3.5 6.42695 3.5 6.6513C3.5 6.87565 3.58829 7.09126 3.74629 7.25273C3.90429 7.4142 4.11967 7.50895 4.34709 7.51702H5.31573V17.1976C5.31573 19.0154 6.56551 20.5 8.11009 20.5H15.981C17.5233 20.5 18.7753 19.0233 18.7753 17.1976V7.52263H19.6529C19.8803 7.51456 20.0957 7.41981 20.2537 7.25834C20.4117 7.09687 20.5 6.88127 20.5 6.65691C20.5 6.43256 20.4117 6.21695 20.2537 6.05548C20.0957 5.89401 19.8803 5.79926 19.6529 5.79119H15.5701C15.5452 4.90956 15.1722 4.07231 14.5307 3.45763C13.8891 2.84295 13.0295 2.49937 12.1349 2.5ZM10.3376 5.78558C10.3658 5.33429 10.5678 4.91065 10.9023 4.60132C11.2368 4.29198 11.6785 4.12033 12.1372 4.12147C13.0978 4.12147 13.873 4.85085 13.9287 5.78558H10.3376ZM8.10895 18.883C7.56146 18.883 6.95934 18.1907 6.95934 17.1987V7.52263H17.1294V17.2066C17.1294 18.1952 16.5262 18.8898 15.9798 18.8898H8.10895V18.8819V18.883Z" fill="white"/>
<path d="M12.1479 16.199C12.5722 16.199 12.923 15.853 12.923 15.4197V10.9783C12.923 10.545 12.5759 10.2 12.1479 10.2C11.7237 10.2 11.3729 10.545 11.3729 10.9783V15.4207C11.3729 15.852 11.7224 16.199 12.1479 16.199ZM15.0975 16.199C15.5218 16.199 15.8725 15.853 15.8725 15.4197V10.9783C15.8725 10.545 15.5254 10.2 15.0975 10.2C14.6732 10.2 14.3236 10.545 14.3236 10.9783V15.4207C14.3236 15.852 14.6611 16.199 15.0975 16.199Z" fill="white"/>
<path d="M10.1182 15.4197C10.1182 15.853 9.76865 16.199 9.34315 16.199C8.91042 16.199 8.5693 15.852 8.5693 15.4207V10.9783C8.5693 10.545 8.91886 10.2 9.34315 10.2C9.77106 10.2 10.1182 10.545 10.1182 10.9783V15.4197Z" fill="white"/>
</svg>
