<svg width="25" height="24" viewBox="0 0 25 24" fill="none" xmlns="http://www.w3.org/2000/svg">
<path d="M12.5 3C12.7357 3 12.9618 3.09484 13.1285 3.26366C13.2952 3.43247 13.3889 3.66144 13.3889 3.90018V14.7735L17.6467 10.4616C17.8065 10.2998 18.0211 10.2058 18.247 10.1986C18.4728 10.1914 18.6929 10.2715 18.8624 10.4227C19.032 10.5739 19.1384 10.7848 19.1599 11.0126C19.1814 11.2404 19.1164 11.4679 18.9782 11.6489L18.9036 11.7336L13.1249 17.5892C12.9719 17.7443 12.7684 17.8376 12.5523 17.8515C12.3363 17.8655 12.1227 17.7991 11.9516 17.6648L11.868 17.5901L6.09467 11.7534C5.93464 11.5917 5.84146 11.3743 5.83408 11.1455C5.8267 10.9167 5.90568 10.6936 6.05495 10.5217C6.20422 10.3498 6.41255 10.2419 6.63758 10.2201C6.8626 10.1982 7.08739 10.264 7.26622 10.404L7.34978 10.4787L11.6111 14.7852V3.90018C11.6111 3.66144 11.7048 3.43247 11.8715 3.26366C12.0382 3.09484 12.2643 3 12.5 3Z" fill="#0A1532" fill-opacity="0.6"/>
<path d="M20.2397 19.4633C20.073 19.2945 19.8469 19.1996 19.6111 19.1996H5.38889C5.15314 19.1996 4.92705 19.2945 4.76035 19.4633C4.59365 19.6321 4.5 19.8611 4.5 20.0998C4.5 20.3386 4.59365 20.5675 4.76035 20.7363C4.92705 20.9052 5.15314 21 5.38889 21H19.6111C19.8469 21 20.073 20.9052 20.2397 20.7363C20.4064 20.5675 20.5 20.3386 20.5 20.0998C20.5 19.8611 20.4064 19.6321 20.2397 19.4633Z" fill="#0A1532" fill-opacity="0.6"/>
</svg>
