<svg width="24" height="24" viewBox="0 0 24 24" fill="none" xmlns="http://www.w3.org/2000/svg">
<path d="M4.88867 19.21H19.1113C19.3442 19.21 19.5677 19.3039 19.7324 19.4707C19.897 19.6375 19.9892 19.8638 19.9893 20.0996C19.9893 20.3354 19.8969 20.5617 19.7324 20.7285C19.5677 20.8953 19.3442 20.9892 19.1113 20.9893H4.88867C4.65584 20.9892 4.43226 20.8953 4.26758 20.7285C4.10306 20.5617 4.01074 20.3354 4.01074 20.0996C4.0108 19.8638 4.10298 19.6375 4.26758 19.4707C4.43226 19.3039 4.65584 19.21 4.88867 19.21ZM12 3.01074C12.2329 3.01074 12.4564 3.10466 12.6211 3.27148C12.7857 3.43829 12.8779 3.66452 12.8779 3.90039V14.7988L12.8965 14.7812L17.1543 10.4688C17.3122 10.3091 17.5241 10.2162 17.7471 10.209C17.9702 10.2018 18.1879 10.2812 18.3555 10.4307C18.502 10.5613 18.601 10.7371 18.6377 10.9297L18.6494 11.0137C18.6706 11.2384 18.6068 11.4629 18.4707 11.6416L18.3955 11.7266L12.6172 17.582C12.4661 17.7352 12.265 17.827 12.0518 17.8408L11.8926 17.8369C11.7876 17.8243 11.6857 17.7924 11.5918 17.7432L11.458 17.6562L11.375 17.582L5.60254 11.7461C5.44448 11.5864 5.3521 11.3715 5.34473 11.1455L5.3457 11.0605C5.3578 10.8646 5.43347 10.6769 5.5625 10.5283C5.71001 10.3584 5.91636 10.2521 6.13867 10.2305C6.36048 10.2089 6.58229 10.2734 6.75879 10.4111V10.4121L6.8418 10.4854V10.4863L11.1035 14.793L11.1221 14.8105V3.90039C11.1221 3.66452 11.2143 3.43829 11.3789 3.27148C11.5436 3.10466 11.7671 3.01074 12 3.01074Z" fill="white" stroke="white" stroke-width="0.021098"/>
</svg>
