<svg width="25" height="24" viewBox="0 0 25 24" fill="none" xmlns="http://www.w3.org/2000/svg">
<path d="M6.65247 4.19649C5.35497 3.54324 3.97872 4.93187 4.64434 6.22374L5.95872 8.77337L3.93972 10.8107C2.91709 11.8431 3.81259 13.5809 5.24697 13.3472L8.07784 12.8852L9.39184 15.4349C10.0575 16.7264 11.9868 16.4117 12.2081 14.9755L12.2111 14.9552L16.7298 19.4324C16.9398 19.6403 17.1886 19.8049 17.4621 19.9167C17.7356 20.0285 18.0285 20.0854 18.3239 20.084C18.6194 20.0826 18.9117 20.0231 19.1842 19.9087C19.4567 19.7944 19.7039 19.6275 19.9119 19.4176C20.1199 19.2076 20.2845 18.9588 20.3963 18.6853C20.5081 18.4118 20.5649 18.1189 20.5635 17.8235C20.5621 17.528 20.5026 17.2357 20.3882 16.9632C20.2739 16.6907 20.107 16.4435 19.8971 16.2355L15.3221 11.7032L15.4743 11.6785C16.9083 11.4445 17.2053 9.51212 15.9075 8.85849L13.3458 7.56812L13.7812 4.73312C14.0021 3.29687 12.2557 2.41712 11.2331 3.44949L9.21484 5.48724L6.65247 4.19649ZM13.4925 12.0017L18.8415 17.3012C18.9114 17.3706 18.967 17.453 19.0051 17.5438C19.0432 17.6347 19.0631 17.7321 19.0635 17.8306C19.0639 17.9291 19.045 18.0267 19.0077 18.1179C18.9704 18.209 18.9155 18.292 18.8462 18.3619C18.7768 18.4319 18.6944 18.4875 18.6035 18.5256C18.5127 18.5637 18.4153 18.5835 18.3168 18.5839C18.2183 18.5844 18.1207 18.5654 18.0295 18.5281C17.9383 18.4908 17.8554 18.436 17.7855 18.3666L12.4923 13.1226L12.6435 12.1401L13.4925 12.0017ZM10.9027 13.5917L10.869 13.6255L10.8937 13.6502L10.725 14.7475L9.41097 12.1979C9.26582 11.9163 9.03526 11.6879 8.75232 11.5454C8.46939 11.4029 8.14861 11.3537 7.83597 11.4047L5.00547 11.8667L7.02409 9.82899C7.24706 9.60396 7.39305 9.31411 7.44115 9.00099C7.48925 8.68788 7.43698 8.36757 7.29184 8.08599L5.97784 5.53637L8.53947 6.82674C8.82237 6.96925 9.14313 7.01854 9.45577 6.96755C9.76841 6.91655 10.0569 6.76789 10.2798 6.54287L12.2988 4.50512L11.8631 7.34012C11.815 7.65321 11.8672 7.97351 12.0123 8.2551C12.1574 8.53668 12.3879 8.7651 12.6708 8.90762L15.2328 10.198L12.4016 10.66C12.089 10.711 11.8006 10.8597 11.5777 11.0847C11.3548 11.3097 11.2088 11.5995 11.1607 11.9125L10.9027 13.5917Z" fill="white"/>
<path d="M17.8359 3.48401L17.5277 4.91951C17.4615 5.22766 17.3078 5.51014 17.0849 5.733C16.8621 5.95586 16.5796 6.1096 16.2714 6.17576L14.8359 6.48401L16.2714 6.79226C16.5796 6.85841 16.8621 7.01216 17.0849 7.23502C17.3078 7.45788 17.4615 7.74036 17.5277 8.04851L17.8359 9.48401L18.1442 8.04851C18.2103 7.74036 18.3641 7.45788 18.587 7.23502C18.8098 7.01216 19.0923 6.85841 19.4004 6.79226L20.8359 6.48401L19.4004 6.17576C19.0923 6.1096 18.8098 5.95586 18.587 5.733C18.3641 5.51014 18.2103 5.22766 18.1442 4.91951L17.8359 3.48401ZM6.96094 15.109L7.18406 16.1485C7.23605 16.3907 7.35689 16.6127 7.53205 16.7879C7.70721 16.9631 7.92924 17.0839 8.17144 17.1359L9.21094 17.359L8.17144 17.5821C7.92924 17.6341 7.70721 17.755 7.53205 17.9301C7.35689 18.1053 7.23605 18.3273 7.18406 18.5695L6.96094 19.609L6.73781 18.5695C6.68583 18.3273 6.56499 18.1053 6.38983 17.9301C6.21466 17.755 5.99264 17.6341 5.75044 17.5821L4.71094 17.359L5.75044 17.1359C5.99264 17.0839 6.21466 16.9631 6.38983 16.7879C6.56499 16.6127 6.68583 16.3907 6.73781 16.1485L6.96094 15.109Z" fill="white"/>
</svg>
