<svg width="24" height="24" viewBox="0 0 24 24" fill="none" xmlns="http://www.w3.org/2000/svg">
<path d="M4 17.9988V6.00117C4 5.47042 4.21052 4.96112 4.58582 4.58582C4.96112 4.21052 5.47042 4 6.00117 4H9.60047L9.68201 4.00375C10.0864 4.04459 10.4019 4.3863 10.4019 4.80141C10.4019 5.21651 10.0864 5.55822 9.68201 5.59906L9.60047 5.60281H6.00117C5.89553 5.60281 5.79468 5.64528 5.71998 5.71998C5.64528 5.79468 5.60281 5.89553 5.60281 6.00117V17.9988C5.60281 18.1045 5.64528 18.2053 5.71998 18.28C5.79468 18.3547 5.89553 18.3972 6.00117 18.3972H17.9988C18.1045 18.3972 18.2053 18.3547 18.28 18.28C18.3547 18.2053 18.3972 18.1045 18.3972 17.9988V14.1896C18.3972 13.7469 18.756 13.3882 19.1986 13.3882C19.6412 13.3882 20 13.7469 20 14.1896V17.9988C20 18.5296 19.7895 19.0389 19.4142 19.4142C19.0389 19.7895 18.5296 20 17.9988 20H6.00117C5.47042 20 4.96112 19.7895 4.58582 19.4142C4.21052 19.0389 4 18.5296 4 17.9988ZM18.3972 10.4V6.73697L13.2869 11.8472C12.974 12.1602 12.4658 12.1602 12.1528 11.8472C11.8398 11.5342 11.8398 11.026 12.1528 10.7131L17.263 5.60281H13.6C13.1574 5.60281 12.7986 5.24403 12.7986 4.80141C12.7986 4.35878 13.1574 4 13.6 4H19.1986L19.2801 4.00375C19.6845 4.04459 20 4.3863 20 4.80141V10.4C20 10.8426 19.6412 11.2014 19.1986 11.2014C18.756 11.2014 18.3972 10.8426 18.3972 10.4Z" fill="#0A1532" fill-opacity="0.6"/>
</svg>
