<svg width="30" height="30" viewBox="0 0 30 30" fill="none" xmlns="http://www.w3.org/2000/svg">
<path d="M15.0088 2.19995C15.5417 2.20009 16.0281 2.53063 16.2178 2.96655L16.2451 3.02612L19.3262 9.35229C19.5364 9.78367 19.9405 10.088 20.4131 10.1716L27.3008 11.3894L27.3398 11.3962C27.5281 11.4244 27.7072 11.493 27.8652 11.5964L28.0166 11.7107C28.2068 11.8787 28.3439 12.099 28.4121 12.3435L28.4297 12.4011C28.4912 12.592 28.5127 12.7928 28.4932 12.991L28.46 13.1882C28.3975 13.4484 28.264 13.6861 28.0752 13.8757C28.0692 13.8818 28.0635 13.8881 28.0576 13.8943L23.1455 18.5701C22.7788 18.9192 22.6126 19.4305 22.7041 19.9285L23.9531 26.7224L23.9541 26.7244C24.0505 27.2447 23.8506 27.7821 23.3984 28.1296L23.3652 28.156C23.1609 28.3224 22.9051 28.4127 22.6416 28.4109H22.6309L22.501 28.4011C22.3563 28.3809 22.169 28.328 21.9697 28.2273H21.9707L15.6865 25.0496C15.3154 24.8619 14.8852 24.8376 14.499 24.9773L14.3369 25.0476L8.01367 28.2195L7.98145 28.2361C7.83899 28.312 7.68373 28.3604 7.52441 28.3796L7.36426 28.3894H7.35547C7.10856 28.3902 6.86696 28.3209 6.65918 28.1902L6.57227 28.1296C6.1881 27.8344 5.97802 27.3471 5.99414 26.9119L6.01562 26.7283L6.01758 26.7185L7.31055 19.9373C7.40656 19.4337 7.23831 18.9157 6.86523 18.5642L1.94727 13.9304C1.75678 13.7315 1.61967 13.4873 1.55078 13.2205C1.4824 12.9554 1.48368 12.6775 1.55273 12.4128C1.72351 11.9183 2.07764 11.6021 2.48047 11.4871L2.6582 11.449L2.72852 11.4382L9.61523 10.1726C10.0839 10.0864 10.4837 9.78266 10.6924 9.35425L13.7803 3.0144C14.038 2.49275 14.5455 2.19995 15.0088 2.19995Z" stroke="#704DFF" stroke-width="3" stroke-linejoin="round"/>
<path d="M12.5329 18.416C12.3064 18.4137 12.0896 18.3236 11.928 18.1648C11.7665 18.006 11.6728 17.7907 11.6666 17.5642C11.6666 17.4714 11.6281 15.2705 13.1197 13.745C14.014 12.8302 15.2348 12.3667 16.7474 12.3667C16.9781 12.3667 17.1993 12.4583 17.3624 12.6215C17.5256 12.7846 17.6172 13.0059 17.6172 13.2366C17.6172 13.4673 17.5256 13.6885 17.3624 13.8516C17.1993 14.0148 16.9781 14.1064 16.7474 14.1064C15.7234 14.1064 14.9236 14.3919 14.369 14.9547C13.4098 15.9278 13.404 17.465 13.4046 17.531C13.4081 17.7616 13.3201 17.9843 13.1598 18.1502C12.9995 18.3161 12.78 18.4117 12.5493 18.416H12.5329Z" fill="#704DFF"/>
<path d="M17.1919 13.1479C17.1745 13.0609 17.1315 12.9803 17.0679 12.9165C16.9829 12.8316 16.8677 12.7837 16.7476 12.7837C15.4139 12.7837 14.359 13.164 13.5718 13.8872L13.4175 14.0366C12.0896 15.3948 12.083 17.3656 12.0835 17.5532L12.0942 17.6401C12.1134 17.7259 12.1566 17.8052 12.2202 17.8677C12.3049 17.9509 12.4189 17.9983 12.5376 17.9995H12.5415C12.6618 17.9973 12.7762 17.9473 12.8599 17.8608C12.9435 17.7743 12.9896 17.6579 12.9878 17.5376V17.5347C12.9873 17.4804 12.9903 17.0443 13.1216 16.4878C13.252 15.9348 13.5181 15.2246 14.0718 14.6626L14.1978 14.5415C14.8418 13.9607 15.7153 13.6899 16.7476 13.6899L16.8364 13.6812C16.9234 13.6637 17.0042 13.6208 17.0679 13.5571C17.1528 13.4722 17.2006 13.3569 17.2007 13.2368L17.1919 13.1479ZM18.0278 13.3638C17.9986 13.6583 17.8678 13.9349 17.6567 14.146C17.4456 14.3571 17.169 14.4879 16.8745 14.5171L16.7476 14.5229C15.9191 14.5229 15.2951 14.724 14.8472 15.0835L14.6655 15.2476C14.2606 15.6585 14.0442 16.2032 13.9321 16.6782C13.8768 16.9126 13.8495 17.1225 13.8354 17.2759C13.8285 17.3521 13.8245 17.4139 13.8228 17.4575C13.8219 17.4792 13.822 17.4963 13.8218 17.5083C13.8217 17.5143 13.8208 17.5197 13.8208 17.5229V17.5249L13.8169 17.6519C13.7923 17.9465 13.6668 18.2254 13.4595 18.4399C13.2225 18.6851 12.898 18.8261 12.5571 18.8325H12.5288C12.1945 18.8291 11.8747 18.6958 11.6362 18.4614C11.4276 18.2563 11.2951 17.9877 11.2593 17.6997L11.2505 17.5757L11.2495 17.564V17.521C11.2496 17.4967 11.2505 17.4646 11.2515 17.4253C11.2535 17.3465 11.2585 17.2389 11.269 17.1089C11.2901 16.8492 11.3342 16.4964 11.4282 16.0962C11.6155 15.2993 12.0052 14.2887 12.8218 13.4536L13.0112 13.27C13.9771 12.3841 15.2454 11.9497 16.7476 11.9497C17.0886 11.9498 17.4155 12.0856 17.6567 12.3267C17.898 12.5679 18.0337 12.8956 18.0337 13.2368L18.0278 13.3638Z" fill="#704DFF"/>
</svg>
