<svg width="24" height="24" viewBox="0 0 24 24" fill="none" xmlns="http://www.w3.org/2000/svg">
<path d="M7.58664 11.12C7.51317 11.2308 7.42685 11.3624 7.33134 11.5118L7.23889 11.6563C6.84399 12.2729 6.41603 12.9402 6.09828 13.9382C6.05909 14.0612 6.02113 14.1751 5.98501 14.2835C5.88705 14.5761 5.80134 14.8314 5.73828 15.1394C5.65011 15.568 5.60175 16.1031 5.58644 17.0343C5.5693 18.0641 6.40807 18.8753 7.40726 18.8753H10.9001V19.6792H8.87971V21.5992H14.8393V19.6792H12.8201V18.8753H16.3136C17.3128 18.8753 18.1515 18.0641 18.1344 17.0343C18.1191 16.0982 18.0548 15.5606 17.9507 15.1284C17.9011 14.9305 17.8412 14.7353 17.7713 14.5437L17.7254 14.4157C17.6683 14.2575 17.614 14.0983 17.5626 13.9382C17.2442 12.9402 16.8168 12.2729 16.4219 11.6563L16.3295 11.5118C16.234 11.3624 16.1483 11.232 16.0754 11.1212L16.0742 11.1194C15.9968 11.0043 15.9219 10.8875 15.8495 10.7692C15.9046 10.6663 15.9915 10.5243 16.1379 10.2916C16.2358 10.1373 16.346 9.9702 16.4611 9.79571C16.665 9.48714 16.8854 9.15469 17.0752 8.82531C17.3777 8.30122 17.6422 7.7251 17.7132 7.12755C17.7548 6.77551 17.783 6.42347 17.7554 6.1051C17.7266 5.77939 17.6324 5.38878 17.3391 5.06C17.0458 4.73122 16.6693 4.59102 16.3473 4.52367C16.032 4.45816 15.6738 4.44286 15.3095 4.44286H14.5344V3.39592C14.5344 3.0257 14.3873 2.67064 14.1255 2.40886C13.8638 2.14707 13.5087 2 13.1385 2H10.7017C10.3315 2 9.97647 2.14707 9.71468 2.40886C9.4529 2.67064 9.30583 3.0257 9.30583 3.39592V4.44286H8.53073C8.16644 4.44286 7.80828 4.45755 7.49297 4.52367C7.17093 4.59102 6.7944 4.73122 6.50113 5.06C6.20848 5.38939 6.11358 5.77939 6.08481 6.1051C6.05726 6.42347 6.08542 6.77551 6.12766 7.12755C6.26358 8.2798 6.96154 9.39959 7.52297 10.2916C7.6693 10.5243 7.75624 10.6663 7.81073 10.7692C7.73854 10.8877 7.66383 11.0047 7.58664 11.12ZM10.5744 5.49837C10.7905 5.2351 10.9203 4.89837 10.9203 4.53102V3.6151H12.9199V4.53163C12.9199 4.89776 13.0491 5.23388 13.264 5.49714C13.1236 5.72779 12.9262 5.91846 12.6908 6.05082C12.4555 6.18319 12.19 6.25281 11.92 6.25299C11.65 6.25318 11.3844 6.18392 11.1489 6.05188C10.9134 5.91983 10.7151 5.72882 10.5744 5.49837ZM8.86868 12.6733L8.95011 12.5453C9.03828 12.4082 9.11787 12.2876 9.19073 12.1761L9.21215 12.1437C9.49256 11.7188 9.77909 11.2786 9.76807 10.7478C9.76073 10.4233 9.65113 10.1508 9.54522 9.94082C9.42324 9.71115 9.29107 9.48705 9.14909 9.26918L9.04685 9.10694C8.83991 8.78061 8.62685 8.44388 8.44624 8.0949C8.23562 7.68837 8.08072 7.28796 8.03481 6.90163C8.01016 6.71999 7.99687 6.53698 7.99501 6.35367C8.01277 6.35122 8.03419 6.34878 8.06236 6.34755C8.15996 6.34308 8.25776 6.34554 8.35501 6.3549C8.41623 6.35918 8.48358 6.36347 8.53134 6.36347H9.21644C9.50481 6.79449 9.90399 7.02041 10.3522 7.1349C10.8205 7.25367 11.3581 7.25367 11.8803 7.25367H11.9587C12.4815 7.25367 13.0191 7.25367 13.4875 7.1349C13.9356 7.02041 14.3342 6.79449 14.6232 6.36347H15.3101C15.3634 6.36347 15.4124 6.36286 15.4595 6.36163C15.5452 6.36041 15.6242 6.35918 15.7105 6.36286C15.8495 6.36898 15.8636 6.3751 15.8532 6.51469C15.8465 6.59537 15.8374 6.67582 15.8256 6.75592L15.8073 6.90163C15.7632 7.27082 15.5752 7.66143 15.3175 8.07347C15.1907 8.27673 15.0517 8.47755 14.9122 8.67837L14.8913 8.70837C14.7612 8.89242 14.6352 9.07941 14.5136 9.26918C14.3636 9.50796 14.2197 9.73694 14.1168 9.94082C14.0109 10.1508 13.9013 10.4233 13.8946 10.7478C13.8873 11.0851 13.9926 11.3618 14.1022 11.5743C14.1964 11.7592 14.3275 11.9576 14.4499 12.1437L14.712 12.5459L14.794 12.6733C15.1871 13.2873 15.4956 13.7741 15.7332 14.521C15.7932 14.7084 15.8507 14.8584 15.9022 14.99L15.9199 15.0359C15.975 15.1792 16.0215 15.3041 16.0607 15.4553C16.1373 15.7437 16.1954 16.1508 16.2138 16.9553H7.50766C7.52419 16.1465 7.56889 15.7357 7.63256 15.4431C7.67603 15.2441 7.72501 15.1063 7.7893 14.9263C7.82909 14.8155 7.8744 14.6882 7.92766 14.521C8.16522 13.7741 8.47379 13.2873 8.86746 12.6733H8.86868Z" fill="white"/>
<path d="M19.2174 7.78637C19.2664 7.61923 19.5034 7.61923 19.5523 7.78637L19.9503 9.14739C19.9668 9.20433 20.0115 9.24902 20.0685 9.26555L21.4295 9.66351C21.5966 9.71249 21.5966 9.94943 21.4295 9.99841L20.0685 10.3964C20.0404 10.4047 20.0148 10.4199 19.9942 10.4406C19.9735 10.4614 19.9585 10.487 19.9503 10.5151L19.5523 11.8756C19.5034 12.0427 19.2664 12.0427 19.2174 11.8756L18.8195 10.5151C18.8113 10.487 18.7961 10.4613 18.7753 10.4405C18.7546 10.4198 18.7289 10.4046 18.7007 10.3964L17.3403 9.99841C17.1732 9.94943 17.1732 9.71249 17.3403 9.66351L18.7007 9.26555C18.7288 9.2574 18.7545 9.24231 18.7752 9.22166C18.796 9.20101 18.8112 9.17547 18.8195 9.14739L19.2174 7.78637ZM4.45745 10.1049C4.42684 10.0009 4.27929 10.0009 4.24867 10.1049L4.0001 10.9535C3.99494 10.9709 3.98552 10.9867 3.97269 10.9996C3.95986 11.0124 3.94403 11.0218 3.92663 11.027L3.07806 11.2756C2.97398 11.3062 2.97398 11.4537 3.07806 11.4843L3.92663 11.7329C3.94403 11.7381 3.95986 11.7475 3.97269 11.7603C3.98552 11.7731 3.99494 11.789 4.0001 11.8064L4.24867 12.6549C4.27929 12.759 4.42684 12.759 4.45684 12.6549L4.70541 11.8064C4.71063 11.7889 4.72014 11.773 4.73309 11.7602C4.74603 11.7474 4.76198 11.738 4.77949 11.7329L5.62806 11.4843C5.73214 11.4537 5.73214 11.3062 5.62806 11.2756L4.77949 11.0276C4.76203 11.0224 4.74615 11.0129 4.73331 10.9999C4.72048 10.987 4.71109 10.971 4.70602 10.9535L4.45745 10.1049Z" fill="white"/>
</svg>
