<svg width="24" height="24" viewBox="0 0 24 24" fill="none" xmlns="http://www.w3.org/2000/svg">
<path d="M11.9565 16.8254L21.5133 6.94103C22.1624 6.26847 22.1624 5.17697 21.5126 4.50441C20.8614 3.83186 19.8054 3.83186 19.1563 4.50441L9.49259 14.4985C8.30843 14.4703 6.67056 14.9101 5.96417 17.3356C5.4234 18.6213 4 18.5561 4 18.5561C6.95439 21.9893 10.4368 20.0436 11.2324 19.199C11.9317 18.4567 12.0315 17.5506 11.9565 16.8254Z" stroke="white" stroke-width="1.5"/>
<line x1="10.0303" y1="14.4697" x2="12.5052" y2="16.9445" stroke="white" stroke-width="1.5"/>
<line x1="11.5303" y1="11.4697" x2="14.0052" y2="13.9445" stroke="white" stroke-width="1.5"/>
<path d="M3.8764 6.36627L5.07624 5.16643C5.72043 4.52225 6.76486 4.52225 7.40904 5.16643V5.16643C8.05322 5.81062 8.05322 6.85505 7.40904 7.49923L5.54498 9.36329C4.87551 10.0328 4.87551 11.1182 5.54498 11.7877V11.7877C6.21445 12.4571 7.29988 12.4571 7.96935 11.7877L10.1457 9.6113" stroke="white" stroke-width="1.5" stroke-linecap="round"/>
</svg>
