<svg width="213" height="80" viewBox="0 0 213 80" fill="none" xmlns="http://www.w3.org/2000/svg">
<rect x="6.05" y="6.05" width="200.9" height="67.9" rx="28.95" fill="url(#paint0_radial_715_1776)" stroke="url(#paint1_linear_715_1776)" stroke-width="0.1"/>
<rect x="6.75" y="6.75" width="199.5" height="66.5" rx="28.25" fill="url(#paint2_linear_715_1776)"/>
<rect x="6.75" y="6.75" width="199.5" height="66.5" rx="28.25" fill="#FDE3D1" fill-opacity="0.52"/>
<rect x="6.75" y="6.75" width="199.5" height="66.5" rx="28.25" stroke="url(#paint3_linear_715_1776)" stroke-width="1.5"/>
<rect x="3" y="3" width="207" height="74" rx="32" stroke="url(#paint4_radial_715_1776)" stroke-width="6"/>
<mask id="path-4-outside-1_715_1776" maskUnits="userSpaceOnUse" x="70.9238" y="27.1111" width="72" height="25" fill="black">
<rect fill="white" x="70.9238" y="27.1111" width="72" height="25"/>
<path d="M72.0337 50.1111L73.7241 29.7474H81.1815C82.6265 29.7474 83.8032 29.9861 84.7113 30.4634C85.6261 30.934 86.2823 31.5737 86.6801 32.3824C87.0844 33.1845 87.2435 34.0893 87.1573 35.0969C87.0844 35.9454 86.8657 36.658 86.5011 37.2347C86.1431 37.8114 85.689 38.2754 85.1389 38.6267C84.5953 38.978 84.0086 39.2332 83.3789 39.3923L83.359 39.5912C84.0285 39.6243 84.6682 39.8431 85.2781 40.2474C85.8945 40.6452 86.3851 41.2119 86.7497 41.9477C87.1142 42.6835 87.2534 43.5784 87.1673 44.6324C87.0811 45.6731 86.7596 46.6078 86.2028 47.4364C85.646 48.2583 84.8406 48.9113 83.7866 49.3952C82.7326 49.8724 81.4168 50.1111 79.8391 50.1111H72.0337ZM75.3249 47.4761H79.7596C81.2312 47.4761 82.3084 47.1911 82.9911 46.621C83.6805 46.051 84.0617 45.3384 84.1346 44.4832C84.1876 43.8403 84.0716 43.2503 83.7866 42.7134C83.5082 42.1764 83.0806 41.7489 82.5039 41.4307C81.9338 41.1125 81.2378 40.9534 80.4158 40.9534H75.8718L75.3249 47.4761ZM76.0806 38.5571H80.1872C80.8765 38.5571 81.5096 38.4245 82.0863 38.1594C82.663 37.8942 83.1337 37.5197 83.4982 37.0358C83.8628 36.5519 84.0683 35.9851 84.1147 35.3355C84.1943 34.487 83.9622 33.7811 83.4187 33.2176C82.8751 32.6475 81.9935 32.3625 80.7738 32.3625H76.5877L76.0806 38.5571ZM94.5401 50.4492C93.5723 50.4492 92.7106 50.2702 91.9549 49.9122C91.2059 49.5476 90.6325 49.0206 90.2347 48.3313C89.837 47.6419 89.6779 46.7967 89.7575 45.7957C89.8304 44.934 90.0558 44.2247 90.4336 43.6679C90.8181 43.1111 91.3053 42.6703 91.8952 42.3455C92.4852 42.0206 93.1348 41.7754 93.8441 41.6097C94.5534 41.4439 95.2726 41.318 96.0018 41.2318C96.9232 41.1258 97.6689 41.0363 98.239 40.9634C98.8157 40.8904 99.2399 40.7778 99.5117 40.6253C99.7901 40.4662 99.9459 40.2077 99.9791 39.8497V39.7801C100.045 38.9184 99.8597 38.2489 99.4222 37.7716C98.9847 37.2877 98.2887 37.0457 97.3342 37.0457C96.3332 37.0457 95.5212 37.2645 94.8981 37.702C94.275 38.1395 93.8309 38.63 93.5657 39.1736L90.8313 38.5372C91.2357 37.6092 91.7826 36.8601 92.472 36.2901C93.1613 35.7134 93.9336 35.2957 94.7887 35.0372C95.6505 34.7721 96.542 34.6395 97.4634 34.6395C98.0733 34.6395 98.713 34.7124 99.3825 34.8582C100.052 34.9974 100.672 35.256 101.242 35.6338C101.819 36.0117 102.266 36.5519 102.584 37.2545C102.909 37.9506 103.025 38.8554 102.932 39.969L102.097 50.1111H99.1935L99.3725 48.023H99.2532C99.0345 48.4075 98.7163 48.7853 98.2987 49.1565C97.881 49.5278 97.3607 49.836 96.7376 50.0813C96.1145 50.3265 95.382 50.4492 94.5401 50.4492ZM95.3754 48.0628C96.1973 48.0628 96.9132 47.9004 97.5231 47.5756C98.1396 47.2508 98.6235 46.8265 98.9748 46.3028C99.3328 45.7725 99.5349 45.2058 99.5813 44.6026L99.7504 42.6338C99.631 42.7399 99.4156 42.836 99.1041 42.9222C98.7991 43.0083 98.4511 43.0846 98.06 43.1509C97.6756 43.2171 97.2977 43.2735 96.9265 43.3199C96.5619 43.3663 96.257 43.4094 96.0117 43.4492C95.4284 43.5221 94.8915 43.6447 94.4009 43.817C93.9104 43.9894 93.5094 44.238 93.1978 44.5628C92.8863 44.881 92.7106 45.3052 92.6708 45.8355C92.6112 46.5713 92.8365 47.1281 93.347 47.506C93.8574 47.8772 94.5335 48.0628 95.3754 48.0628ZM118.466 38.567L115.732 39.0443C115.645 38.6996 115.496 38.3715 115.284 38.0599C115.072 37.7418 114.77 37.4866 114.379 37.2943C113.988 37.0955 113.484 36.996 112.868 36.996C112.019 36.996 111.294 37.1883 110.69 37.5727C110.087 37.9506 109.766 38.4378 109.726 39.0344C109.679 39.5382 109.829 39.9425 110.173 40.2474C110.525 40.5524 111.111 40.8043 111.933 41.0031L114.32 41.5599C115.698 41.8848 116.706 42.3885 117.342 43.0713C117.985 43.7541 118.26 44.639 118.168 45.7261C118.095 46.6409 117.763 47.4529 117.173 48.1622C116.59 48.8649 115.814 49.4184 114.847 49.8227C113.885 50.2205 112.792 50.4193 111.565 50.4193C109.842 50.4193 108.466 50.0547 107.439 49.3256C106.418 48.5898 105.841 47.5457 105.709 46.1935L108.612 45.756C108.732 46.505 109.05 47.0718 109.567 47.4563C110.09 47.8341 110.793 48.023 111.675 48.023C112.656 48.0296 113.461 47.8242 114.091 47.4065C114.721 46.9889 115.055 46.4818 115.095 45.8852C115.142 45.408 115.002 45.0135 114.678 44.702C114.359 44.3838 113.836 44.1419 113.107 43.9761L110.581 43.3994C109.176 43.0813 108.161 42.5642 107.538 41.8483C106.915 41.1258 106.65 40.2209 106.743 39.1338C106.816 38.2389 107.131 37.4567 107.688 36.7872C108.244 36.1111 108.98 35.5841 109.895 35.2063C110.81 34.8284 111.84 34.6395 112.987 34.6395C114.644 34.6395 115.917 34.9974 116.805 35.7134C117.7 36.4226 118.254 37.3739 118.466 38.567ZM121.069 50.1111L122.341 34.8384H125.314L124.042 50.1111H121.069ZM124.141 32.4719C123.631 32.4719 123.193 32.2995 122.828 31.9548C122.471 31.6035 122.298 31.1826 122.311 30.692C122.318 30.2081 122.51 29.7938 122.888 29.4492C123.266 29.0978 123.713 28.9222 124.23 28.9222C124.741 28.9222 125.175 29.0978 125.533 29.4492C125.898 29.7938 126.073 30.2081 126.06 30.692C126.053 31.1826 125.861 31.6035 125.483 31.9548C125.105 32.2995 124.658 32.4719 124.141 32.4719ZM134.455 50.4193C132.976 50.4193 131.733 50.0846 130.726 49.4151C129.718 48.7389 128.979 47.8076 128.509 46.621C128.038 45.4345 127.866 44.0756 127.991 42.5443C128.117 40.9932 128.522 39.6243 129.205 38.4378C129.887 37.2446 130.786 36.3133 131.899 35.6438C133.019 34.9742 134.299 34.6395 135.737 34.6395C136.897 34.6395 137.911 34.8549 138.78 35.2858C139.655 35.71 140.341 36.3066 140.838 37.0756C141.335 37.8445 141.594 38.7427 141.614 39.7702H138.72C138.621 39.0543 138.306 38.4378 137.776 37.9207C137.252 37.4037 136.516 37.1452 135.568 37.1452C134.74 37.1452 133.997 37.3639 133.341 37.8014C132.685 38.2323 132.151 38.8488 131.74 39.6509C131.329 40.4463 131.081 41.3876 130.994 42.4747C130.902 43.5884 130.991 44.5495 131.263 45.3582C131.535 46.167 131.962 46.7934 132.545 47.2375C133.129 47.6816 133.841 47.9037 134.683 47.9037C135.253 47.9037 135.777 47.801 136.254 47.5955C136.732 47.3833 137.143 47.0817 137.487 46.6906C137.832 46.2995 138.09 45.8289 138.263 45.2787H141.156C140.964 46.2664 140.566 47.148 139.963 47.9236C139.36 48.6992 138.591 49.309 137.656 49.7531C136.728 50.1973 135.661 50.4193 134.455 50.4193Z"/>
</mask>
<path d="M72.0337 50.1111L73.7241 29.7474H81.1815C82.6265 29.7474 83.8032 29.9861 84.7113 30.4634C85.6261 30.934 86.2823 31.5737 86.6801 32.3824C87.0844 33.1845 87.2435 34.0893 87.1573 35.0969C87.0844 35.9454 86.8657 36.658 86.5011 37.2347C86.1431 37.8114 85.689 38.2754 85.1389 38.6267C84.5953 38.978 84.0086 39.2332 83.3789 39.3923L83.359 39.5912C84.0285 39.6243 84.6682 39.8431 85.2781 40.2474C85.8945 40.6452 86.3851 41.2119 86.7497 41.9477C87.1142 42.6835 87.2534 43.5784 87.1673 44.6324C87.0811 45.6731 86.7596 46.6078 86.2028 47.4364C85.646 48.2583 84.8406 48.9113 83.7866 49.3952C82.7326 49.8724 81.4168 50.1111 79.8391 50.1111H72.0337ZM75.3249 47.4761H79.7596C81.2312 47.4761 82.3084 47.1911 82.9911 46.621C83.6805 46.051 84.0617 45.3384 84.1346 44.4832C84.1876 43.8403 84.0716 43.2503 83.7866 42.7134C83.5082 42.1764 83.0806 41.7489 82.5039 41.4307C81.9338 41.1125 81.2378 40.9534 80.4158 40.9534H75.8718L75.3249 47.4761ZM76.0806 38.5571H80.1872C80.8765 38.5571 81.5096 38.4245 82.0863 38.1594C82.663 37.8942 83.1337 37.5197 83.4982 37.0358C83.8628 36.5519 84.0683 35.9851 84.1147 35.3355C84.1943 34.487 83.9622 33.7811 83.4187 33.2176C82.8751 32.6475 81.9935 32.3625 80.7738 32.3625H76.5877L76.0806 38.5571ZM94.5401 50.4492C93.5723 50.4492 92.7106 50.2702 91.9549 49.9122C91.2059 49.5476 90.6325 49.0206 90.2347 48.3313C89.837 47.6419 89.6779 46.7967 89.7575 45.7957C89.8304 44.934 90.0558 44.2247 90.4336 43.6679C90.8181 43.1111 91.3053 42.6703 91.8952 42.3455C92.4852 42.0206 93.1348 41.7754 93.8441 41.6097C94.5534 41.4439 95.2726 41.318 96.0018 41.2318C96.9232 41.1258 97.6689 41.0363 98.239 40.9634C98.8157 40.8904 99.2399 40.7778 99.5117 40.6253C99.7901 40.4662 99.9459 40.2077 99.9791 39.8497V39.7801C100.045 38.9184 99.8597 38.2489 99.4222 37.7716C98.9847 37.2877 98.2887 37.0457 97.3342 37.0457C96.3332 37.0457 95.5212 37.2645 94.8981 37.702C94.275 38.1395 93.8309 38.63 93.5657 39.1736L90.8313 38.5372C91.2357 37.6092 91.7826 36.8601 92.472 36.2901C93.1613 35.7134 93.9336 35.2957 94.7887 35.0372C95.6505 34.7721 96.542 34.6395 97.4634 34.6395C98.0733 34.6395 98.713 34.7124 99.3825 34.8582C100.052 34.9974 100.672 35.256 101.242 35.6338C101.819 36.0117 102.266 36.5519 102.584 37.2545C102.909 37.9506 103.025 38.8554 102.932 39.969L102.097 50.1111H99.1935L99.3725 48.023H99.2532C99.0345 48.4075 98.7163 48.7853 98.2987 49.1565C97.881 49.5278 97.3607 49.836 96.7376 50.0813C96.1145 50.3265 95.382 50.4492 94.5401 50.4492ZM95.3754 48.0628C96.1973 48.0628 96.9132 47.9004 97.5231 47.5756C98.1396 47.2508 98.6235 46.8265 98.9748 46.3028C99.3328 45.7725 99.5349 45.2058 99.5813 44.6026L99.7504 42.6338C99.631 42.7399 99.4156 42.836 99.1041 42.9222C98.7991 43.0083 98.4511 43.0846 98.06 43.1509C97.6756 43.2171 97.2977 43.2735 96.9265 43.3199C96.5619 43.3663 96.257 43.4094 96.0117 43.4492C95.4284 43.5221 94.8915 43.6447 94.4009 43.817C93.9104 43.9894 93.5094 44.238 93.1978 44.5628C92.8863 44.881 92.7106 45.3052 92.6708 45.8355C92.6112 46.5713 92.8365 47.1281 93.347 47.506C93.8574 47.8772 94.5335 48.0628 95.3754 48.0628ZM118.466 38.567L115.732 39.0443C115.645 38.6996 115.496 38.3715 115.284 38.0599C115.072 37.7418 114.77 37.4866 114.379 37.2943C113.988 37.0955 113.484 36.996 112.868 36.996C112.019 36.996 111.294 37.1883 110.69 37.5727C110.087 37.9506 109.766 38.4378 109.726 39.0344C109.679 39.5382 109.829 39.9425 110.173 40.2474C110.525 40.5524 111.111 40.8043 111.933 41.0031L114.32 41.5599C115.698 41.8848 116.706 42.3885 117.342 43.0713C117.985 43.7541 118.26 44.639 118.168 45.7261C118.095 46.6409 117.763 47.4529 117.173 48.1622C116.59 48.8649 115.814 49.4184 114.847 49.8227C113.885 50.2205 112.792 50.4193 111.565 50.4193C109.842 50.4193 108.466 50.0547 107.439 49.3256C106.418 48.5898 105.841 47.5457 105.709 46.1935L108.612 45.756C108.732 46.505 109.05 47.0718 109.567 47.4563C110.09 47.8341 110.793 48.023 111.675 48.023C112.656 48.0296 113.461 47.8242 114.091 47.4065C114.721 46.9889 115.055 46.4818 115.095 45.8852C115.142 45.408 115.002 45.0135 114.678 44.702C114.359 44.3838 113.836 44.1419 113.107 43.9761L110.581 43.3994C109.176 43.0813 108.161 42.5642 107.538 41.8483C106.915 41.1258 106.65 40.2209 106.743 39.1338C106.816 38.2389 107.131 37.4567 107.688 36.7872C108.244 36.1111 108.98 35.5841 109.895 35.2063C110.81 34.8284 111.84 34.6395 112.987 34.6395C114.644 34.6395 115.917 34.9974 116.805 35.7134C117.7 36.4226 118.254 37.3739 118.466 38.567ZM121.069 50.1111L122.341 34.8384H125.314L124.042 50.1111H121.069ZM124.141 32.4719C123.631 32.4719 123.193 32.2995 122.828 31.9548C122.471 31.6035 122.298 31.1826 122.311 30.692C122.318 30.2081 122.51 29.7938 122.888 29.4492C123.266 29.0978 123.713 28.9222 124.23 28.9222C124.741 28.9222 125.175 29.0978 125.533 29.4492C125.898 29.7938 126.073 30.2081 126.06 30.692C126.053 31.1826 125.861 31.6035 125.483 31.9548C125.105 32.2995 124.658 32.4719 124.141 32.4719ZM134.455 50.4193C132.976 50.4193 131.733 50.0846 130.726 49.4151C129.718 48.7389 128.979 47.8076 128.509 46.621C128.038 45.4345 127.866 44.0756 127.991 42.5443C128.117 40.9932 128.522 39.6243 129.205 38.4378C129.887 37.2446 130.786 36.3133 131.899 35.6438C133.019 34.9742 134.299 34.6395 135.737 34.6395C136.897 34.6395 137.911 34.8549 138.78 35.2858C139.655 35.71 140.341 36.3066 140.838 37.0756C141.335 37.8445 141.594 38.7427 141.614 39.7702H138.72C138.621 39.0543 138.306 38.4378 137.776 37.9207C137.252 37.4037 136.516 37.1452 135.568 37.1452C134.74 37.1452 133.997 37.3639 133.341 37.8014C132.685 38.2323 132.151 38.8488 131.74 39.6509C131.329 40.4463 131.081 41.3876 130.994 42.4747C130.902 43.5884 130.991 44.5495 131.263 45.3582C131.535 46.167 131.962 46.7934 132.545 47.2375C133.129 47.6816 133.841 47.9037 134.683 47.9037C135.253 47.9037 135.777 47.801 136.254 47.5955C136.732 47.3833 137.143 47.0817 137.487 46.6906C137.832 46.2995 138.09 45.8289 138.263 45.2787H141.156C140.964 46.2664 140.566 47.148 139.963 47.9236C139.36 48.6992 138.591 49.309 137.656 49.7531C136.728 50.1973 135.661 50.4193 134.455 50.4193Z" fill="#F37A23"/>
<path d="M72.0337 50.1111L71.0372 50.0284L70.9473 51.1111H72.0337V50.1111ZM73.7241 29.7474V28.7474H72.8037L72.7275 29.6647L73.7241 29.7474ZM84.7113 30.4634L84.2461 31.3486L84.2538 31.3526L84.7113 30.4634ZM86.68 32.3824L85.7827 32.8237L85.7871 32.8326L86.68 32.3824ZM87.1573 35.0969L88.1537 35.1825L88.1537 35.1821L87.1573 35.0969ZM86.5011 37.2347L85.6558 36.7003L85.6514 36.7073L86.5011 37.2347ZM85.1389 38.6267L84.6007 37.7839L84.596 37.7869L85.1389 38.6267ZM83.3789 39.3923L83.134 38.4228L82.4537 38.5947L82.3839 39.2928L83.3789 39.3923ZM83.359 39.5912L82.364 39.4917L82.2594 40.538L83.3096 40.59L83.359 39.5912ZM85.2781 40.2474L84.7254 41.081L84.7359 41.0877L85.2781 40.2474ZM86.7497 41.9477L87.6457 41.5037L86.7497 41.9477ZM87.1673 44.6324L88.1639 44.7149L88.1639 44.7139L87.1673 44.6324ZM86.2028 47.4364L87.0307 47.9972L87.0328 47.9941L86.2028 47.4364ZM83.7866 49.3952L84.1991 50.3061L84.2038 50.304L83.7866 49.3952ZM75.3249 47.4761L74.3284 47.3926L74.2376 48.4761H75.3249V47.4761ZM82.9911 46.621L82.3539 45.8504L82.3502 45.8534L82.9911 46.621ZM84.1346 44.4832L85.131 44.5682L85.1312 44.5654L84.1346 44.4832ZM83.7866 42.7134L82.8988 43.1737L82.9033 43.1822L83.7866 42.7134ZM82.5039 41.4307L82.0165 42.3039L82.0208 42.3063L82.5039 41.4307ZM75.8718 40.9534V39.9534H74.9521L74.8753 40.8699L75.8718 40.9534ZM76.0806 38.5571L75.084 38.4755L74.9954 39.5571H76.0806V38.5571ZM82.0863 38.1594L82.504 39.0679L82.0863 38.1594ZM83.4982 37.0358L84.2969 37.6375L83.4982 37.0358ZM84.1147 35.3355L83.1191 35.2422L83.118 35.2532L83.1173 35.2643L84.1147 35.3355ZM83.4187 33.2176L82.6949 33.9077L82.699 33.9119L83.4187 33.2176ZM76.5877 32.3625V31.3625H75.6662L75.5911 32.2809L76.5877 32.3625ZM72.0337 50.1111L73.0303 50.1938L74.7207 29.8302L73.7241 29.7474L72.7275 29.6647L71.0372 50.0284L72.0337 50.1111ZM73.7241 29.7474V30.7474H81.1815V29.7474V28.7474H73.7241V29.7474ZM81.1815 29.7474V30.7474C82.5268 30.7474 83.528 30.9711 84.2461 31.3486L84.7113 30.4634L85.1765 29.5782C84.0784 29.001 82.7263 28.7474 81.1815 28.7474V29.7474ZM84.7113 30.4634L84.2538 31.3526C85.0059 31.7395 85.4928 32.2342 85.7827 32.8237L86.68 32.3824L87.5774 31.9411C87.0718 30.9131 86.2463 30.1285 85.1688 29.5741L84.7113 30.4634ZM86.68 32.3824L85.7871 32.8326C86.0979 33.4491 86.2334 34.1648 86.161 35.0117L87.1573 35.0969L88.1537 35.1821C88.2536 34.0138 88.0709 32.9199 87.573 31.9322L86.68 32.3824ZM87.1573 35.0969L86.161 35.0113C86.0985 35.739 85.9162 36.2884 85.6558 36.7003L86.5011 37.2347L87.3463 37.769C87.8151 37.0275 88.0704 36.1517 88.1537 35.1825L87.1573 35.0969ZM86.5011 37.2347L85.6514 36.7073C85.3692 37.1621 85.0197 37.5163 84.6007 37.7839L85.1389 38.6267L85.677 39.4695C86.3584 39.0344 86.9171 38.4607 87.3507 37.762L86.5011 37.2347ZM85.1389 38.6267L84.596 37.7869C84.1444 38.0788 83.6584 38.2903 83.134 38.4228L83.3789 39.3923L83.6239 40.3619C84.3589 40.1762 85.0462 39.8773 85.6817 39.4666L85.1389 38.6267ZM83.3789 39.3923L82.3839 39.2928L82.364 39.4917L83.359 39.5912L84.3541 39.6907L84.374 39.4918L83.3789 39.3923ZM83.359 39.5912L83.3096 40.59C83.7833 40.6134 84.2513 40.7665 84.7255 41.0809L85.2781 40.2474L85.8307 39.414C85.0852 38.9197 84.2738 38.6353 83.4085 38.5924L83.359 39.5912ZM85.2781 40.2474L84.7359 41.0877C85.1833 41.3764 85.5593 41.7978 85.8536 42.3917L86.7497 41.9477L87.6457 41.5037C87.2108 40.6261 86.6057 39.914 85.8202 39.4072L85.2781 40.2474ZM86.7497 41.9477L85.8536 42.3917C86.1175 42.9242 86.2461 43.6268 86.1706 44.5509L87.1673 44.6324L88.1639 44.7139C88.2607 43.53 88.111 42.4429 87.6457 41.5037L86.7497 41.9477ZM87.1673 44.6324L86.1707 44.5499C86.0979 45.4287 85.83 46.1982 85.3728 46.8786L86.2028 47.4364L87.0328 47.9941C87.6892 47.0173 88.0643 45.9175 88.1639 44.7149L87.1673 44.6324ZM86.2028 47.4364L85.3749 46.8755C84.9367 47.5223 84.2855 48.0657 83.3693 48.4864L83.7866 49.3952L84.2038 50.304C85.3956 49.7568 86.3552 48.9944 87.0307 47.9972L86.2028 47.4364ZM83.7866 49.3952L83.3741 48.4842C82.4878 48.8856 81.3233 49.1111 79.8391 49.1111V50.1111V51.1111C81.5103 51.1111 82.9774 50.8593 84.1991 50.3061L83.7866 49.3952ZM79.8391 50.1111V49.1111H72.0337V50.1111V51.1111H79.8391V50.1111ZM75.3249 47.4761V48.4761H79.7596V47.4761V46.4761H75.3249V47.4761ZM79.7596 47.4761V48.4761C81.3236 48.4761 82.6844 48.1798 83.632 47.3886L82.9911 46.621L82.3502 45.8534C81.9323 46.2024 81.1387 46.4761 79.7596 46.4761V47.4761ZM82.9911 46.621L83.6284 47.3917C84.5149 46.6586 85.0342 45.7032 85.131 44.5682L84.1346 44.4832L83.1382 44.3983C83.0892 44.9735 82.8462 45.4433 82.3539 45.8504L82.9911 46.621ZM84.1346 44.4832L85.1312 44.5654C85.199 43.7439 85.0502 42.961 84.6698 42.2445L83.7866 42.7134L82.9033 43.1822C83.093 43.5396 83.1763 43.9366 83.138 44.401L84.1346 44.4832ZM83.7866 42.7134L84.6743 42.253C84.2969 41.5251 83.7206 40.9598 82.987 40.5551L82.5039 41.4307L82.0208 42.3063C82.4407 42.5379 82.7194 42.8277 82.8988 43.1737L83.7866 42.7134ZM82.5039 41.4307L82.9913 40.5575C82.2384 40.1373 81.365 39.9534 80.4158 39.9534V40.9534V41.9534C81.1106 41.9534 81.6293 42.0877 82.0165 42.3039L82.5039 41.4307ZM80.4158 40.9534V39.9534H75.8718V40.9534V41.9534H80.4158V40.9534ZM75.8718 40.9534L74.8753 40.8699L74.3284 47.3926L75.3249 47.4761L76.3214 47.5597L76.8683 41.037L75.8718 40.9534ZM76.0806 38.5571V39.5571H80.1872V38.5571V37.5571H76.0806V38.5571ZM80.1872 38.5571V39.5571C81.0082 39.5571 81.7853 39.3984 82.504 39.0679L82.0863 38.1594L81.6686 37.2508C81.2339 37.4507 80.7449 37.5571 80.1872 37.5571V38.5571ZM82.0863 38.1594L82.504 39.0679C83.2237 38.737 83.8279 38.2601 84.2969 37.6375L83.4982 37.0358L82.6995 36.4341C82.4394 36.7793 82.1023 37.0514 81.6686 37.2508L82.0863 38.1594ZM83.4982 37.0358L84.2969 37.6375C84.7863 36.988 85.0531 36.2336 85.1122 35.4068L84.1147 35.3355L83.1173 35.2643C83.0835 35.7367 82.9394 36.1158 82.6995 36.4341L83.4982 37.0358ZM84.1147 35.3355L85.1103 35.4289C85.2144 34.3192 84.9037 33.3167 84.1384 32.5233L83.4187 33.2176L82.699 33.9119C83.0208 34.2455 83.1741 34.6549 83.1191 35.2422L84.1147 35.3355ZM83.4187 33.2176L84.1424 32.5275C83.3282 31.6736 82.1196 31.3625 80.7738 31.3625V32.3625V33.3625C81.8674 33.3625 82.4221 33.6215 82.695 33.9077L83.4187 33.2176ZM80.7738 32.3625V31.3625H76.5877V32.3625V33.3625H80.7738V32.3625ZM76.5877 32.3625L75.5911 32.2809L75.084 38.4755L76.0806 38.5571L77.0773 38.6387L77.5844 32.4441L76.5877 32.3625ZM91.9549 49.9122L91.5172 50.8114L91.5268 50.816L91.9549 49.9122ZM90.2347 48.3313L91.1009 47.8315L90.2347 48.3313ZM89.7575 45.7957L88.761 45.7114L88.7606 45.7165L89.7575 45.7957ZM90.4336 43.6679L89.6107 43.0997L89.6061 43.1064L90.4336 43.6679ZM96.0018 41.2318L95.8874 40.2384L95.8844 40.2387L96.0018 41.2318ZM98.239 40.9634L98.1136 39.9713L98.1121 39.9714L98.239 40.9634ZM99.5117 40.6253L100.001 41.4975L100.008 41.4935L99.5117 40.6253ZM99.9791 39.8497L100.975 39.9419L100.979 39.8959V39.8497H99.9791ZM99.9791 39.7801L98.982 39.7034L98.9791 39.7417V39.7801H99.9791ZM99.4222 37.7716L98.6804 38.4423L98.6851 38.4473L99.4222 37.7716ZM94.8981 37.702L95.4727 38.5204L94.8981 37.702ZM93.5657 39.1736L93.339 40.1476L94.1151 40.3282L94.4645 39.612L93.5657 39.1736ZM90.8313 38.5372L89.9146 38.1378L89.4348 39.2389L90.6047 39.5112L90.8313 38.5372ZM92.472 36.2901L93.1092 37.0607L93.1136 37.0571L92.472 36.2901ZM94.7887 35.0372L95.0781 35.9944L95.0828 35.993L94.7887 35.0372ZM99.3825 34.8582L99.1696 35.8354L99.1789 35.8373L99.3825 34.8582ZM101.242 35.6338L100.689 36.4674L100.694 36.4703L101.242 35.6338ZM102.584 37.2545L101.673 37.6671L101.678 37.6774L102.584 37.2545ZM102.932 39.969L101.936 39.886L101.936 39.887L102.932 39.969ZM102.097 50.1111V51.1111H103.018L103.094 50.1932L102.097 50.1111ZM99.1935 50.1111L98.1972 50.0257L98.1042 51.1111H99.1935V50.1111ZM99.3725 48.023L100.369 48.1084L100.462 47.023H99.3725V48.023ZM99.2532 48.023V47.023H98.6716L98.384 47.5285L99.2532 48.023ZM98.2987 49.1565L97.6343 48.4091L98.2987 49.1565ZM96.7376 50.0813L96.3713 49.1507L96.7376 50.0813ZM97.5231 47.5756L97.0569 46.6909L97.053 46.693L97.5231 47.5756ZM98.9748 46.3028L98.1459 45.7434L98.1444 45.7457L98.9748 46.3028ZM99.5813 44.6026L98.585 44.517L98.5843 44.5259L99.5813 44.6026ZM99.7504 42.6338L100.747 42.7194L100.961 40.2194L99.086 41.8864L99.7504 42.6338ZM99.1041 42.9222L98.8375 41.9583L98.8321 41.9599L99.1041 42.9222ZM98.06 43.1509L97.8929 42.1649L97.8901 42.1654L98.06 43.1509ZM96.9265 43.3199L96.8025 42.3276L96.8002 42.3279L96.9265 43.3199ZM96.0117 43.4492L96.1358 44.4414L96.1538 44.4392L96.1718 44.4363L96.0117 43.4492ZM94.4009 43.817L94.0694 42.8736L94.4009 43.817ZM93.1978 44.5628L93.9124 45.2624L93.9195 45.255L93.1978 44.5628ZM92.6708 45.8355L93.6676 45.9163L93.668 45.9103L92.6708 45.8355ZM93.347 47.506L92.752 48.3097L92.7588 48.3147L93.347 47.506ZM94.5401 50.4492V49.4492C93.6972 49.4492 92.9853 49.2938 92.383 49.0085L91.9549 49.9122L91.5268 50.816C92.4358 51.2465 93.4475 51.4492 94.5401 51.4492V50.4492ZM91.9549 49.9122L92.3925 49.0131C91.8142 48.7315 91.3941 48.3396 91.1009 47.8315L90.2347 48.3313L89.3686 48.831C89.8709 49.7017 90.5976 50.3637 91.5173 50.8114L91.9549 49.9122ZM90.2347 48.3313L91.1009 47.8315C90.828 47.3584 90.6866 46.727 90.7543 45.875L89.7575 45.7957L88.7606 45.7165C88.6692 46.8663 88.8461 47.9253 89.3686 48.831L90.2347 48.3313ZM89.7575 45.7957L90.7539 45.8801C90.8164 45.1416 91.0032 44.6094 91.2611 44.2294L90.4336 43.6679L89.6061 43.1064C89.1083 43.8401 88.8444 44.7264 88.761 45.7114L89.7575 45.7957ZM90.4336 43.6679L91.2565 44.2361C91.5533 43.8063 91.9241 43.4711 92.3775 43.2215L91.8952 42.3455L91.413 41.4694C90.6865 41.8694 90.0829 42.4159 89.6107 43.0997L90.4336 43.6679ZM91.8952 42.3455L92.3775 43.2215C92.8812 42.9442 93.4441 42.73 94.0716 42.5834L93.8441 41.6097L93.6166 40.6359C92.8255 40.8207 92.0892 41.0971 91.413 41.4694L91.8952 42.3455ZM93.8441 41.6097L94.0716 42.5834C94.7443 42.4263 95.4267 42.3067 96.1191 42.2249L96.0018 41.2318L95.8844 40.2387C95.1185 40.3293 94.3625 40.4616 93.6166 40.6359L93.8441 41.6097ZM96.0018 41.2318L96.1161 42.2253C97.0395 42.119 97.7899 42.0289 98.3659 41.9553L98.239 40.9634L98.1121 39.9714C97.548 40.0436 96.8068 40.1325 95.8874 40.2384L96.0018 41.2318ZM98.239 40.9634L98.3644 41.9555C98.9777 41.8779 99.5576 41.7462 100.001 41.4974L99.5117 40.6253L99.0225 39.7531C98.9223 39.8093 98.6537 39.903 98.1136 39.9713L98.239 40.9634ZM99.5117 40.6253L100.008 41.4935C100.607 41.1512 100.916 40.5788 100.975 39.9419L99.9791 39.8497L98.9833 39.7575C98.9806 39.7866 98.9765 39.8019 98.9751 39.8065C98.9738 39.8107 98.9748 39.8059 98.9808 39.796C98.987 39.7857 98.9953 39.7753 99.0043 39.7666C99.0131 39.7581 99.0183 39.7555 99.0156 39.757L99.5117 40.6253ZM99.9791 39.8497H100.979V39.7801H99.9791H98.9791V39.8497H99.9791ZM99.9791 39.7801L100.976 39.8568C101.056 38.8156 100.841 37.839 100.159 37.0959L99.4222 37.7716L98.6851 38.4473C98.8789 38.6588 99.0345 39.0212 98.982 39.7034L99.9791 39.7801ZM99.4222 37.7716L100.164 37.1009C99.4632 36.3258 98.4386 36.0457 97.3342 36.0457V37.0457V38.0457C98.1388 38.0457 98.5063 38.2496 98.6805 38.4422L99.4222 37.7716ZM97.3342 37.0457V36.0457C96.1917 36.0457 95.1607 36.2958 94.3235 36.8836L94.8981 37.702L95.4727 38.5204C95.8817 38.2332 96.4748 38.0457 97.3342 38.0457V37.0457ZM94.8981 37.702L94.3235 36.8836C93.5971 37.3936 93.0231 38.0051 92.6669 38.7352L93.5657 39.1736L94.4645 39.612C94.6386 39.255 94.9529 38.8854 95.4727 38.5204L94.8981 37.702ZM93.5657 39.1736L93.7924 38.1996L91.058 37.5632L90.8313 38.5372L90.6047 39.5112L93.339 40.1476L93.5657 39.1736ZM90.8313 38.5372L91.7481 38.9367C92.098 38.1335 92.5559 37.5182 93.1092 37.0607L92.472 36.2901L91.8347 35.5194C91.0092 36.202 90.3733 37.0849 89.9146 38.1378L90.8313 38.5372ZM92.472 36.2901L93.1136 37.0571C93.7002 36.5663 94.3528 36.2137 95.0781 35.9944L94.7887 35.0372L94.4993 34.08C93.5144 34.3778 92.6225 34.8604 91.8303 35.5231L92.472 36.2901ZM94.7887 35.0372L95.0828 35.993C95.8472 35.7578 96.6395 35.6395 97.4634 35.6395V34.6395V33.6395C96.4446 33.6395 95.4537 33.7863 94.4946 34.0814L94.7887 35.0372ZM97.4634 34.6395V35.6395C97.9936 35.6395 98.5616 35.7029 99.1696 35.8353L99.3825 34.8582L99.5953 33.8812C98.8643 33.7219 98.153 33.6395 97.4634 33.6395V34.6395ZM99.3825 34.8582L99.1789 35.8373C99.7239 35.9506 100.225 36.1597 100.689 36.4673L101.242 35.6338L101.794 34.8003C101.118 34.3522 100.38 34.0443 99.586 33.8792L99.3825 34.8582ZM101.242 35.6338L100.694 36.4703C101.093 36.7321 101.424 37.1161 101.673 37.6671L102.584 37.2545L103.495 36.842C103.108 35.9877 102.544 35.2912 101.79 34.7973L101.242 35.6338ZM102.584 37.2545L101.678 37.6774C101.903 38.1597 102.02 38.8721 101.936 39.886L102.932 39.969L103.929 40.0521C104.03 38.8387 103.915 37.7414 103.49 36.8317L102.584 37.2545ZM102.932 39.969L101.936 39.887L101.1 50.029L102.097 50.1111L103.094 50.1932L103.929 40.0511L102.932 39.969ZM102.097 50.1111V49.1111H99.1935V50.1111V51.1111H102.097V50.1111ZM99.1935 50.1111L100.19 50.1965L100.369 48.1084L99.3725 48.023L98.3762 47.9376L98.1972 50.0257L99.1935 50.1111ZM99.3725 48.023V47.023H99.2532V48.023V49.023H99.3725V48.023ZM99.2532 48.023L98.384 47.5285C98.2314 47.7968 97.9908 48.0923 97.6343 48.4091L98.2987 49.1565L98.963 49.9039C99.4418 49.4784 99.8376 49.0181 100.122 48.5175L99.2532 48.023ZM98.2987 49.1565L97.6343 48.4091C97.32 48.6885 96.9062 48.9402 96.3713 49.1507L96.7376 50.0813L97.1038 51.0118C97.8152 50.7318 98.4421 50.367 98.963 49.9039L98.2987 49.1565ZM96.7376 50.0813L96.3713 49.1507C95.8906 49.34 95.2876 49.4492 94.5401 49.4492V50.4492V51.4492C95.4764 51.4492 96.3383 51.3131 97.1038 51.0118L96.7376 50.0813ZM95.3754 48.0628V49.0628C96.3303 49.0628 97.2135 48.8734 97.9932 48.4582L97.5231 47.5756L97.053 46.693C96.6129 46.9273 96.0644 47.0628 95.3754 47.0628V48.0628ZM97.5231 47.5756L97.9892 48.4603C98.7367 48.0665 99.3521 47.5354 99.8052 46.86L98.9748 46.3028L98.1444 45.7457C97.8948 46.1177 97.5424 46.4351 97.057 46.6909L97.5231 47.5756ZM98.9748 46.3028L99.8036 46.8623C100.253 46.197 100.518 45.4653 100.578 44.6793L99.5813 44.6026L98.5843 44.5259C98.5519 44.9463 98.4127 45.3481 98.1459 45.7434L98.9748 46.3028ZM99.5813 44.6026L100.578 44.6881L100.747 42.7194L99.7504 42.6338L98.754 42.5483L98.585 44.517L99.5813 44.6026ZM99.7504 42.6338L99.086 41.8864C99.1301 41.8472 99.1462 41.848 99.0919 41.8722C99.043 41.894 98.9614 41.9241 98.8375 41.9584L99.1041 42.9222L99.3706 43.886C99.7085 43.7925 100.114 43.6482 100.415 43.3812L99.7504 42.6338ZM99.1041 42.9222L98.8321 41.9599C98.569 42.0342 98.257 42.1032 97.8929 42.1649L98.06 43.1509L98.2271 44.1368C98.6452 44.0659 99.0293 43.9825 99.376 43.8845L99.1041 42.9222ZM98.06 43.1509L97.8901 42.1654C97.5202 42.2292 97.1577 42.2832 96.8025 42.3276L96.9265 43.3199L97.0505 44.3122C97.4377 44.2638 97.8309 44.2051 98.2299 44.1363L98.06 43.1509ZM96.9265 43.3199L96.8002 42.3279C96.4292 42.3751 96.1121 42.4198 95.8517 42.462L96.0117 43.4492L96.1718 44.4363C96.4019 44.3989 96.6947 44.3575 97.0528 44.3119L96.9265 43.3199ZM96.0117 43.4492L95.8877 42.4569C95.2427 42.5375 94.6353 42.6748 94.0694 42.8736L94.4009 43.817L94.7324 44.7605C95.1477 44.6146 95.6141 44.5066 96.1358 44.4414L96.0117 43.4492ZM94.4009 43.817L94.0694 42.8736C93.454 43.0898 92.912 43.4162 92.4761 43.8706L93.1978 44.5628L93.9195 45.255C94.1068 45.0598 94.3668 44.889 94.7324 44.7605L94.4009 43.817ZM93.1978 44.5628L92.4833 43.8632C91.9762 44.3811 91.7274 45.0431 91.6736 45.7607L92.6708 45.8355L93.668 45.9103C93.6937 45.5674 93.7963 45.3808 93.9123 45.2624L93.1978 44.5628ZM92.6708 45.8355L91.6741 45.7547C91.5918 46.7692 91.9146 47.6898 92.752 48.3097L93.347 47.506L93.9419 46.7022C93.7585 46.5664 93.6305 46.3735 93.6675 45.9163L92.6708 45.8355ZM93.347 47.506L92.7588 48.3147C93.489 48.8458 94.392 49.0628 95.3754 49.0628V48.0628V47.0628C94.675 47.0628 94.2257 46.9086 93.9351 46.6972L93.347 47.506ZM118.466 38.567L118.638 39.5522L119.626 39.3797L119.45 38.392L118.466 38.567ZM115.732 39.0443L114.761 39.2869L114.987 40.1894L115.903 40.0294L115.732 39.0443ZM115.284 38.0599L114.452 38.6147L114.457 38.6227L115.284 38.0599ZM114.379 37.2943L113.926 38.1858L113.938 38.1918L114.379 37.2943ZM110.69 37.5727L111.221 38.4202L111.228 38.416L110.69 37.5727ZM109.726 39.0344L110.722 39.1261L110.723 39.1135L110.724 39.1009L109.726 39.0344ZM110.173 40.2474L109.511 40.9965L109.518 41.0027L110.173 40.2474ZM111.933 41.0031L111.698 41.9751L111.706 41.977L111.933 41.0031ZM114.32 41.5599L114.549 40.5866L114.547 40.5861L114.32 41.5599ZM117.342 43.0713L116.611 43.7531L116.614 43.7569L117.342 43.0713ZM118.168 45.7261L117.171 45.6411L117.171 45.6467L118.168 45.7261ZM117.173 48.1622L116.404 47.5227L116.404 47.5235L117.173 48.1622ZM114.847 49.8227L115.229 50.7468L115.232 50.7454L114.847 49.8227ZM107.439 49.3256L106.854 50.1368L106.86 50.1411L107.439 49.3256ZM105.709 46.1935L105.56 45.2046L104.621 45.3461L104.714 46.291L105.709 46.1935ZM108.612 45.756L109.6 45.5987L109.444 44.6194L108.463 44.7671L108.612 45.756ZM109.567 47.4563L108.97 48.2587L108.976 48.263L108.982 48.2672L109.567 47.4563ZM111.675 48.023L111.681 47.023H111.675V48.023ZM114.091 47.4065L114.644 48.2399V48.2399L114.091 47.4065ZM115.095 45.8852L114.1 45.7885L114.098 45.8036L114.097 45.8187L115.095 45.8852ZM114.678 44.702L113.97 45.4091L113.978 45.4165L113.985 45.4237L114.678 44.702ZM113.107 43.9761L112.884 44.951L112.885 44.9513L113.107 43.9761ZM110.581 43.3994L110.804 42.4245L110.802 42.4241L110.581 43.3994ZM107.538 41.8483L106.781 42.5014L106.784 42.5048L107.538 41.8483ZM106.743 39.1338L107.739 39.2189L107.74 39.215L106.743 39.1338ZM107.688 36.7872L108.456 37.4267L108.459 37.4229L107.688 36.7872ZM109.895 35.2063L109.513 34.282L109.895 35.2063ZM116.805 35.7134L116.178 36.492L116.184 36.497L116.805 35.7134ZM118.466 38.567L118.294 37.5819L115.56 38.0592L115.732 39.0443L115.903 40.0294L118.638 39.5522L118.466 38.567ZM115.732 39.0443L116.702 38.8018C116.585 38.3359 116.385 37.9002 116.111 37.4972L115.284 38.0599L114.457 38.6227C114.607 38.8428 114.706 39.0633 114.761 39.2869L115.732 39.0443ZM115.284 38.0599L116.116 37.5052C115.793 37.0208 115.347 36.6558 114.82 36.3969L114.379 37.2943L113.938 38.1918C114.193 38.3173 114.351 38.4627 114.452 38.6146L115.284 38.0599ZM114.379 37.2943L114.833 36.4029C114.256 36.1097 113.582 35.996 112.868 35.996V36.996V37.996C113.387 37.996 113.72 38.0812 113.926 38.1857L114.379 37.2943ZM112.868 36.996V35.996C111.865 35.996 110.945 36.2249 110.153 36.7295L110.69 37.5727L111.228 38.416C111.643 38.1516 112.174 37.996 112.868 37.996V36.996ZM110.69 37.5727L110.16 36.7253C109.343 37.2366 108.793 37.9877 108.728 38.9679L109.726 39.0344L110.724 39.1009C110.738 38.8879 110.831 38.6645 111.221 38.4202L110.69 37.5727ZM109.726 39.0344L108.73 38.9427C108.658 39.7272 108.901 40.4572 109.511 40.9964L110.173 40.2474L110.836 39.4984C110.756 39.4279 110.701 39.3491 110.722 39.1261L109.726 39.0344ZM110.173 40.2474L109.518 41.0027C110.052 41.4666 110.828 41.7647 111.698 41.9751L111.933 41.0031L112.168 40.0312C111.394 39.8439 110.997 39.6381 110.829 39.4922L110.173 40.2474ZM111.933 41.0031L111.706 41.977L114.092 42.5338L114.32 41.5599L114.547 40.5861L112.16 40.0293L111.933 41.0031ZM114.32 41.5599L114.09 42.5333C115.37 42.8347 116.162 43.272 116.611 43.7531L117.342 43.0713L118.074 42.3895C117.25 41.5051 116.027 40.9348 114.549 40.5866L114.32 41.5599ZM117.342 43.0713L116.614 43.7569C117.03 44.1981 117.244 44.7864 117.171 45.6411L118.168 45.7261L119.164 45.8112C119.277 44.4916 118.941 43.31 118.07 42.3857L117.342 43.0713ZM118.168 45.7261L117.171 45.6467C117.114 46.3545 116.863 46.9712 116.404 47.5227L117.173 48.1622L117.942 48.8017C118.663 47.9347 119.075 46.9273 119.164 45.8056L118.168 45.7261ZM117.173 48.1622L116.404 47.5235C115.938 48.0845 115.302 48.5486 114.461 48.9L114.847 49.8227L115.232 50.7454C116.327 50.2881 117.242 49.6452 117.943 48.801L117.173 48.1622ZM114.847 49.8227L114.464 48.8987C113.644 49.2381 112.684 49.4193 111.565 49.4193V50.4193V51.4193C112.9 51.4193 114.127 51.2028 115.229 50.7467L114.847 49.8227ZM111.565 50.4193V49.4193C109.975 49.4193 108.824 49.0823 108.018 48.5101L107.439 49.3256L106.86 50.1411C108.109 51.0272 109.709 51.4193 111.565 51.4193V50.4193ZM107.439 49.3256L108.024 48.5143C107.256 47.961 106.811 47.1881 106.704 46.0959L105.709 46.1935L104.714 46.291C104.872 47.9034 105.58 49.2186 106.854 50.1368L107.439 49.3256ZM105.709 46.1935L105.858 47.1823L108.761 46.7448L108.612 45.756L108.463 44.7671L105.56 45.2046L105.709 46.1935ZM108.612 45.756L107.625 45.9133C107.777 46.8711 108.207 47.6912 108.97 48.2587L109.567 47.4563L110.163 46.6538C109.893 46.4524 109.686 46.1389 109.6 45.5987L108.612 45.756ZM109.567 47.4563L108.982 48.2672C109.728 48.8057 110.658 49.023 111.675 49.023V48.023V47.023C110.928 47.023 110.453 46.8625 110.152 46.6453L109.567 47.4563ZM111.675 48.023L111.668 49.023C112.789 49.0306 113.805 48.796 114.644 48.2399L114.091 47.4065L113.538 46.5731C113.117 46.8523 112.522 47.0287 111.681 47.023L111.675 48.023ZM114.091 47.4065L114.644 48.2399C115.458 47.7001 116.027 46.9398 116.093 45.9518L115.095 45.8852L114.097 45.8187C114.084 46.0239 113.984 46.2778 113.538 46.5731L114.091 47.4065ZM115.095 45.8852L116.09 45.982C116.164 45.2229 115.932 44.5194 115.37 43.9803L114.678 44.702L113.985 45.4237C114.073 45.5077 114.119 45.593 114.1 45.7885L115.095 45.8852ZM114.678 44.702L115.385 43.9949C114.872 43.4819 114.132 43.1838 113.328 43.001L113.107 43.9761L112.885 44.9513C113.539 45.1 113.847 45.2858 113.97 45.4091L114.678 44.702ZM113.107 43.9761L113.329 43.0012L110.804 42.4245L110.581 43.3994L110.358 44.3743L112.884 44.951L113.107 43.9761ZM110.581 43.3994L110.802 42.4241C109.502 42.1299 108.721 41.6837 108.293 41.1918L107.538 41.8483L106.784 42.5048C107.602 43.4447 108.849 44.0326 110.36 44.3748L110.581 43.3994ZM107.538 41.8483L108.296 41.1952C107.874 40.7064 107.666 40.0798 107.739 39.2189L106.743 39.1338L105.747 39.0488C105.634 40.3621 105.956 41.5452 106.781 42.5014L107.538 41.8483ZM106.743 39.1338L107.74 39.215C107.796 38.5184 108.035 37.9328 108.456 37.4267L107.688 36.7872L106.919 36.1478C106.226 36.9807 105.835 37.9594 105.746 39.0526L106.743 39.1338ZM107.688 36.7872L108.459 37.4229C108.899 36.8892 109.494 36.4539 110.277 36.1305L109.895 35.2063L109.513 34.282C108.467 34.7143 107.59 35.3329 106.916 36.1515L107.688 36.7872ZM109.895 35.2063L110.277 36.1305C111.053 35.81 111.951 35.6395 112.987 35.6395V34.6395V33.6395C111.73 33.6395 110.567 33.8469 109.513 34.282L109.895 35.2063ZM112.987 34.6395V35.6395C114.516 35.6395 115.532 35.9717 116.178 36.492L116.805 35.7134L117.433 34.9348C116.302 34.0232 114.772 33.6395 112.987 33.6395V34.6395ZM116.805 35.7134L116.184 36.497C116.875 37.0448 117.309 37.7733 117.481 38.7421L118.466 38.567L119.45 38.392C119.198 36.9744 118.525 35.8005 117.427 34.9297L116.805 35.7134ZM121.069 50.1111L120.072 50.028L119.982 51.1111H121.069V50.1111ZM122.341 34.8384V33.8384H121.421L121.345 34.7553L122.341 34.8384ZM125.314 34.8384L126.311 34.9214L126.401 33.8384H125.314V34.8384ZM124.042 50.1111V51.1111H124.962L125.038 50.1941L124.042 50.1111ZM122.828 31.9548L122.128 32.6685L122.135 32.6751L122.141 32.6815L122.828 31.9548ZM122.311 30.692L123.311 30.7191L123.311 30.7057L122.311 30.692ZM122.888 29.4492L123.562 30.1879L123.569 30.1815L122.888 29.4492ZM125.533 29.4492L124.833 30.1628L124.839 30.1694L124.846 30.1758L125.533 29.4492ZM126.06 30.692L125.06 30.6647L125.06 30.6785L126.06 30.692ZM125.483 31.9548L126.157 32.6936L126.164 32.6872L125.483 31.9548ZM121.069 50.1111L122.065 50.1941L123.338 34.9214L122.341 34.8384L121.345 34.7553L120.072 50.028L121.069 50.1111ZM122.341 34.8384V35.8384H125.314V34.8384V33.8384H122.341V34.8384ZM125.314 34.8384L124.318 34.7553L123.045 50.028L124.042 50.1111L125.038 50.1941L126.311 34.9214L125.314 34.8384ZM124.042 50.1111V49.1111H121.069V50.1111V51.1111H124.042V50.1111ZM124.141 32.4719V31.4719C123.881 31.4719 123.691 31.394 123.516 31.2282L122.828 31.9548L122.141 32.6815C122.695 33.2051 123.38 33.4719 124.141 33.4719V32.4719ZM122.828 31.9548L123.529 31.2412C123.364 31.0796 123.306 30.925 123.311 30.7191L122.311 30.692L121.312 30.665C121.291 31.4402 121.577 32.1275 122.128 32.6685L122.828 31.9548ZM122.311 30.692L123.311 30.7057C123.314 30.5153 123.375 30.3582 123.562 30.1879L122.888 29.4492L122.214 28.7104C121.645 29.2295 121.322 29.901 121.312 30.6784L122.311 30.692ZM122.888 29.4492L123.569 30.1815C123.761 30.0026 123.965 29.9222 124.23 29.9222V28.9222V27.9222C123.461 27.9222 122.771 28.193 122.207 28.7168L122.888 29.4492ZM124.23 28.9222V29.9222C124.484 29.9222 124.665 29.9986 124.833 30.1628L125.533 29.4492L126.233 28.7355C125.685 28.197 124.998 27.9222 124.23 27.9222V28.9222ZM125.533 29.4492L124.846 30.1758C125.012 30.3332 125.066 30.4767 125.06 30.6647L126.06 30.692L127.06 30.7194C127.081 29.9396 126.783 29.2545 126.22 28.7225L125.533 29.4492ZM126.06 30.692L125.06 30.6785C125.057 30.8805 124.992 31.0464 124.802 31.2225L125.483 31.9548L126.164 32.6872C126.731 32.1606 127.049 31.4846 127.06 30.7056L126.06 30.692ZM125.483 31.9548L124.809 31.2161C124.618 31.3907 124.412 31.4719 124.141 31.4719V32.4719V33.4719C124.904 33.4719 125.593 33.2084 126.157 32.6936L125.483 31.9548ZM130.726 49.4151L130.169 50.2454L130.172 50.248L130.726 49.4151ZM128.509 46.621L129.438 46.2523L128.509 46.621ZM127.991 42.5443L128.988 42.6263L128.988 42.6253L127.991 42.5443ZM129.205 38.4378L130.071 38.9365L130.073 38.9344L129.205 38.4378ZM131.899 35.6438L131.386 34.7854L131.384 34.7867L131.899 35.6438ZM138.78 35.2858L138.335 36.1816L138.344 36.1856L138.78 35.2858ZM140.838 37.0756L139.998 37.6185L140.838 37.0756ZM141.614 39.7702V40.7702H142.633L142.613 39.7508L141.614 39.7702ZM138.72 39.7702L137.73 39.9077L137.849 40.7702H138.72V39.7702ZM137.776 37.9207L137.073 38.6324L137.077 38.6367L137.776 37.9207ZM133.341 37.8014L133.89 38.6374L133.896 38.6335L133.341 37.8014ZM131.74 39.6509L132.628 40.1099L132.63 40.1069L131.74 39.6509ZM130.994 42.4747L131.991 42.5578L131.991 42.5537L130.994 42.4747ZM131.263 45.3582L132.211 45.0397L131.263 45.3582ZM132.545 47.2375L133.151 46.4419H133.151L132.545 47.2375ZM136.254 47.5955L136.65 48.514L136.66 48.5093L136.254 47.5955ZM138.263 45.2787V44.2787H137.528L137.309 44.9798L138.263 45.2787ZM141.156 45.2787L142.138 45.4697L142.37 44.2787H141.156V45.2787ZM139.963 47.9236L140.752 48.5375L139.963 47.9236ZM137.656 49.7531L137.227 48.8499L137.225 48.8511L137.656 49.7531ZM134.455 50.4193V49.4193C133.129 49.4193 132.09 49.1206 131.279 48.5822L130.726 49.4151L130.172 50.248C131.377 51.0485 132.824 51.4193 134.455 51.4193V50.4193ZM130.726 49.4151L131.283 48.5847C130.452 48.0273 129.838 47.2612 129.438 46.2523L128.509 46.621L127.579 46.9897C128.12 48.3539 128.984 49.4506 130.169 50.2454L130.726 49.4151ZM128.509 46.621L129.438 46.2523C129.035 45.2351 128.872 44.035 128.988 42.6263L127.991 42.5443L126.995 42.4623C126.859 44.1161 127.041 45.6339 127.579 46.9897L128.509 46.621ZM127.991 42.5443L128.988 42.6253C129.104 41.2011 129.472 39.9787 130.071 38.9365L129.205 38.4378L128.338 37.939C127.572 39.27 127.131 40.7853 126.995 42.4634L127.991 42.5443ZM129.205 38.4378L130.073 38.9344C130.676 37.8806 131.456 37.0771 132.414 36.5008L131.899 35.6438L131.384 34.7867C130.115 35.5494 129.099 36.6086 128.337 37.9411L129.205 38.4378ZM131.899 35.6438L132.412 36.5021C133.362 35.9346 134.46 35.6395 135.737 35.6395V34.6395V33.6395C134.137 33.6395 132.677 34.0139 131.386 34.7854L131.899 35.6438ZM135.737 34.6395V35.6395C136.773 35.6395 137.63 35.8315 138.335 36.1816L138.78 35.2858L139.224 34.39C138.193 33.8784 137.021 33.6395 135.737 33.6395V34.6395ZM138.78 35.2858L138.344 36.1856C139.065 36.5352 139.607 37.0128 139.998 37.6185L140.838 37.0756L141.678 36.5326C141.075 35.6004 140.245 34.8849 139.216 34.386L138.78 35.2858ZM140.838 37.0756L139.998 37.6185C140.382 38.2127 140.597 38.9247 140.614 39.7895L141.614 39.7702L142.613 39.7508C142.59 38.5607 142.288 37.4763 141.678 36.5326L140.838 37.0756ZM141.614 39.7702V38.7702H138.72V39.7702V40.7702H141.614V39.7702ZM138.72 39.7702L139.711 39.6326C139.58 38.691 139.159 37.8727 138.474 37.2047L137.776 37.9207L137.077 38.6367C137.453 39.0029 137.662 39.4176 137.73 39.9077L138.72 39.7702ZM137.776 37.9207L138.478 37.2091C137.718 36.4583 136.7 36.1452 135.568 36.1452V37.1452V38.1452C136.332 38.1452 136.786 38.3491 137.073 38.6323L137.776 37.9207ZM135.568 37.1452V36.1452C134.553 36.1452 133.615 36.4167 132.786 36.9694L133.341 37.8014L133.896 38.6335C134.379 38.3112 134.926 38.1452 135.568 38.1452V37.1452ZM133.341 37.8014L132.792 36.9655C131.971 37.5046 131.328 38.2618 130.85 39.1948L131.74 39.6509L132.63 40.1069C132.974 39.4357 133.398 38.9599 133.89 38.6374L133.341 37.8014ZM131.74 39.6509L130.852 39.1918C130.368 40.1282 130.092 41.2041 129.997 42.3957L130.994 42.4747L131.991 42.5537C132.069 41.5711 132.29 40.7644 132.628 40.1099L131.74 39.6509ZM130.994 42.4747L129.998 42.3917C129.897 43.601 129.988 44.7056 130.315 45.6768L131.263 45.3582L132.211 45.0397C131.994 44.3935 131.906 43.5757 131.991 42.5578L130.994 42.4747ZM131.263 45.3582L130.315 45.6768C130.64 46.6433 131.172 47.4489 131.94 48.0331L132.545 47.2375L133.151 46.4419C132.752 46.1378 132.429 45.6906 132.211 45.0397L131.263 45.3582ZM132.545 47.2375L131.94 48.0331C132.722 48.629 133.656 48.9037 134.683 48.9037V47.9037V46.9037C134.026 46.9037 133.535 46.7343 133.151 46.4419L132.545 47.2375ZM134.683 47.9037V48.9037C135.376 48.9037 136.036 48.7782 136.65 48.5139L136.254 47.5955L135.859 46.677C135.518 46.8237 135.131 46.9037 134.683 46.9037V47.9037ZM136.254 47.5955L136.66 48.5093C137.269 48.2388 137.797 47.8511 138.237 47.3518L137.487 46.6906L136.737 46.0294C136.488 46.3123 136.194 46.5279 135.848 46.6816L136.254 47.5955ZM137.487 46.6906L138.237 47.3518C138.684 46.8449 139.007 46.2473 139.217 45.5776L138.263 45.2787L137.309 44.9798C137.174 45.4105 136.98 45.7541 136.737 46.0294L137.487 46.6906ZM138.263 45.2787V46.2787H141.156V45.2787V44.2787H138.263V45.2787ZM141.156 45.2787L140.175 45.0877C140.012 45.9251 139.678 46.6611 139.174 47.3096L139.963 47.9236L140.752 48.5375C141.454 47.635 141.916 46.6077 142.138 45.4697L141.156 45.2787ZM139.963 47.9236L139.174 47.3096C138.671 47.9554 138.028 48.4691 137.227 48.8499L137.656 49.7531L138.085 50.6563C139.153 50.1489 140.048 49.4429 140.752 48.5375L139.963 47.9236ZM137.656 49.7531L137.225 48.8511C136.453 49.2205 135.537 49.4193 134.455 49.4193V50.4193V51.4193C135.785 51.4193 137.004 51.174 138.088 50.6552L137.656 49.7531Z" fill="#FDECDF" mask="url(#path-4-outside-1_715_1776)"/>
<defs>
<radialGradient id="paint0_radial_715_1776" cx="0" cy="0" r="1" gradientUnits="userSpaceOnUse" gradientTransform="translate(106.5 40) rotate(90) scale(42.5 119.036)">
<stop offset="0.101786" stop-color="#D25C08"/>
<stop offset="1" stop-color="#F9D6BD" stop-opacity="0.85"/>
</radialGradient>
<linearGradient id="paint1_linear_715_1776" x1="19.2736" y1="6" x2="183.095" y2="77.2969" gradientUnits="userSpaceOnUse">
<stop stop-color="#848484"/>
<stop offset="1" stop-color="#848484" stop-opacity="0"/>
</linearGradient>
<linearGradient id="paint2_linear_715_1776" x1="1.98" y1="18.4667" x2="239.833" y2="85.7427" gradientUnits="userSpaceOnUse">
<stop stop-color="#D66D0B"/>
<stop offset="0.150377" stop-color="#E9770C"/>
<stop offset="0.464178" stop-color="#FAC39C"/>
<stop offset="0.619007" stop-color="#FACAA8"/>
<stop offset="0.746638" stop-color="#F26E0F"/>
<stop offset="0.835628" stop-color="#F58B40"/>
</linearGradient>
<linearGradient id="paint3_linear_715_1776" x1="106.5" y1="6" x2="106.5" y2="74" gradientUnits="userSpaceOnUse">
<stop stop-color="white" stop-opacity="0.59"/>
<stop offset="0.552083" stop-color="#FCE2CF" stop-opacity="0.705938"/>
<stop offset="0.838542" stop-color="#F69F60" stop-opacity="0.76"/>
</linearGradient>
<radialGradient id="paint4_radial_715_1776" cx="0" cy="0" r="1" gradientUnits="userSpaceOnUse" gradientTransform="translate(106.5 40) rotate(90) scale(46.2778 108.749)">
<stop stop-color="#F9BD92"/>
<stop offset="1" stop-color="white" stop-opacity="0"/>
</radialGradient>
</defs>
</svg>
