<svg width="213" height="80" viewBox="0 0 213 80" fill="none" xmlns="http://www.w3.org/2000/svg">
<rect x="6.05" y="6.05" width="200.9" height="67.9" rx="28.95" fill="url(#paint0_radial_715_1832)" stroke="url(#paint1_linear_715_1832)" stroke-width="0.1"/>
<rect x="6.75" y="6.75" width="199.5" height="66.5" rx="28.25" fill="url(#paint2_linear_715_1832)"/>
<rect x="6.75" y="6.75" width="199.5" height="66.5" rx="28.25" fill="#FFEDBD" fill-opacity="0.55"/>
<rect x="6.75" y="6.75" width="199.5" height="66.5" rx="28.25" stroke="url(#paint3_linear_715_1832)" stroke-width="1.5"/>
<rect x="3" y="3" width="207" height="74" rx="32" stroke="url(#paint4_radial_715_1832)" stroke-width="6"/>
<mask id="path-4-outside-1_715_1832" maskUnits="userSpaceOnUse" x="46.9238" y="29.1111" width="119" height="26" fill="black">
<rect fill="white" x="46.9238" y="29.1111" width="119" height="26"/>
<path d="M48.9027 49.1111L50.3516 31.6565H61.2948L61.1073 33.9236H52.7976L52.3544 39.2418H60.093L59.9055 41.5003H52.1669L51.7237 46.844H60.1357L59.9482 49.1111H48.9027ZM66.3551 41.3384L65.7074 49.1111H63.1591L64.25 36.0202H66.696L66.5256 38.1509H66.6875C67.0398 37.452 67.5568 36.8952 68.2386 36.4804C68.9205 36.0599 69.7528 35.8497 70.7358 35.8497C71.6278 35.8497 72.3921 36.0372 73.0284 36.4122C73.6648 36.7815 74.1392 37.3327 74.4517 38.0656C74.7642 38.7986 74.8778 39.7048 74.7926 40.7844L74.0938 49.1111H71.5369L72.2102 41.0912C72.2898 40.1423 72.1051 39.4009 71.6563 38.8668C71.2074 38.327 70.5511 38.0571 69.6875 38.0571C69.0909 38.0571 68.5511 38.1849 68.0682 38.4406C67.5909 38.6963 67.2017 39.0713 66.9006 39.5656C66.5994 40.0543 66.4176 40.6452 66.3551 41.3384ZM84.7046 36.0202L84.5426 38.0656H77.3921L77.554 36.0202H84.7046ZM79.7273 32.8838H82.2756L81.2443 45.2673C81.2046 45.7617 81.2472 46.1338 81.3722 46.3838C81.5028 46.6281 81.6818 46.7957 81.9091 46.8867C82.1421 46.9719 82.3977 47.0145 82.6761 47.0145C82.8807 47.0145 83.0597 47.0003 83.2131 46.9719C83.3665 46.9435 83.4858 46.9207 83.571 46.9037L83.8778 49.0088C83.7131 49.0656 83.4915 49.1224 83.2131 49.1793C82.9347 49.2418 82.5909 49.2759 82.1818 49.2815C81.5114 49.2929 80.8949 49.1736 80.3324 48.9236C79.7756 48.6736 79.3409 48.2872 79.0284 47.7645C78.7159 47.2418 78.5938 46.5855 78.6619 45.7957L79.7273 32.8838ZM91.9169 49.3753C90.6328 49.3753 89.5476 49.0997 88.6612 48.5486C87.7749 47.9918 87.1215 47.2105 86.701 46.2048C86.2862 45.1935 86.1357 44.0088 86.2493 42.6509C86.3629 41.3099 86.7124 40.1281 87.2976 39.1054C87.8828 38.0827 88.6527 37.2844 89.6073 36.7105C90.5618 36.1367 91.647 35.8497 92.8629 35.8497C93.6016 35.8497 94.3061 35.9719 94.9766 36.2162C95.6527 36.4605 96.2436 36.844 96.7493 37.3668C97.255 37.8895 97.6328 38.5685 97.8828 39.4037C98.1328 40.2332 98.2095 41.2418 98.1129 42.4293L98.0448 43.3327H87.63L87.7834 41.4236H95.6925C95.7493 40.7531 95.6641 40.1594 95.4368 39.6423C95.2095 39.1196 94.8629 38.7077 94.397 38.4065C93.9311 38.1054 93.3686 37.9548 92.7095 37.9548C92.005 37.9548 91.3715 38.131 90.809 38.4832C90.2521 38.8355 89.8033 39.2929 89.4624 39.8554C89.1215 40.4122 88.9254 41.0003 88.8743 41.6196L88.7209 43.2304C88.647 44.1452 88.7379 44.9009 88.9936 45.4974C89.255 46.094 89.6499 46.5401 90.1783 46.8355C90.7124 47.1253 91.3573 47.2702 92.1129 47.2702C92.6073 47.2702 93.059 47.202 93.468 47.0656C93.8771 46.9236 94.2351 46.7162 94.5419 46.4435C94.8544 46.1651 95.1044 45.8185 95.2919 45.4037L97.6698 45.8384C97.4141 46.5486 97.0163 47.1707 96.4766 47.7048C95.9368 48.2332 95.2805 48.6452 94.5078 48.9406C93.7351 49.2304 92.8715 49.3753 91.9169 49.3753ZM100.401 49.1111L101.492 36.0202H103.955L103.785 38.0997H103.921C104.211 37.3952 104.677 36.8412 105.319 36.4378C105.961 36.0287 106.665 35.8242 107.433 35.8242C107.592 35.8242 107.779 35.8298 107.995 35.8412C108.211 35.8469 108.384 35.8611 108.515 35.8838L108.31 38.3213C108.208 38.2929 108.026 38.2617 107.765 38.2276C107.509 38.1878 107.248 38.1679 106.981 38.1679C106.379 38.1679 105.833 38.2957 105.344 38.5514C104.856 38.8014 104.455 39.1509 104.143 39.5997C103.836 40.0429 103.657 40.5486 103.606 41.1168L102.95 49.1111H100.401ZM109.227 54.0202L110.735 36.0202H113.224L113.053 38.1423H113.266C113.437 37.8696 113.675 37.5543 113.982 37.1963C114.289 36.8384 114.701 36.5259 115.218 36.2588C115.741 35.9861 116.408 35.8497 117.221 35.8497C118.272 35.8497 119.187 36.1168 119.965 36.6509C120.749 37.1849 121.337 37.9548 121.729 38.9605C122.127 39.9662 122.266 41.1764 122.147 42.5912C122.033 44.006 121.698 45.219 121.141 46.2304C120.585 47.2361 119.871 48.0117 119.002 48.5571C118.133 49.0969 117.17 49.3668 116.113 49.3668C115.317 49.3668 114.678 49.2332 114.195 48.9662C113.718 48.6992 113.352 48.3867 113.096 48.0287C112.846 47.6707 112.653 47.3526 112.516 47.0742H112.363L111.783 54.0202H109.227ZM112.695 42.5656C112.621 43.4861 112.687 44.2929 112.891 44.9861C113.096 45.6793 113.437 46.2219 113.914 46.6139C114.391 47.0003 114.996 47.1935 115.729 47.1935C116.491 47.1935 117.141 46.9918 117.681 46.5884C118.227 46.1793 118.658 45.6253 118.977 44.9264C119.3 44.2276 119.499 43.4406 119.573 42.5656C119.641 41.702 119.576 40.9264 119.377 40.2389C119.178 39.5514 118.837 39.0088 118.354 38.6111C117.877 38.2134 117.255 38.0145 116.488 38.0145C115.749 38.0145 115.107 38.2048 114.562 38.5855C114.022 38.9662 113.593 39.4974 113.275 40.1793C112.962 40.8611 112.769 41.6565 112.695 42.5656ZM124.448 49.1111L125.539 36.0202H128.002L127.832 38.0997H127.968C128.258 37.3952 128.724 36.8412 129.366 36.4378C130.008 36.0287 130.712 35.8242 131.479 35.8242C131.639 35.8242 131.826 35.8298 132.042 35.8412C132.258 35.8469 132.431 35.8611 132.562 35.8838L132.357 38.3213C132.255 38.2929 132.073 38.2617 131.812 38.2276C131.556 38.1878 131.295 38.1679 131.028 38.1679C130.425 38.1679 129.88 38.2957 129.391 38.5514C128.903 38.8014 128.502 39.1509 128.19 39.5997C127.883 40.0429 127.704 40.5486 127.653 41.1168L126.996 49.1111H124.448ZM133.683 49.1111L134.773 36.0202H137.322L136.231 49.1111H133.683ZM136.316 33.9918C135.879 33.9918 135.504 33.844 135.191 33.5486C134.884 33.2474 134.737 32.8867 134.748 32.4662C134.754 32.0514 134.918 31.6963 135.242 31.4009C135.566 31.0997 135.95 30.9492 136.393 30.9492C136.83 30.9492 137.202 31.0997 137.509 31.4009C137.822 31.6963 137.972 32.0514 137.961 32.4662C137.955 32.8867 137.79 33.2474 137.467 33.5486C137.143 33.844 136.759 33.9918 136.316 33.9918ZM150.295 39.2162L147.952 39.6253C147.878 39.3298 147.75 39.0486 147.568 38.7815C147.386 38.5088 147.128 38.2901 146.793 38.1253C146.457 37.9548 146.026 37.8696 145.497 37.8696C144.77 37.8696 144.148 38.0344 143.631 38.3639C143.114 38.6878 142.838 39.1054 142.804 39.6168C142.764 40.0486 142.892 40.3952 143.188 40.6565C143.489 40.9179 143.991 41.1338 144.696 41.3043L146.741 41.7815C147.923 42.0599 148.787 42.4918 149.332 43.077C149.884 43.6622 150.119 44.4207 150.04 45.3526C149.977 46.1367 149.693 46.8327 149.188 47.4406C148.688 48.0429 148.023 48.5173 147.193 48.8639C146.369 49.2048 145.432 49.3753 144.381 49.3753C142.903 49.3753 141.724 49.0628 140.844 48.4378C139.969 47.8071 139.474 46.9122 139.361 45.7531L141.849 45.3781C141.952 46.0202 142.224 46.506 142.668 46.8355C143.116 47.1594 143.719 47.3213 144.474 47.3213C145.315 47.327 146.006 47.1509 146.545 46.7929C147.085 46.4349 147.372 46.0003 147.406 45.4889C147.446 45.0798 147.327 44.7418 147.048 44.4747C146.776 44.202 146.327 43.9946 145.702 43.8526L143.537 43.3582C142.332 43.0855 141.463 42.6423 140.929 42.0287C140.395 41.4094 140.168 40.6338 140.247 39.702C140.31 38.9349 140.58 38.2645 141.057 37.6906C141.534 37.1111 142.165 36.6594 142.949 36.3355C143.733 36.0117 144.616 35.8497 145.599 35.8497C147.02 35.8497 148.111 36.1565 148.872 36.7702C149.639 37.3781 150.114 38.1935 150.295 39.2162ZM158.151 49.3753C156.867 49.3753 155.782 49.0997 154.896 48.5486C154.009 47.9918 153.356 47.2105 152.935 46.2048C152.521 45.1935 152.37 44.0088 152.484 42.6509C152.597 41.3099 152.947 40.1281 153.532 39.1054C154.117 38.0827 154.887 37.2844 155.842 36.7105C156.796 36.1367 157.881 35.8497 159.097 35.8497C159.836 35.8497 160.54 35.9719 161.211 36.2162C161.887 36.4605 162.478 36.844 162.984 37.3668C163.489 37.8895 163.867 38.5685 164.117 39.4037C164.367 40.2332 164.444 41.2418 164.347 42.4293L164.279 43.3327H153.864L154.018 41.4236H161.927C161.984 40.7531 161.898 40.1594 161.671 39.6423C161.444 39.1196 161.097 38.7077 160.631 38.4065C160.165 38.1054 159.603 37.9548 158.944 37.9548C158.239 37.9548 157.606 38.131 157.043 38.4832C156.487 38.8355 156.038 39.2929 155.697 39.8554C155.356 40.4122 155.16 41.0003 155.109 41.6196L154.955 43.2304C154.881 44.1452 154.972 44.9009 155.228 45.4974C155.489 46.094 155.884 46.5401 156.413 46.8355C156.947 47.1253 157.592 47.2702 158.347 47.2702C158.842 47.2702 159.293 47.202 159.702 47.0656C160.112 46.9236 160.469 46.7162 160.776 46.4435C161.089 46.1651 161.339 45.8185 161.526 45.4037L163.904 45.8384C163.648 46.5486 163.251 47.1707 162.711 47.7048C162.171 48.2332 161.515 48.6452 160.742 48.9406C159.969 49.2304 159.106 49.3753 158.151 49.3753Z"/>
</mask>
<path d="M48.9027 49.1111L50.3516 31.6565H61.2948L61.1073 33.9236H52.7976L52.3544 39.2418H60.093L59.9055 41.5003H52.1669L51.7237 46.844H60.1357L59.9482 49.1111H48.9027ZM66.3551 41.3384L65.7074 49.1111H63.1591L64.25 36.0202H66.696L66.5256 38.1509H66.6875C67.0398 37.452 67.5568 36.8952 68.2386 36.4804C68.9205 36.0599 69.7528 35.8497 70.7358 35.8497C71.6278 35.8497 72.3921 36.0372 73.0284 36.4122C73.6648 36.7815 74.1392 37.3327 74.4517 38.0656C74.7642 38.7986 74.8778 39.7048 74.7926 40.7844L74.0938 49.1111H71.5369L72.2102 41.0912C72.2898 40.1423 72.1051 39.4009 71.6563 38.8668C71.2074 38.327 70.5511 38.0571 69.6875 38.0571C69.0909 38.0571 68.5511 38.1849 68.0682 38.4406C67.5909 38.6963 67.2017 39.0713 66.9006 39.5656C66.5994 40.0543 66.4176 40.6452 66.3551 41.3384ZM84.7046 36.0202L84.5426 38.0656H77.3921L77.554 36.0202H84.7046ZM79.7273 32.8838H82.2756L81.2443 45.2673C81.2046 45.7617 81.2472 46.1338 81.3722 46.3838C81.5028 46.6281 81.6818 46.7957 81.9091 46.8867C82.1421 46.9719 82.3977 47.0145 82.6761 47.0145C82.8807 47.0145 83.0597 47.0003 83.2131 46.9719C83.3665 46.9435 83.4858 46.9207 83.571 46.9037L83.8778 49.0088C83.7131 49.0656 83.4915 49.1224 83.2131 49.1793C82.9347 49.2418 82.5909 49.2759 82.1818 49.2815C81.5114 49.2929 80.8949 49.1736 80.3324 48.9236C79.7756 48.6736 79.3409 48.2872 79.0284 47.7645C78.7159 47.2418 78.5938 46.5855 78.6619 45.7957L79.7273 32.8838ZM91.9169 49.3753C90.6328 49.3753 89.5476 49.0997 88.6612 48.5486C87.7749 47.9918 87.1215 47.2105 86.701 46.2048C86.2862 45.1935 86.1357 44.0088 86.2493 42.6509C86.3629 41.3099 86.7124 40.1281 87.2976 39.1054C87.8828 38.0827 88.6527 37.2844 89.6073 36.7105C90.5618 36.1367 91.647 35.8497 92.8629 35.8497C93.6016 35.8497 94.3061 35.9719 94.9766 36.2162C95.6527 36.4605 96.2436 36.844 96.7493 37.3668C97.255 37.8895 97.6328 38.5685 97.8828 39.4037C98.1328 40.2332 98.2095 41.2418 98.1129 42.4293L98.0448 43.3327H87.63L87.7834 41.4236H95.6925C95.7493 40.7531 95.6641 40.1594 95.4368 39.6423C95.2095 39.1196 94.8629 38.7077 94.397 38.4065C93.9311 38.1054 93.3686 37.9548 92.7095 37.9548C92.005 37.9548 91.3715 38.131 90.809 38.4832C90.2521 38.8355 89.8033 39.2929 89.4624 39.8554C89.1215 40.4122 88.9254 41.0003 88.8743 41.6196L88.7209 43.2304C88.647 44.1452 88.7379 44.9009 88.9936 45.4974C89.255 46.094 89.6499 46.5401 90.1783 46.8355C90.7124 47.1253 91.3573 47.2702 92.1129 47.2702C92.6073 47.2702 93.059 47.202 93.468 47.0656C93.8771 46.9236 94.2351 46.7162 94.5419 46.4435C94.8544 46.1651 95.1044 45.8185 95.2919 45.4037L97.6698 45.8384C97.4141 46.5486 97.0163 47.1707 96.4766 47.7048C95.9368 48.2332 95.2805 48.6452 94.5078 48.9406C93.7351 49.2304 92.8715 49.3753 91.9169 49.3753ZM100.401 49.1111L101.492 36.0202H103.955L103.785 38.0997H103.921C104.211 37.3952 104.677 36.8412 105.319 36.4378C105.961 36.0287 106.665 35.8242 107.433 35.8242C107.592 35.8242 107.779 35.8298 107.995 35.8412C108.211 35.8469 108.384 35.8611 108.515 35.8838L108.31 38.3213C108.208 38.2929 108.026 38.2617 107.765 38.2276C107.509 38.1878 107.248 38.1679 106.981 38.1679C106.379 38.1679 105.833 38.2957 105.344 38.5514C104.856 38.8014 104.455 39.1509 104.143 39.5997C103.836 40.0429 103.657 40.5486 103.606 41.1168L102.95 49.1111H100.401ZM109.227 54.0202L110.735 36.0202H113.224L113.053 38.1423H113.266C113.437 37.8696 113.675 37.5543 113.982 37.1963C114.289 36.8384 114.701 36.5259 115.218 36.2588C115.741 35.9861 116.408 35.8497 117.221 35.8497C118.272 35.8497 119.187 36.1168 119.965 36.6509C120.749 37.1849 121.337 37.9548 121.729 38.9605C122.127 39.9662 122.266 41.1764 122.147 42.5912C122.033 44.006 121.698 45.219 121.141 46.2304C120.585 47.2361 119.871 48.0117 119.002 48.5571C118.133 49.0969 117.17 49.3668 116.113 49.3668C115.317 49.3668 114.678 49.2332 114.195 48.9662C113.718 48.6992 113.352 48.3867 113.096 48.0287C112.846 47.6707 112.653 47.3526 112.516 47.0742H112.363L111.783 54.0202H109.227ZM112.695 42.5656C112.621 43.4861 112.687 44.2929 112.891 44.9861C113.096 45.6793 113.437 46.2219 113.914 46.6139C114.391 47.0003 114.996 47.1935 115.729 47.1935C116.491 47.1935 117.141 46.9918 117.681 46.5884C118.227 46.1793 118.658 45.6253 118.977 44.9264C119.3 44.2276 119.499 43.4406 119.573 42.5656C119.641 41.702 119.576 40.9264 119.377 40.2389C119.178 39.5514 118.837 39.0088 118.354 38.6111C117.877 38.2134 117.255 38.0145 116.488 38.0145C115.749 38.0145 115.107 38.2048 114.562 38.5855C114.022 38.9662 113.593 39.4974 113.275 40.1793C112.962 40.8611 112.769 41.6565 112.695 42.5656ZM124.448 49.1111L125.539 36.0202H128.002L127.832 38.0997H127.968C128.258 37.3952 128.724 36.8412 129.366 36.4378C130.008 36.0287 130.712 35.8242 131.479 35.8242C131.639 35.8242 131.826 35.8298 132.042 35.8412C132.258 35.8469 132.431 35.8611 132.562 35.8838L132.357 38.3213C132.255 38.2929 132.073 38.2617 131.812 38.2276C131.556 38.1878 131.295 38.1679 131.028 38.1679C130.425 38.1679 129.88 38.2957 129.391 38.5514C128.903 38.8014 128.502 39.1509 128.19 39.5997C127.883 40.0429 127.704 40.5486 127.653 41.1168L126.996 49.1111H124.448ZM133.683 49.1111L134.773 36.0202H137.322L136.231 49.1111H133.683ZM136.316 33.9918C135.879 33.9918 135.504 33.844 135.191 33.5486C134.884 33.2474 134.737 32.8867 134.748 32.4662C134.754 32.0514 134.918 31.6963 135.242 31.4009C135.566 31.0997 135.95 30.9492 136.393 30.9492C136.83 30.9492 137.202 31.0997 137.509 31.4009C137.822 31.6963 137.972 32.0514 137.961 32.4662C137.955 32.8867 137.79 33.2474 137.467 33.5486C137.143 33.844 136.759 33.9918 136.316 33.9918ZM150.295 39.2162L147.952 39.6253C147.878 39.3298 147.75 39.0486 147.568 38.7815C147.386 38.5088 147.128 38.2901 146.793 38.1253C146.457 37.9548 146.026 37.8696 145.497 37.8696C144.77 37.8696 144.148 38.0344 143.631 38.3639C143.114 38.6878 142.838 39.1054 142.804 39.6168C142.764 40.0486 142.892 40.3952 143.188 40.6565C143.489 40.9179 143.991 41.1338 144.696 41.3043L146.741 41.7815C147.923 42.0599 148.787 42.4918 149.332 43.077C149.884 43.6622 150.119 44.4207 150.04 45.3526C149.977 46.1367 149.693 46.8327 149.188 47.4406C148.688 48.0429 148.023 48.5173 147.193 48.8639C146.369 49.2048 145.432 49.3753 144.381 49.3753C142.903 49.3753 141.724 49.0628 140.844 48.4378C139.969 47.8071 139.474 46.9122 139.361 45.7531L141.849 45.3781C141.952 46.0202 142.224 46.506 142.668 46.8355C143.116 47.1594 143.719 47.3213 144.474 47.3213C145.315 47.327 146.006 47.1509 146.545 46.7929C147.085 46.4349 147.372 46.0003 147.406 45.4889C147.446 45.0798 147.327 44.7418 147.048 44.4747C146.776 44.202 146.327 43.9946 145.702 43.8526L143.537 43.3582C142.332 43.0855 141.463 42.6423 140.929 42.0287C140.395 41.4094 140.168 40.6338 140.247 39.702C140.31 38.9349 140.58 38.2645 141.057 37.6906C141.534 37.1111 142.165 36.6594 142.949 36.3355C143.733 36.0117 144.616 35.8497 145.599 35.8497C147.02 35.8497 148.111 36.1565 148.872 36.7702C149.639 37.3781 150.114 38.1935 150.295 39.2162ZM158.151 49.3753C156.867 49.3753 155.782 49.0997 154.896 48.5486C154.009 47.9918 153.356 47.2105 152.935 46.2048C152.521 45.1935 152.37 44.0088 152.484 42.6509C152.597 41.3099 152.947 40.1281 153.532 39.1054C154.117 38.0827 154.887 37.2844 155.842 36.7105C156.796 36.1367 157.881 35.8497 159.097 35.8497C159.836 35.8497 160.54 35.9719 161.211 36.2162C161.887 36.4605 162.478 36.844 162.984 37.3668C163.489 37.8895 163.867 38.5685 164.117 39.4037C164.367 40.2332 164.444 41.2418 164.347 42.4293L164.279 43.3327H153.864L154.018 41.4236H161.927C161.984 40.7531 161.898 40.1594 161.671 39.6423C161.444 39.1196 161.097 38.7077 160.631 38.4065C160.165 38.1054 159.603 37.9548 158.944 37.9548C158.239 37.9548 157.606 38.131 157.043 38.4832C156.487 38.8355 156.038 39.2929 155.697 39.8554C155.356 40.4122 155.16 41.0003 155.109 41.6196L154.955 43.2304C154.881 44.1452 154.972 44.9009 155.228 45.4974C155.489 46.094 155.884 46.5401 156.413 46.8355C156.947 47.1253 157.592 47.2702 158.347 47.2702C158.842 47.2702 159.293 47.202 159.702 47.0656C160.112 46.9236 160.469 46.7162 160.776 46.4435C161.089 46.1651 161.339 45.8185 161.526 45.4037L163.904 45.8384C163.648 46.5486 163.251 47.1707 162.711 47.7048C162.171 48.2332 161.515 48.6452 160.742 48.9406C159.969 49.2304 159.106 49.3753 158.151 49.3753Z" fill="#DA8207"/>
<path d="M48.9027 49.1111L47.9061 49.0284L47.8163 50.1111H48.9027V49.1111ZM50.3516 31.6565V30.6565H49.4311L49.355 31.5738L50.3516 31.6565ZM61.2948 31.6565L62.2914 31.739L62.3809 30.6565H61.2948V31.6565ZM61.1073 33.9236V34.9236H62.028L62.1039 34.006L61.1073 33.9236ZM52.7976 33.9236V32.9236H51.8775L51.801 33.8405L52.7976 33.9236ZM52.3544 39.2418L51.3579 39.1587L51.2676 40.2418H52.3544V39.2418ZM60.093 39.2418L61.0896 39.3245L61.1795 38.2418H60.093V39.2418ZM59.9055 41.5003V42.5003H60.826L60.9021 41.583L59.9055 41.5003ZM52.1669 41.5003V40.5003H51.2464L51.1703 41.4176L52.1669 41.5003ZM51.7237 46.844L50.7272 46.7614L50.6374 47.844H51.7237V46.844ZM60.1357 46.844L61.1323 46.9265L61.2218 45.844H60.1357V46.844ZM59.9482 49.1111V50.1111H60.8689L60.9448 49.1935L59.9482 49.1111ZM48.9027 49.1111L49.8993 49.1938L51.3481 31.7393L50.3516 31.6565L49.355 31.5738L47.9061 49.0284L48.9027 49.1111ZM50.3516 31.6565V32.6565H61.2948V31.6565V30.6565H50.3516V31.6565ZM61.2948 31.6565L60.2982 31.5741L60.1107 33.8412L61.1073 33.9236L62.1039 34.006L62.2914 31.739L61.2948 31.6565ZM61.1073 33.9236V32.9236H52.7976V33.9236V34.9236H61.1073V33.9236ZM52.7976 33.9236L51.801 33.8405L51.3579 39.1587L52.3544 39.2418L53.351 39.3248L53.7941 34.0066L52.7976 33.9236ZM52.3544 39.2418V40.2418H60.093V39.2418V38.2418H52.3544V39.2418ZM60.093 39.2418L59.0965 39.159L58.909 41.4176L59.9055 41.5003L60.9021 41.583L61.0896 39.3245L60.093 39.2418ZM59.9055 41.5003V40.5003H52.1669V41.5003V42.5003H59.9055V41.5003ZM52.1669 41.5003L51.1703 41.4176L50.7272 46.7614L51.7237 46.844L52.7203 46.9267L53.1635 41.5829L52.1669 41.5003ZM51.7237 46.844V47.844H60.1357V46.844V45.844H51.7237V46.844ZM60.1357 46.844L59.1391 46.7616L58.9516 49.0287L59.9482 49.1111L60.9448 49.1935L61.1323 46.9265L60.1357 46.844ZM59.9482 49.1111V48.1111H48.9027V49.1111V50.1111H59.9482V49.1111ZM66.3551 41.3384L65.3591 41.2486L65.3586 41.2553L66.3551 41.3384ZM65.7074 49.1111V50.1111H66.6275L66.7039 49.1941L65.7074 49.1111ZM63.1591 49.1111L62.1626 49.028L62.0723 50.1111H63.1591V49.1111ZM64.25 36.0202V35.0202H63.3299L63.2535 35.9371L64.25 36.0202ZM66.696 36.0202L67.6928 36.0999L67.7792 35.0202H66.696V36.0202ZM66.5256 38.1509L65.5288 38.0711L65.4424 39.1509H66.5256V38.1509ZM66.6875 38.1509V39.1509H67.3033L67.5805 38.601L66.6875 38.1509ZM68.2386 36.4804L68.7584 37.3348L68.7635 37.3316L68.2386 36.4804ZM73.0284 36.4122L72.5207 37.2738L72.5265 37.2771L73.0284 36.4122ZM74.4517 38.0656L73.5318 38.4578L74.4517 38.0656ZM74.7926 40.7844L75.7891 40.868L75.7895 40.8631L74.7926 40.7844ZM74.0938 49.1111V50.1111H75.0133L75.0903 49.1947L74.0938 49.1111ZM71.5369 49.1111L70.5404 49.0274L70.4495 50.1111H71.5369V49.1111ZM72.2102 41.0912L73.2067 41.1749L73.2067 41.1747L72.2102 41.0912ZM71.6563 38.8668L70.8874 39.5062L70.8907 39.5101L71.6563 38.8668ZM68.0682 38.4406L67.6003 37.5568L67.596 37.5591L68.0682 38.4406ZM66.9006 39.5656L67.7519 40.0903L67.7546 40.0859L66.9006 39.5656ZM66.3551 41.3384L65.3586 41.2553L64.7108 49.028L65.7074 49.1111L66.7039 49.1941L67.3517 41.4214L66.3551 41.3384ZM65.7074 49.1111V48.1111H63.1591V49.1111V50.1111H65.7074V49.1111ZM63.1591 49.1111L64.1556 49.1941L65.2466 36.1032L64.25 36.0202L63.2535 35.9371L62.1626 49.028L63.1591 49.1111ZM64.25 36.0202V37.0202H66.696V36.0202V35.0202H64.25V36.0202ZM66.696 36.0202L65.6992 35.9404L65.5288 38.0711L66.5256 38.1509L67.5224 38.2306L67.6928 36.0999L66.696 36.0202ZM66.5256 38.1509V39.1509H66.6875V38.1509V37.1509H66.5256V38.1509ZM66.6875 38.1509L67.5805 38.601C67.8468 38.0725 68.233 37.6543 68.7584 37.3347L68.2386 36.4804L67.7189 35.6261C66.8807 36.136 66.2327 36.8314 65.7945 37.7007L66.6875 38.1509ZM68.2386 36.4804L68.7635 37.3316C69.2552 37.0284 69.8961 36.8497 70.7358 36.8497V35.8497V34.8497C69.6096 34.8497 68.5857 35.0915 67.7138 35.6292L68.2386 36.4804ZM70.7358 35.8497V36.8497C71.4864 36.8497 72.0673 37.0066 72.5207 37.2738L73.0284 36.4122L73.5361 35.5507C72.7168 35.0679 71.7693 34.8497 70.7358 34.8497V35.8497ZM73.0284 36.4122L72.5265 37.2771C72.9604 37.5289 73.2965 37.906 73.5318 38.4578L74.4517 38.0656L75.3716 37.6734C74.9819 36.7594 74.3692 36.0341 73.5304 35.5473L73.0284 36.4122ZM74.4517 38.0656L73.5318 38.4578C73.7624 38.9987 73.8726 39.732 73.7957 40.7057L74.7926 40.7844L75.7895 40.8631C75.8831 39.6777 75.766 38.5984 75.3716 37.6734L74.4517 38.0656ZM74.7926 40.7844L73.7961 40.7007L73.0973 49.0274L74.0938 49.1111L75.0903 49.1947L75.7891 40.868L74.7926 40.7844ZM74.0938 49.1111V48.1111H71.5369V49.1111V50.1111H74.0938V49.1111ZM71.5369 49.1111L72.5334 49.1947L73.2067 41.1749L72.2102 41.0912L71.2137 41.0075L70.5404 49.0274L71.5369 49.1111ZM72.2102 41.0912L73.2067 41.1747C73.3001 40.0609 73.0951 39.0245 72.4218 38.2234L71.6563 38.8668L70.8907 39.5101C71.1152 39.7772 71.2794 40.2238 71.2137 41.0077L72.2102 41.0912ZM71.6563 38.8668L72.4251 38.2274C71.7431 37.4072 70.7734 37.0571 69.6875 37.0571V38.0571V39.0571C70.3289 39.0571 70.6717 39.2468 70.8874 39.5062L71.6563 38.8668ZM69.6875 38.0571V37.0571C68.9431 37.0571 68.2403 37.218 67.6003 37.5568L68.0682 38.4406L68.5361 39.3244C68.8619 39.1519 69.2387 39.0571 69.6875 39.0571V38.0571ZM68.0682 38.4406L67.596 37.5591C66.9506 37.9049 66.4338 38.4097 66.0466 39.0454L66.9006 39.5656L67.7546 40.0859C67.9696 39.733 68.2312 39.4877 68.5404 39.3221L68.0682 38.4406ZM66.9006 39.5656L66.0493 39.041C65.6514 39.6865 65.4326 40.4335 65.3592 41.2486L66.3551 41.3384L67.3511 41.4282C67.4026 40.8568 67.5475 40.422 67.7519 40.0903L66.9006 39.5656ZM84.7046 36.0202L85.7014 36.0991L85.7868 35.0202H84.7046V36.0202ZM84.5426 38.0656V39.0656H85.4666L85.5395 38.1445L84.5426 38.0656ZM77.3921 38.0656L76.3952 37.9867L76.3098 39.0656H77.3921V38.0656ZM77.554 36.0202V35.0202H76.63L76.5571 35.9413L77.554 36.0202ZM79.7273 32.8838V31.8838H78.8064L78.7307 32.8016L79.7273 32.8838ZM82.2756 32.8838L83.2721 32.9668L83.3623 31.8838H82.2756V32.8838ZM81.2443 45.2673L80.2478 45.1843L80.2475 45.1871L81.2443 45.2673ZM81.3722 46.3838L80.4777 46.831L80.4839 46.8433L80.4904 46.8555L81.3722 46.3838ZM81.9091 46.8867L81.5377 47.8151L81.5515 47.8207L81.5655 47.8258L81.9091 46.8867ZM83.2131 46.9719L83.3952 47.9552L83.2131 46.9719ZM83.571 46.9037L84.5606 46.7595L84.4086 45.7164L83.3749 45.9231L83.571 46.9037ZM83.8778 49.0088L84.2038 49.9542L84.9868 49.6842L84.8674 48.8646L83.8778 49.0088ZM83.2131 49.1793L83.0131 48.1995L83.0036 48.2014L82.994 48.2036L83.2131 49.1793ZM82.1818 49.2815L82.1679 48.2816L82.1649 48.2817L82.1818 49.2815ZM80.3324 48.9236L79.9228 49.8359L79.9263 49.8374L80.3324 48.9236ZM79.0284 47.7645L79.8867 47.2514L79.0284 47.7645ZM78.6619 45.7957L79.6582 45.8818L79.6586 45.878L78.6619 45.7957ZM84.7046 36.0202L83.7077 35.9413L83.5457 37.9867L84.5426 38.0656L85.5395 38.1445L85.7014 36.0991L84.7046 36.0202ZM84.5426 38.0656V37.0656H77.3921V38.0656V39.0656H84.5426V38.0656ZM77.3921 38.0656L78.3889 38.1445L78.5509 36.0991L77.554 36.0202L76.5571 35.9413L76.3952 37.9867L77.3921 38.0656ZM77.554 36.0202V37.0202H84.7046V36.0202V35.0202H77.554V36.0202ZM79.7273 32.8838V33.8838H82.2756V32.8838V31.8838H79.7273V32.8838ZM82.2756 32.8838L81.279 32.8008L80.2478 45.1843L81.2443 45.2673L82.2409 45.3503L83.2721 32.9668L82.2756 32.8838ZM81.2443 45.2673L80.2475 45.1871C80.203 45.7413 80.2298 46.3352 80.4777 46.831L81.3722 46.3838L82.2666 45.9366C82.2708 45.9449 82.2522 45.9105 82.24 45.8034C82.228 45.6986 82.2249 45.5495 82.2411 45.3475L81.2443 45.2673ZM81.3722 46.3838L80.4904 46.8555C80.7165 47.2783 81.063 47.6253 81.5377 47.8151L81.9091 46.8867L82.2805 45.9582C82.2804 45.9581 82.2821 45.9588 82.2846 45.9604C82.2871 45.962 82.2883 45.9632 82.288 45.9629C82.2878 45.9627 82.2744 45.9503 82.254 45.9122L81.3722 46.3838ZM81.9091 46.8867L81.5655 47.8258C81.9212 47.9559 82.2948 48.0145 82.6761 48.0145V47.0145V46.0145C82.5007 46.0145 82.3629 45.9879 82.2527 45.9475L81.9091 46.8867ZM82.6761 47.0145V48.0145C82.9241 48.0145 83.1665 47.9975 83.3952 47.9552L83.2131 46.9719L83.031 45.9886C82.9528 46.0031 82.8373 46.0145 82.6761 46.0145V47.0145ZM83.2131 46.9719L83.3952 47.9552C83.5502 47.9264 83.675 47.9027 83.7671 47.8843L83.571 46.9037L83.3749 45.9231C83.2966 45.9388 83.1828 45.9605 83.031 45.9886L83.2131 46.9719ZM83.571 46.9037L82.5815 47.0479L82.8883 49.153L83.8778 49.0088L84.8674 48.8646L84.5606 46.7595L83.571 46.9037ZM83.8778 49.0088L83.5519 48.0634C83.4457 48.1 83.2718 48.1467 83.0131 48.1995L83.2131 49.1793L83.413 50.1591C83.7112 50.0982 83.9804 50.0312 84.2038 49.9542L83.8778 49.0088ZM83.2131 49.1793L82.994 48.2036C82.805 48.246 82.535 48.2765 82.1679 48.2816L82.1818 49.2815L82.1957 50.2814C82.6468 50.2752 83.0643 50.2376 83.4321 50.155L83.2131 49.1793ZM82.1818 49.2815L82.1649 48.2817C81.6269 48.2908 81.1564 48.1955 80.7385 48.0098L80.3324 48.9236L79.9263 49.8374C80.6334 50.1517 81.3959 50.295 82.1988 50.2814L82.1818 49.2815ZM80.3324 48.9236L80.742 48.0113C80.3717 47.845 80.0938 47.5978 79.8867 47.2514L79.0284 47.7645L78.1701 48.2776C78.588 48.9766 79.1795 49.5021 79.9228 49.8359L80.3324 48.9236ZM79.0284 47.7645L79.8867 47.2514C79.7104 46.9564 79.6027 46.5252 79.6582 45.8818L78.6619 45.7957L77.6656 45.7097C77.5848 46.6458 77.7214 47.5271 78.1701 48.2776L79.0284 47.7645ZM78.6619 45.7957L79.6586 45.878L80.7239 32.966L79.7273 32.8838L78.7307 32.8016L77.6653 45.7135L78.6619 45.7957ZM88.6612 48.5486L88.1293 49.3954L88.1332 49.3978L88.6612 48.5486ZM86.701 46.2048L85.7758 46.5843L85.7784 46.5906L86.701 46.2048ZM86.2493 42.6509L85.2529 42.5664L85.2528 42.5675L86.2493 42.6509ZM87.2976 39.1054L86.4296 38.6087L87.2976 39.1054ZM89.6073 36.7105L89.092 35.8535L89.6073 36.7105ZM94.9766 36.2162L94.6342 37.1558L94.6367 37.1567L94.9766 36.2162ZM96.7493 37.3668L96.0306 38.0621L96.7493 37.3668ZM97.8828 39.4037L96.9248 39.6904L96.9254 39.6922L97.8828 39.4037ZM98.1129 42.4293L97.1162 42.3482L97.1158 42.354L98.1129 42.4293ZM98.0448 43.3327V44.3327H98.9721L99.0419 43.4079L98.0448 43.3327ZM87.63 43.3327L86.6332 43.2526L86.5464 44.3327H87.63V43.3327ZM87.7834 41.4236V40.4236H86.8605L86.7866 41.3435L87.7834 41.4236ZM95.6925 41.4236V42.4236H96.6113L96.6889 41.508L95.6925 41.4236ZM95.4368 39.6423L94.5197 40.0411L94.5213 40.0447L95.4368 39.6423ZM94.397 38.4065L94.9399 37.5667V37.5667L94.397 38.4065ZM90.809 38.4832L90.2782 37.6357L90.2743 37.6382L90.809 38.4832ZM89.4624 39.8554L90.3152 40.3776L90.3176 40.3737L89.4624 39.8554ZM88.8743 41.6196L89.8699 41.7144L89.8709 41.7019L88.8743 41.6196ZM88.7209 43.2304L87.7254 43.1356L87.7247 43.1428L87.7241 43.1499L88.7209 43.2304ZM88.9936 45.4974L88.0744 45.8914L88.0777 45.8987L88.9936 45.4974ZM90.1783 46.8355L89.6902 47.7084L89.7014 47.7145L90.1783 46.8355ZM93.468 47.0656L93.7843 48.0144L93.7961 48.0103L93.468 47.0656ZM94.5419 46.4435L95.2063 47.1909L95.2071 47.1901L94.5419 46.4435ZM95.2919 45.4037L95.4717 44.42L94.7027 44.2794L94.3807 44.9918L95.2919 45.4037ZM97.6698 45.8384L98.6106 46.1771L99.0103 45.0668L97.8496 44.8547L97.6698 45.8384ZM96.4766 47.7048L97.1761 48.4194L97.1799 48.4157L96.4766 47.7048ZM94.5078 48.9406L94.859 49.877L94.865 49.8747L94.5078 48.9406ZM91.9169 49.3753V48.3753C90.7765 48.3753 89.8842 48.1315 89.1893 47.6994L88.6612 48.5486L88.1332 49.3978C89.211 50.068 90.4892 50.3753 91.9169 50.3753V49.3753ZM88.6612 48.5486L89.1932 47.7018C88.489 47.2594 87.968 46.6429 87.6236 45.8191L86.701 46.2048L85.7784 46.5906C86.2749 47.7782 87.0607 48.7241 88.1293 49.3954L88.6612 48.5486ZM86.701 46.2048L87.6262 45.8254C87.2845 44.9922 87.1422 43.9726 87.2458 42.7342L86.2493 42.6509L85.2528 42.5675C85.1291 44.0451 85.288 45.3948 85.7758 46.5843L86.701 46.2048ZM86.2493 42.6509L87.2457 42.7353C87.3488 41.5189 87.6623 40.4816 88.1655 39.6021L87.2976 39.1054L86.4296 38.6087C85.7625 39.7747 85.3771 41.101 85.2529 42.5664L86.2493 42.6509ZM87.2976 39.1054L88.1655 39.6021C88.671 38.7187 89.3229 38.0483 90.1225 37.5676L89.6073 36.7105L89.092 35.8535C87.9825 36.5205 87.0946 37.4466 86.4296 38.6087L87.2976 39.1054ZM89.6073 36.7105L90.1225 37.5676C90.9073 37.0957 91.8114 36.8497 92.8629 36.8497V35.8497V34.8497C91.4827 34.8497 90.2163 35.1776 89.092 35.8535L89.6073 36.7105ZM92.8629 35.8497V36.8497C93.4889 36.8497 94.0773 36.9528 94.6342 37.1558L94.9766 36.2162L95.319 35.2766C94.5349 34.9909 93.7142 34.8497 92.8629 34.8497V35.8497ZM94.9766 36.2162L94.6367 37.1567C95.1678 37.3486 95.6296 37.6475 96.0306 38.0621L96.7493 37.3668L97.468 36.6715C96.8577 36.0405 96.1376 35.5724 95.3164 35.2757L94.9766 36.2162ZM96.7493 37.3668L96.0306 38.0621C96.4049 38.449 96.7117 38.9783 96.9248 39.6904L97.8828 39.4037L98.8408 39.1169C98.554 38.1586 98.1051 37.33 97.468 36.6715L96.7493 37.3668ZM97.8828 39.4037L96.9254 39.6922C97.1285 40.3664 97.2062 41.2417 97.1162 42.3482L98.1129 42.4293L99.1096 42.5103C99.2128 41.2418 99.1371 40.1001 98.8403 39.1151L97.8828 39.4037ZM98.1129 42.4293L97.1158 42.354L97.0476 43.2574L98.0448 43.3327L99.0419 43.4079L99.1101 42.5045L98.1129 42.4293ZM98.0448 43.3327V42.3327H87.63V43.3327V44.3327H98.0448V43.3327ZM87.63 43.3327L88.6268 43.4128L88.7802 41.5037L87.7834 41.4236L86.7866 41.3435L86.6332 43.2526L87.63 43.3327ZM87.7834 41.4236V42.4236H95.6925V41.4236V40.4236H87.7834V41.4236ZM95.6925 41.4236L96.6889 41.508C96.7571 40.7029 96.6585 39.9367 96.3523 39.2399L95.4368 39.6423L94.5213 40.0447C94.6696 40.382 94.7415 40.8034 94.6961 41.3391L95.6925 41.4236ZM95.4368 39.6423L96.3539 39.2436C96.0503 38.5454 95.576 37.9779 94.9399 37.5667L94.397 38.4065L93.8542 39.2464C94.1499 39.4375 94.3687 39.6938 94.5197 40.0411L95.4368 39.6423ZM94.397 38.4065L94.9399 37.5667C94.2839 37.1427 93.5244 36.9548 92.7095 36.9548V37.9548V38.9548C93.2128 38.9548 93.5784 39.0681 93.8542 39.2464L94.397 38.4065ZM92.7095 37.9548V36.9548C91.8293 36.9548 91.0097 37.1776 90.2782 37.6357L90.809 38.4832L91.3397 39.3308C91.7332 39.0843 92.1806 38.9548 92.7095 38.9548V37.9548ZM90.809 38.4832L90.2743 37.6382C89.5871 38.073 89.0284 38.6421 88.6072 39.3371L89.4624 39.8554L90.3176 40.3737C90.5782 39.9437 90.9172 39.5981 91.3436 39.3283L90.809 38.4832ZM89.4624 39.8554L88.6095 39.3332C88.1912 40.0165 87.9423 40.7542 87.8777 41.5373L88.8743 41.6196L89.8709 41.7019C89.9085 41.2463 90.0517 40.808 90.3152 40.3776L89.4624 39.8554ZM88.8743 41.6196L87.8788 41.5248L87.7254 43.1356L88.7209 43.2304L89.7164 43.3252L89.8698 41.7144L88.8743 41.6196ZM88.7209 43.2304L87.7241 43.1499C87.6423 44.1637 87.7337 45.0963 88.0745 45.8914L88.9936 45.4974L89.9128 45.1035C89.7421 44.7054 89.6518 44.1266 89.7176 43.3109L88.7209 43.2304ZM88.9936 45.4974L88.0777 45.8987C88.4194 46.6788 88.9568 47.2983 89.6902 47.7083L90.1783 46.8355L90.6663 45.9627C90.3429 45.7819 90.0905 45.5093 89.9096 45.0962L88.9936 45.4974ZM90.1783 46.8355L89.7014 47.7145C90.4134 48.1008 91.2306 48.2702 92.1129 48.2702V47.2702V46.2702C91.4839 46.2702 91.0113 46.1498 90.6552 45.9566L90.1783 46.8355ZM92.1129 47.2702V48.2702C92.6993 48.2702 93.2595 48.1892 93.7843 48.0143L93.468 47.0656L93.1518 46.1169C92.8584 46.2148 92.5152 46.2702 92.1129 46.2702V47.2702ZM93.468 47.0656L93.7961 48.0103C94.3222 47.8276 94.796 47.5555 95.2063 47.1909L94.5419 46.4435L93.8775 45.6961C93.6741 45.8769 93.4321 46.0196 93.14 46.121L93.468 47.0656ZM94.5419 46.4435L95.2071 47.1901C95.633 46.8107 95.9631 46.3467 96.2031 45.8156L95.2919 45.4037L94.3807 44.9918C94.2458 45.2903 94.0758 45.5194 93.8767 45.6968L94.5419 46.4435ZM95.2919 45.4037L95.1121 46.3874L97.4899 46.8221L97.6698 45.8384L97.8496 44.8547L95.4717 44.42L95.2919 45.4037ZM97.6698 45.8384L96.7289 45.4996C96.524 46.0688 96.2077 46.5641 95.7732 46.994L96.4766 47.7048L97.1799 48.4157C97.825 47.7774 98.3042 47.0284 98.6106 46.1771L97.6698 45.8384ZM96.4766 47.7048L95.777 46.9902C95.3441 47.414 94.8077 47.7554 94.1507 48.0066L94.5078 48.9406L94.865 49.8747C95.7534 49.535 96.5295 49.0525 97.1761 48.4194L96.4766 47.7048ZM94.5078 48.9406L94.1567 48.0043C93.5123 48.2459 92.77 48.3753 91.9169 48.3753V49.3753V50.3753C92.9729 50.3753 93.9578 50.2149 94.8589 49.877L94.5078 48.9406ZM100.401 49.1111L99.4047 49.028L99.3145 50.1111H100.401V49.1111ZM101.492 36.0202V35.0202H100.572L100.496 35.9371L101.492 36.0202ZM103.955 36.0202L104.952 36.1019L105.041 35.0202H103.955V36.0202ZM103.785 38.0997L102.788 38.018L102.699 39.0997H103.785V38.0997ZM103.921 38.0997V39.0997H104.591L104.846 38.4801L103.921 38.0997ZM105.319 36.4378L105.851 37.2845L105.856 37.2811L105.319 36.4378ZM107.995 35.8412L107.942 36.8398L107.956 36.8405L107.969 36.8409L107.995 35.8412ZM108.515 35.8838L109.511 35.9674L109.588 35.0554L108.686 34.8986L108.515 35.8838ZM108.31 38.3213L108.043 39.2848L109.206 39.6079L109.307 38.4049L108.31 38.3213ZM107.765 38.2276L107.611 39.2157L107.623 39.2176L107.636 39.2192L107.765 38.2276ZM105.344 38.5514L105.8 39.4417L105.808 39.4375L105.344 38.5514ZM104.143 39.5997L103.322 39.0283L103.321 39.0305L104.143 39.5997ZM103.606 41.1168L102.61 41.0271L102.609 41.035L103.606 41.1168ZM102.95 49.1111V50.1111H103.871L103.946 49.1929L102.95 49.1111ZM100.401 49.1111L101.398 49.1941L102.489 36.1032L101.492 36.0202L100.496 35.9371L99.4047 49.028L100.401 49.1111ZM101.492 36.0202V37.0202H103.955V36.0202V35.0202H101.492V36.0202ZM103.955 36.0202L102.959 35.9385L102.788 38.018L103.785 38.0997L104.781 38.1814L104.952 36.1019L103.955 36.0202ZM103.785 38.0997V39.0997H103.921V38.0997V37.0997H103.785V38.0997ZM103.921 38.0997L104.846 38.4801C105.057 37.9671 105.386 37.5766 105.851 37.2845L105.319 36.4378L104.787 35.5911C103.968 36.1058 103.365 36.8232 102.996 37.7193L103.921 38.0997ZM105.319 36.4378L105.856 37.2811C106.336 36.9752 106.854 36.8242 107.433 36.8242V35.8242V34.8242C106.477 34.8242 105.585 35.0822 104.782 35.5944L105.319 36.4378ZM107.433 35.8242V36.8242C107.569 36.8242 107.738 36.8291 107.942 36.8398L107.995 35.8412L108.048 34.8426C107.82 34.8306 107.614 34.8242 107.433 34.8242V35.8242ZM107.995 35.8412L107.969 36.8409C108.162 36.8459 108.281 36.8582 108.344 36.869L108.515 35.8838L108.686 34.8986C108.487 34.864 108.26 34.8478 108.021 34.8415L107.995 35.8412ZM108.515 35.8838L107.518 35.8002L107.314 38.2377L108.31 38.3213L109.307 38.4049L109.511 35.9674L108.515 35.8838ZM108.31 38.3213L108.578 37.3578C108.4 37.3083 108.154 37.2698 107.894 37.236L107.765 38.2276L107.636 39.2192C107.758 39.2351 107.855 39.2495 107.928 39.2621C107.964 39.2684 107.992 39.2738 108.013 39.2781C108.035 39.2827 108.044 39.2851 108.043 39.2848L108.31 38.3213ZM107.765 38.2276L107.919 37.2394C107.61 37.1915 107.298 37.1679 106.981 37.1679V38.1679V39.1679C107.198 39.1679 107.408 39.1841 107.611 39.2157L107.765 38.2276ZM106.981 38.1679V37.1679C106.232 37.1679 105.525 37.3281 104.881 37.6654L105.344 38.5514L105.808 39.4375C106.141 39.2634 106.525 39.1679 106.981 39.1679V38.1679ZM105.344 38.5514L104.889 37.6612C104.255 37.9856 103.729 38.4443 103.322 39.0284L104.143 39.5997L104.963 40.1711C105.182 39.8574 105.457 39.6172 105.8 39.4417L105.344 38.5514ZM104.143 39.5997L103.321 39.0305C102.91 39.6242 102.676 40.2972 102.61 41.0271L103.606 41.1168L104.602 41.2064C104.638 40.8 104.762 40.4616 104.965 40.1689L104.143 39.5997ZM103.606 41.1168L102.609 41.035L101.953 49.0293L102.95 49.1111L103.946 49.1929L104.602 41.1986L103.606 41.1168ZM102.95 49.1111V48.1111H100.401V49.1111V50.1111H102.95V49.1111ZM109.227 54.0202L108.23 53.9367L108.139 55.0202H109.227V54.0202ZM110.735 36.0202V35.0202H109.815L109.739 35.9367L110.735 36.0202ZM113.224 36.0202L114.221 36.1002L114.307 35.0202H113.224V36.0202ZM113.053 38.1423L112.056 38.0623L111.97 39.1423H113.053V38.1423ZM113.266 38.1423V39.1423H113.821L114.114 38.6723L113.266 38.1423ZM113.982 37.1963L114.742 37.8471V37.8471L113.982 37.1963ZM115.218 36.2588L115.677 37.1473L115.681 37.1454L115.218 36.2588ZM119.965 36.6509L119.399 37.4754L119.402 37.4773L119.965 36.6509ZM121.729 38.9605L120.798 39.3237L120.799 39.3283L121.729 38.9605ZM122.147 42.5912L121.151 42.5072L121.15 42.5111L122.147 42.5912ZM121.141 46.2304L122.016 46.7148L122.017 46.7127L121.141 46.2304ZM119.002 48.5571L119.53 49.4067L119.534 49.4042L119.002 48.5571ZM114.195 48.9662L113.707 49.8389L113.711 49.8413L114.195 48.9662ZM113.096 48.0287L112.276 48.6013L112.282 48.6099L113.096 48.0287ZM112.516 47.0742L113.414 46.6343L113.14 46.0742H112.516V47.0742ZM112.363 47.0742V46.0742H111.443L111.366 46.991L112.363 47.0742ZM111.783 54.0202V55.0202H112.703L112.78 54.1033L111.783 54.0202ZM112.695 42.5656L111.699 42.4846L111.699 42.4856L112.695 42.5656ZM112.891 44.9861L111.932 45.2691L112.891 44.9861ZM113.914 46.6139L113.279 47.3867L113.285 47.3912L113.914 46.6139ZM117.681 46.5884L118.28 47.3894L118.281 47.3884L117.681 46.5884ZM118.977 44.9264L118.069 44.506L118.066 44.5121L118.977 44.9264ZM119.573 42.5656L120.57 42.6497L120.57 42.6443L119.573 42.5656ZM118.354 38.6111L117.714 39.3793L117.719 39.383L118.354 38.6111ZM114.562 38.5855L113.989 37.7655L113.985 37.7683L114.562 38.5855ZM113.275 40.1793L112.369 39.7564L112.366 39.7626L113.275 40.1793ZM109.227 54.0202L110.223 54.1037L111.732 36.1037L110.735 36.0202L109.739 35.9367L108.23 53.9367L109.227 54.0202ZM110.735 36.0202V37.0202H113.224V36.0202V35.0202H110.735V36.0202ZM113.224 36.0202L112.227 35.9401L112.056 38.0623L113.053 38.1423L114.05 38.2224L114.221 36.1002L113.224 36.0202ZM113.053 38.1423V39.1423H113.266V38.1423V37.1423H113.053V38.1423ZM113.266 38.1423L114.114 38.6723C114.249 38.4566 114.454 38.1828 114.742 37.8471L113.982 37.1963L113.223 36.5455C112.897 36.9257 112.624 37.2826 112.418 37.6123L113.266 38.1423ZM113.982 37.1963L114.742 37.8471C114.947 37.607 115.248 37.3686 115.677 37.1473L115.218 36.2588L114.759 35.3703C114.154 35.6831 113.631 36.0697 113.223 36.5455L113.982 37.1963ZM115.218 36.2588L115.681 37.1454C116.017 36.9699 116.512 36.8497 117.221 36.8497V35.8497V34.8497C116.305 34.8497 115.465 35.0022 114.755 35.3722L115.218 36.2588ZM117.221 35.8497V36.8497C118.094 36.8497 118.806 37.0684 119.399 37.4754L119.965 36.6509L120.531 35.8263C119.567 35.1651 118.45 34.8497 117.221 34.8497V35.8497ZM119.965 36.6509L119.402 37.4773C119.997 37.8826 120.469 38.4793 120.798 39.3237L121.729 38.9605L122.661 38.5973C122.206 37.4303 121.501 36.4873 120.528 35.8244L119.965 36.6509ZM121.729 38.9605L120.799 39.3283C121.126 40.1529 121.261 41.1999 121.151 42.5072L122.147 42.5912L123.143 42.6752C123.272 41.1529 123.129 39.7795 122.659 38.5928L121.729 38.9605ZM122.147 42.5912L121.15 42.5111C121.045 43.8164 120.74 44.8858 120.265 45.7481L121.141 46.2304L122.017 46.7127C122.656 45.5523 123.021 44.1956 123.144 42.6713L122.147 42.5912ZM121.141 46.2304L120.266 45.746C119.782 46.6218 119.18 47.2649 118.471 47.71L119.002 48.5571L119.534 49.4042C120.563 48.7584 121.387 47.8504 122.016 46.7148L121.141 46.2304ZM119.002 48.5571L118.475 47.7076C117.769 48.1457 116.99 48.3668 116.113 48.3668V49.3668V50.3668C117.35 50.3668 118.497 50.0481 119.53 49.4067L119.002 48.5571ZM116.113 49.3668V48.3668C115.417 48.3668 114.963 48.248 114.679 48.0911L114.195 48.9662L113.711 49.8413C114.394 50.2185 115.218 50.3668 116.113 50.3668V49.3668ZM114.195 48.9662L114.684 48.0935C114.304 47.8814 114.061 47.6599 113.91 47.4475L113.096 48.0287L112.282 48.6099C112.642 49.1134 113.132 49.5169 113.707 49.8389L114.195 48.9662ZM113.096 48.0287L113.916 47.4561C113.684 47.1247 113.521 46.8521 113.414 46.6343L112.516 47.0742L111.618 47.514C111.784 47.853 112.007 48.2167 112.276 48.6013L113.096 48.0287ZM112.516 47.0742V46.0742H112.363V47.0742V48.0742H112.516V47.0742ZM112.363 47.0742L111.366 46.991L110.787 53.937L111.783 54.0202L112.78 54.1033L113.359 47.1573L112.363 47.0742ZM111.783 54.0202V53.0202H109.227V54.0202V55.0202H111.783V54.0202ZM112.695 42.5656L111.699 42.4856C111.617 43.4959 111.685 44.4306 111.932 45.2691L112.891 44.9861L113.85 44.7031C113.689 44.1552 113.625 43.4762 113.692 42.6456L112.695 42.5656ZM112.891 44.9861L111.932 45.2691C112.184 46.1208 112.622 46.847 113.279 47.3867L113.914 46.6139L114.549 45.8412C114.251 45.5967 114.008 45.2377 113.85 44.7031L112.891 44.9861ZM113.914 46.6139L113.285 47.3912C113.973 47.9482 114.814 48.1935 115.729 48.1935V47.1935V46.1935C115.179 46.1935 114.81 46.0524 114.543 45.8367L113.914 46.6139ZM115.729 47.1935V48.1935C116.677 48.1935 117.545 47.9385 118.28 47.3894L117.681 46.5884L117.082 45.7873C116.738 46.045 116.304 46.1935 115.729 46.1935V47.1935ZM117.681 46.5884L118.281 47.3884C118.977 46.8666 119.508 46.1726 119.887 45.3408L118.977 44.9264L118.066 44.5121C117.809 45.078 117.476 45.4919 117.081 45.7884L117.681 46.5884ZM118.977 44.9264L119.884 45.3469C120.263 44.5282 120.487 43.6251 120.57 42.6497L119.573 42.5656L118.577 42.4815C118.511 43.2562 118.338 43.9269 118.069 44.506L118.977 44.9264ZM119.573 42.5656L120.57 42.6443C120.646 41.6852 120.576 40.7858 120.338 39.9611L119.377 40.2389L118.417 40.5168C118.576 41.0671 118.637 41.7188 118.576 42.4869L119.573 42.5656ZM119.377 40.2389L120.338 39.9611C120.091 39.1087 119.65 38.3829 118.99 37.8392L118.354 38.6111L117.719 39.383C118.024 39.6348 118.265 39.9942 118.417 40.5168L119.377 40.2389ZM118.354 38.6111L118.995 37.8429C118.298 37.2627 117.432 37.0145 116.488 37.0145V38.0145V39.0145C117.078 39.0145 117.456 39.164 117.714 39.3793L118.354 38.6111ZM116.488 38.0145V37.0145C115.568 37.0145 114.721 37.2548 113.989 37.7655L114.562 38.5855L115.134 39.4056C115.493 39.1548 115.93 39.0145 116.488 39.0145V38.0145ZM114.562 38.5855L113.985 37.7683C113.284 38.2627 112.75 38.939 112.369 39.7564L113.275 40.1793L114.181 40.6022C114.436 40.0559 114.76 39.6696 115.138 39.4027L114.562 38.5855ZM113.275 40.1793L112.366 39.7626C111.996 40.5705 111.78 41.4837 111.699 42.4846L112.695 42.5656L113.692 42.6466C113.758 41.8294 113.929 41.1517 114.184 40.5959L113.275 40.1793ZM124.448 49.1111L123.452 49.028L123.361 50.1111H124.448V49.1111ZM125.539 36.0202V35.0202H124.619L124.543 35.9371L125.539 36.0202ZM128.002 36.0202L128.999 36.1019L129.087 35.0202H128.002V36.0202ZM127.832 38.0997L126.835 38.018L126.746 39.0997H127.832V38.0997ZM127.968 38.0997V39.0997H128.638L128.893 38.4801L127.968 38.0997ZM129.366 36.4378L129.898 37.2845L129.903 37.2811L129.366 36.4378ZM132.042 35.8412L131.989 36.8398L132.002 36.8405L132.016 36.8409L132.042 35.8412ZM132.562 35.8838L133.558 35.9674L133.635 35.0554L132.733 34.8986L132.562 35.8838ZM132.357 38.3213L132.09 39.2848L133.253 39.6079L133.354 38.4049L132.357 38.3213ZM131.812 38.2276L131.658 39.2157L131.67 39.2176L131.682 39.2192L131.812 38.2276ZM129.391 38.5514L129.847 39.4417L129.855 39.4375L129.391 38.5514ZM128.19 39.5997L127.369 39.0283L127.367 39.0305L128.19 39.5997ZM127.653 41.1168L126.657 41.0271L126.656 41.035L127.653 41.1168ZM126.996 49.1111V50.1111H127.918L127.993 49.1929L126.996 49.1111ZM124.448 49.1111L125.445 49.1941L126.536 36.1032L125.539 36.0202L124.543 35.9371L123.452 49.028L124.448 49.1111ZM125.539 36.0202V37.0202H128.002V36.0202V35.0202H125.539V36.0202ZM128.002 36.0202L127.005 35.9385L126.835 38.018L127.832 38.0997L128.828 38.1814L128.999 36.1019L128.002 36.0202ZM127.832 38.0997V39.0997H127.968V38.0997V37.0997H127.832V38.0997ZM127.968 38.0997L128.893 38.4801C129.104 37.9671 129.433 37.5766 129.898 37.2845L129.366 36.4378L128.834 35.5911C128.015 36.1058 127.412 36.8232 127.043 37.7193L127.968 38.0997ZM129.366 36.4378L129.903 37.2811C130.383 36.9752 130.901 36.8242 131.479 36.8242V35.8242V34.8242C130.524 34.8242 129.632 35.0822 128.828 35.5944L129.366 36.4378ZM131.479 35.8242V36.8242C131.616 36.8242 131.785 36.8291 131.989 36.8398L132.042 35.8412L132.094 34.8426C131.867 34.8306 131.661 34.8242 131.479 34.8242V35.8242ZM132.042 35.8412L132.016 36.8409C132.209 36.8459 132.328 36.8582 132.39 36.869L132.562 35.8838L132.733 34.8986C132.534 34.864 132.307 34.8478 132.068 34.8415L132.042 35.8412ZM132.562 35.8838L131.565 35.8002L131.361 38.2377L132.357 38.3213L133.354 38.4049L133.558 35.9674L132.562 35.8838ZM132.357 38.3213L132.625 37.3578C132.447 37.3083 132.201 37.2698 131.941 37.236L131.812 38.2276L131.682 39.2192C131.805 39.2351 131.901 39.2495 131.975 39.2621C132.011 39.2684 132.039 39.2738 132.06 39.2781C132.082 39.2827 132.09 39.2851 132.09 39.2848L132.357 38.3213ZM131.812 38.2276L131.966 37.2394C131.657 37.1915 131.345 37.1679 131.028 37.1679V38.1679V39.1679C131.245 39.1679 131.455 39.1841 131.658 39.2157L131.812 38.2276ZM131.028 38.1679V37.1679C130.279 37.1679 129.572 37.3281 128.928 37.6654L129.391 38.5514L129.855 39.4375C130.188 39.2634 130.572 39.1679 131.028 39.1679V38.1679ZM129.391 38.5514L128.936 37.6612C128.302 37.9856 127.776 38.4443 127.369 39.0284L128.19 39.5997L129.01 40.1711C129.229 39.8574 129.504 39.6172 129.847 39.4417L129.391 38.5514ZM128.19 39.5997L127.367 39.0305C126.956 39.6242 126.722 40.2972 126.657 41.0271L127.653 41.1168L128.649 41.2064C128.685 40.8 128.809 40.4616 129.012 40.1689L128.19 39.5997ZM127.653 41.1168L126.656 41.035L126 49.0293L126.996 49.1111L127.993 49.1929L128.649 41.1986L127.653 41.1168ZM126.996 49.1111V48.1111H124.448V49.1111V50.1111H126.996V49.1111ZM133.683 49.1111L132.686 49.028L132.596 50.1111H133.683V49.1111ZM134.773 36.0202V35.0202H133.853L133.777 35.9371L134.773 36.0202ZM137.322 36.0202L138.318 36.1032L138.409 35.0202H137.322V36.0202ZM136.231 49.1111V50.1111H137.151L137.227 49.1941L136.231 49.1111ZM135.191 33.5486L134.491 34.2623L134.497 34.2688L134.504 34.2752L135.191 33.5486ZM134.748 32.4662L135.748 32.4932L135.748 32.4799L134.748 32.4662ZM135.242 31.4009L135.916 32.1397L135.923 32.1332L135.242 31.4009ZM137.509 31.4009L136.809 32.1145L136.815 32.1211L136.822 32.1275L137.509 31.4009ZM137.961 32.4662L136.961 32.4388L136.961 32.4527L137.961 32.4662ZM137.467 33.5486L138.141 34.2874L138.148 34.2809L137.467 33.5486ZM133.683 49.1111L134.679 49.1941L135.77 36.1032L134.773 36.0202L133.777 35.9371L132.686 49.028L133.683 49.1111ZM134.773 36.0202V37.0202H137.322V36.0202V35.0202H134.773V36.0202ZM137.322 36.0202L136.325 35.9371L135.234 49.028L136.231 49.1111L137.227 49.1941L138.318 36.1032L137.322 36.0202ZM136.231 49.1111V48.1111H133.683V49.1111V50.1111H136.231V49.1111ZM136.316 33.9918V32.9918C136.129 32.9918 136.001 32.9385 135.878 32.8219L135.191 33.5486L134.504 34.2752C135.006 34.7496 135.628 34.9918 136.316 34.9918V33.9918ZM135.191 33.5486L135.892 32.8349C135.778 32.7235 135.744 32.629 135.748 32.4932L134.748 32.4662L133.748 32.4392C133.729 33.1443 133.99 33.7714 134.491 34.2623L135.191 33.5486ZM134.748 32.4662L135.748 32.4799C135.749 32.3586 135.783 32.2607 135.916 32.1396L135.242 31.4009L134.568 30.6621C134.053 31.1319 133.758 31.7442 133.748 32.4525L134.748 32.4662ZM135.242 31.4009L135.923 32.1332C136.062 32.0045 136.202 31.9492 136.393 31.9492V30.9492V29.9492C135.698 29.9492 135.071 30.1949 134.561 30.6685L135.242 31.4009ZM136.393 30.9492V31.9492C136.573 31.9492 136.693 32.0005 136.809 32.1145L137.509 31.4009L138.21 30.6872C137.712 30.1989 137.087 29.9492 136.393 29.9492V30.9492ZM137.509 31.4009L136.822 32.1275C136.937 32.2356 136.965 32.32 136.961 32.4388L137.961 32.4662L138.961 32.4936C138.98 31.7829 138.707 31.157 138.196 30.6742L137.509 31.4009ZM137.961 32.4662L136.961 32.4527C136.959 32.5846 136.921 32.6903 136.786 32.8162L137.467 33.5486L138.148 34.2809C138.66 33.8046 138.951 33.1887 138.961 32.4797L137.961 32.4662ZM137.467 33.5486L136.793 32.8098C136.655 32.9352 136.513 32.9918 136.316 32.9918V33.9918V34.9918C137.006 34.9918 137.63 34.7529 138.141 34.2874L137.467 33.5486ZM150.295 39.2162L150.467 40.2013L151.456 40.0288L151.28 39.0412L150.295 39.2162ZM147.952 39.6253L146.982 39.8678L147.207 40.7704L148.124 40.6104L147.952 39.6253ZM147.568 38.7815L146.736 39.3363L146.742 39.3443L147.568 38.7815ZM146.793 38.1253L146.339 39.0168L146.352 39.0227L146.793 38.1253ZM143.631 38.3639L144.162 39.2114L144.168 39.2072L143.631 38.3639ZM142.804 39.6168L143.8 39.7085L143.801 39.6959L143.802 39.6833L142.804 39.6168ZM143.188 40.6565L142.525 41.4056L142.532 41.4118L143.188 40.6565ZM144.696 41.3043L144.461 42.2763L144.469 42.2781L144.696 41.3043ZM146.741 41.7815L146.971 40.8082L146.969 40.8077L146.741 41.7815ZM149.332 43.077L148.601 43.7588L148.604 43.7626L149.332 43.077ZM150.04 45.3526L149.043 45.2675L149.043 45.2731L150.04 45.3526ZM149.188 47.4406L148.419 46.8012L148.418 46.8019L149.188 47.4406ZM147.193 48.8639L147.576 49.7879L147.579 49.7866L147.193 48.8639ZM140.844 48.4378L140.259 49.249L140.265 49.2533L140.844 48.4378ZM139.361 45.7531L139.212 44.7643L138.273 44.9058L138.366 45.8507L139.361 45.7531ZM141.849 45.3781L142.837 45.2208L142.681 44.2415L141.7 44.3893L141.849 45.3781ZM142.668 46.8355L142.071 47.638L142.077 47.6423L142.083 47.6465L142.668 46.8355ZM144.474 47.3213L144.481 46.3213H144.474V47.3213ZM146.545 46.7929L147.098 47.6263L146.545 46.7929ZM147.406 45.4889L146.411 45.3922L146.409 45.4073L146.408 45.4224L147.406 45.4889ZM147.048 44.4747L146.341 45.1818L146.349 45.1892L146.356 45.1964L147.048 44.4747ZM145.702 43.8526L145.479 44.8275L145.48 44.8277L145.702 43.8526ZM143.537 43.3582L143.76 42.3833L143.758 42.3829L143.537 43.3582ZM140.929 42.0287L140.172 42.6818L140.175 42.6852L140.929 42.0287ZM140.247 39.702L141.244 39.7871L141.244 39.7832L140.247 39.702ZM141.057 37.6906L141.826 38.3301L141.829 38.3263L141.057 37.6906ZM142.949 36.3355L142.567 35.4113L142.567 35.4113L142.949 36.3355ZM148.872 36.7702L148.245 37.5488L148.251 37.5539L148.872 36.7702ZM150.295 39.2162L150.124 38.2311L147.78 38.6402L147.952 39.6253L148.124 40.6104L150.467 40.2013L150.295 39.2162ZM147.952 39.6253L148.922 39.3828C148.818 38.9661 148.639 38.5773 148.395 38.2187L147.568 38.7815L146.742 39.3443C146.861 39.5199 146.938 39.6936 146.982 39.8678L147.952 39.6253ZM147.568 38.7815L148.4 38.2268C148.108 37.7879 147.705 37.4594 147.234 37.2278L146.793 38.1253L146.352 39.0227C146.551 39.1208 146.665 39.2297 146.736 39.3362L147.568 38.7815ZM146.793 38.1253L147.246 37.2339C146.725 36.9691 146.123 36.8696 145.497 36.8696V37.8696V38.8696C145.928 38.8696 146.19 38.9406 146.339 39.0167L146.793 38.1253ZM145.497 37.8696V36.8696C144.615 36.8696 143.799 37.071 143.093 37.5206L143.631 38.3639L144.168 39.2072C144.497 38.9977 144.924 38.8696 145.497 38.8696V37.8696ZM143.631 38.3639L143.1 37.5164C142.37 37.9738 141.866 38.6553 141.806 39.5502L142.804 39.6168L143.802 39.6833C143.81 39.5555 143.858 39.4017 144.162 39.2114L143.631 38.3639ZM142.804 39.6168L141.808 39.525C141.743 40.2377 141.965 40.9098 142.525 41.4055L143.188 40.6565L143.85 39.9075C143.817 39.8787 143.811 39.8623 143.808 39.8545C143.804 39.8433 143.791 39.8016 143.8 39.7085L142.804 39.6168ZM143.188 40.6565L142.532 41.4118C143.016 41.8321 143.709 42.0942 144.461 42.2762L144.696 41.3043L144.931 40.3323C144.274 40.1734 143.961 40.0037 143.843 39.9013L143.188 40.6565ZM144.696 41.3043L144.469 42.2781L146.514 42.7554L146.741 41.7815L146.969 40.8077L144.923 40.3304L144.696 41.3043ZM146.741 41.7815L146.512 42.7549C147.595 43.0099 148.243 43.3752 148.601 43.7588L149.332 43.077L150.064 42.3952C149.33 41.6083 148.252 41.11 146.971 40.8082L146.741 41.7815ZM149.332 43.077L148.604 43.7626C148.928 44.1063 149.103 44.5681 149.043 45.2675L150.04 45.3526L151.036 45.4376C151.136 44.2734 150.839 43.2182 150.06 42.3914L149.332 43.077ZM150.04 45.3526L149.043 45.2731C148.997 45.8503 148.793 46.351 148.419 46.8012L149.188 47.4406L149.956 48.0801C150.593 47.3144 150.958 46.423 151.037 45.432L150.04 45.3526ZM149.188 47.4406L148.418 46.8019C148.036 47.2626 147.51 47.6476 146.808 47.9412L147.193 48.8639L147.579 49.7866C148.535 49.3871 149.339 48.8232 149.957 48.0794L149.188 47.4406ZM147.193 48.8639L146.811 47.9399C146.128 48.2225 145.324 48.3753 144.381 48.3753V49.3753V50.3753C145.54 50.3753 146.611 50.1871 147.576 49.7879L147.193 48.8639ZM144.381 49.3753V48.3753C143.036 48.3753 142.082 48.0903 141.423 47.6223L140.844 48.4378L140.265 49.2533C141.367 50.0353 142.771 50.3753 144.381 50.3753V49.3753ZM140.844 48.4378L141.428 47.6266C140.807 47.1783 140.444 46.5546 140.356 45.6556L139.361 45.7531L138.366 45.8507C138.505 47.2699 139.131 48.4359 140.259 49.249L140.844 48.4378ZM139.361 45.7531L139.51 46.742L141.998 46.367L141.849 45.3781L141.7 44.3893L139.212 44.7643L139.361 45.7531ZM141.849 45.3781L140.862 45.5354C140.997 46.3863 141.382 47.1253 142.071 47.638L142.668 46.8355L143.264 46.0331C143.067 45.8866 142.906 45.6541 142.837 45.2208L141.849 45.3781ZM142.668 46.8355L142.083 47.6465C142.754 48.1309 143.584 48.3213 144.474 48.3213V47.3213V46.3213C143.854 46.3213 143.479 46.1878 143.253 46.0246L142.668 46.8355ZM144.474 47.3213L144.468 48.3213C145.449 48.3279 146.35 48.1227 147.098 47.6263L146.545 46.7929L145.993 45.9595C145.662 46.179 145.182 46.3261 144.481 46.3213L144.474 47.3213ZM146.545 46.7929L147.098 47.6263C147.822 47.1461 148.344 46.4583 148.404 45.5554L147.406 45.4889L146.408 45.4224C146.4 45.5423 146.348 45.7238 145.993 45.9595L146.545 46.7929ZM147.406 45.4889L148.402 45.5857C148.469 44.8948 148.256 44.2476 147.741 43.753L147.048 44.4747L146.356 45.1964C146.391 45.2301 146.4 45.2508 146.404 45.2614C146.408 45.2739 146.419 45.3117 146.411 45.3922L147.406 45.4889ZM147.048 44.4747L147.755 43.7676C147.288 43.3001 146.623 43.0365 145.923 42.8774L145.702 43.8526L145.48 44.8277C146.03 44.9527 146.263 45.1039 146.341 45.1818L147.048 44.4747ZM145.702 43.8526L145.924 42.8777L143.76 42.3833L143.537 43.3582L143.314 44.3331L145.479 44.8275L145.702 43.8526ZM143.537 43.3582L143.758 42.3829C142.659 42.1342 142.022 41.7619 141.683 41.3722L140.929 42.0287L140.175 42.6852C140.904 43.5228 142.006 44.0368 143.316 44.3336L143.537 43.3582ZM140.929 42.0287L141.686 41.3756C141.354 40.99 141.183 40.4926 141.244 39.7871L140.247 39.702L139.251 39.6169C139.152 40.775 139.436 41.8288 140.172 42.6818L140.929 42.0287ZM140.247 39.702L141.244 39.7832C141.29 39.2145 141.484 38.7406 141.826 38.3301L141.057 37.6906L140.288 37.0512C139.675 37.7884 139.329 38.6554 139.25 39.6208L140.247 39.702ZM141.057 37.6906L141.829 38.3263C142.189 37.8892 142.678 37.5292 143.331 37.2598L142.949 36.3355L142.567 35.4113C141.651 35.7896 140.879 36.3329 140.285 37.0549L141.057 37.6906ZM142.949 36.3355L143.331 37.2598C143.976 36.9932 144.727 36.8497 145.599 36.8497V35.8497V34.8497C144.506 34.8497 143.49 35.0301 142.567 35.4113L142.949 36.3355ZM145.599 35.8497V36.8497C146.892 36.8497 147.726 37.1307 148.245 37.5488L148.872 36.7702L149.5 35.9916C148.496 35.1823 147.148 34.8497 145.599 34.8497V35.8497ZM148.872 36.7702L148.251 37.5539C148.814 38.0003 149.169 38.5929 149.311 39.3912L150.295 39.2162L151.28 39.0412C151.058 37.794 150.464 36.756 149.493 35.9865L148.872 36.7702ZM154.896 48.5486L154.364 49.3954L154.368 49.3978L154.896 48.5486ZM152.935 46.2048L152.01 46.5843L152.013 46.5906L152.935 46.2048ZM152.484 42.6509L151.487 42.5664L151.487 42.5675L152.484 42.6509ZM153.532 39.1054L152.664 38.6087L153.532 39.1054ZM155.842 36.7105L155.326 35.8535L155.842 36.7105ZM161.211 36.2162L160.869 37.1558L160.871 37.1567L161.211 36.2162ZM162.984 37.3668L162.265 38.0621L162.984 37.3668ZM164.117 39.4037L163.159 39.6904L163.16 39.6922L164.117 39.4037ZM164.347 42.4293L163.351 42.3482L163.35 42.354L164.347 42.4293ZM164.279 43.3327V44.3327H165.207L165.276 43.4079L164.279 43.3327ZM153.864 43.3327L152.868 43.2526L152.781 44.3327H153.864V43.3327ZM154.018 41.4236V40.4236H153.095L153.021 41.3435L154.018 41.4236ZM161.927 41.4236V42.4236H162.846L162.923 41.508L161.927 41.4236ZM161.671 39.6423L160.754 40.0411L160.756 40.0447L161.671 39.6423ZM160.631 38.4065L161.174 37.5667V37.5667L160.631 38.4065ZM157.043 38.4832L156.513 37.6357L156.509 37.6382L157.043 38.4832ZM155.697 39.8554L156.55 40.3776L156.552 40.3737L155.697 39.8554ZM155.109 41.6196L156.104 41.7144L156.105 41.7019L155.109 41.6196ZM154.955 43.2304L153.96 43.1356L153.959 43.1428L153.959 43.1499L154.955 43.2304ZM155.228 45.4974L154.309 45.8914L154.312 45.8987L155.228 45.4974ZM156.413 46.8355L155.925 47.7084L155.936 47.7145L156.413 46.8355ZM159.702 47.0656L160.019 48.0144L160.03 48.0103L159.702 47.0656ZM160.776 46.4435L161.441 47.1909L161.441 47.1901L160.776 46.4435ZM161.526 45.4037L161.706 44.42L160.937 44.2794L160.615 44.9918L161.526 45.4037ZM163.904 45.8384L164.845 46.1771L165.245 45.0668L164.084 44.8547L163.904 45.8384ZM162.711 47.7048L163.41 48.4194L163.414 48.4157L162.711 47.7048ZM160.742 48.9406L161.093 49.877L161.099 49.8747L160.742 48.9406ZM158.151 49.3753V48.3753C157.011 48.3753 156.119 48.1315 155.424 47.6994L154.896 48.5486L154.368 49.3978C155.445 50.068 156.724 50.3753 158.151 50.3753V49.3753ZM154.896 48.5486L155.428 47.7018C154.723 47.2594 154.202 46.6429 153.858 45.8191L152.935 46.2048L152.013 46.5906C152.509 47.7782 153.295 48.7241 154.364 49.3954L154.896 48.5486ZM152.935 46.2048L153.861 45.8254C153.519 44.9922 153.377 43.9726 153.48 42.7342L152.484 42.6509L151.487 42.5675C151.364 44.0451 151.522 45.3948 152.01 46.5843L152.935 46.2048ZM152.484 42.6509L153.48 42.7353C153.583 41.5189 153.897 40.4816 154.4 39.6021L153.532 39.1054L152.664 38.6087C151.997 39.7747 151.611 41.101 151.487 42.5664L152.484 42.6509ZM153.532 39.1054L154.4 39.6021C154.905 38.7187 155.557 38.0483 156.357 37.5676L155.842 36.7105L155.326 35.8535C154.217 36.5205 153.329 37.4466 152.664 38.6087L153.532 39.1054ZM155.842 36.7105L156.357 37.5676C157.142 37.0957 158.046 36.8497 159.097 36.8497V35.8497V34.8497C157.717 34.8497 156.451 35.1776 155.326 35.8535L155.842 36.7105ZM159.097 35.8497V36.8497C159.723 36.8497 160.312 36.9528 160.869 37.1558L161.211 36.2162L161.553 35.2766C160.769 34.9909 159.949 34.8497 159.097 34.8497V35.8497ZM161.211 36.2162L160.871 37.1567C161.402 37.3486 161.864 37.6475 162.265 38.0621L162.984 37.3668L163.702 36.6715C163.092 36.0405 162.372 35.5724 161.551 35.2757L161.211 36.2162ZM162.984 37.3668L162.265 38.0621C162.639 38.449 162.946 38.9783 163.159 39.6904L164.117 39.4037L165.075 39.1169C164.788 38.1586 164.339 37.33 163.702 36.6715L162.984 37.3668ZM164.117 39.4037L163.16 39.6922C163.363 40.3664 163.441 41.2417 163.351 42.3482L164.347 42.4293L165.344 42.5103C165.447 41.2418 165.371 40.1001 165.075 39.1151L164.117 39.4037ZM164.347 42.4293L163.35 42.354L163.282 43.2574L164.279 43.3327L165.276 43.4079L165.344 42.5045L164.347 42.4293ZM164.279 43.3327V42.3327H153.864V43.3327V44.3327H164.279V43.3327ZM153.864 43.3327L154.861 43.4128L155.015 41.5037L154.018 41.4236L153.021 41.3435L152.868 43.2526L153.864 43.3327ZM154.018 41.4236V42.4236H161.927V41.4236V40.4236H154.018V41.4236ZM161.927 41.4236L162.923 41.508C162.992 40.7029 162.893 39.9367 162.587 39.2399L161.671 39.6423L160.756 40.0447C160.904 40.382 160.976 40.8034 160.93 41.3391L161.927 41.4236ZM161.671 39.6423L162.588 39.2436C162.285 38.5454 161.81 37.9779 161.174 37.5667L160.631 38.4065L160.089 39.2464C160.384 39.4375 160.603 39.6938 160.754 40.0411L161.671 39.6423ZM160.631 38.4065L161.174 37.5667C160.518 37.1427 159.759 36.9548 158.944 36.9548V37.9548V38.9548C159.447 38.9548 159.813 39.0681 160.089 39.2464L160.631 38.4065ZM158.944 37.9548V36.9548C158.064 36.9548 157.244 37.1776 156.513 37.6357L157.043 38.4832L157.574 39.3308C157.968 39.0843 158.415 38.9548 158.944 38.9548V37.9548ZM157.043 38.4832L156.509 37.6382C155.821 38.073 155.263 38.6421 154.842 39.3371L155.697 39.8554L156.552 40.3737C156.813 39.9437 157.152 39.5981 157.578 39.3283L157.043 38.4832ZM155.697 39.8554L154.844 39.3332C154.426 40.0165 154.177 40.7542 154.112 41.5373L155.109 41.6196L156.105 41.7019C156.143 41.2463 156.286 40.808 156.55 40.3776L155.697 39.8554ZM155.109 41.6196L154.113 41.5248L153.96 43.1356L154.955 43.2304L155.951 43.3252L156.104 41.7144L155.109 41.6196ZM154.955 43.2304L153.959 43.1499C153.877 44.1637 153.968 45.0963 154.309 45.8914L155.228 45.4974L156.147 45.1035C155.977 44.7054 155.886 44.1266 155.952 43.3109L154.955 43.2304ZM155.228 45.4974L154.312 45.8987C154.654 46.6788 155.191 47.2983 155.925 47.7083L156.413 46.8355L156.901 45.9627C156.577 45.7819 156.325 45.5093 156.144 45.0962L155.228 45.4974ZM156.413 46.8355L155.936 47.7145C156.648 48.1008 157.465 48.2702 158.347 48.2702V47.2702V46.2702C157.718 46.2702 157.246 46.1498 156.89 45.9566L156.413 46.8355ZM158.347 47.2702V48.2702C158.934 48.2702 159.494 48.1892 160.019 48.0143L159.702 47.0656L159.386 46.1169C159.093 46.2148 158.75 46.2702 158.347 46.2702V47.2702ZM159.702 47.0656L160.03 48.0103C160.557 47.8276 161.03 47.5555 161.441 47.1909L160.776 46.4435L160.112 45.6961C159.909 45.8769 159.666 46.0196 159.374 46.121L159.702 47.0656ZM160.776 46.4435L161.441 47.1901C161.867 46.8107 162.197 46.3467 162.438 45.8156L161.526 45.4037L160.615 44.9918C160.48 45.2903 160.31 45.5194 160.111 45.6968L160.776 46.4435ZM161.526 45.4037L161.346 46.3874L163.724 46.8221L163.904 45.8384L164.084 44.8547L161.706 44.42L161.526 45.4037ZM163.904 45.8384L162.963 45.4996C162.758 46.0688 162.442 46.5641 162.008 46.994L162.711 47.7048L163.414 48.4157C164.059 47.7774 164.539 47.0284 164.845 46.1771L163.904 45.8384ZM162.711 47.7048L162.011 46.9902C161.578 47.414 161.042 47.7554 160.385 48.0066L160.742 48.9406L161.099 49.8747C161.988 49.535 162.764 49.0525 163.41 48.4194L162.711 47.7048ZM160.742 48.9406L160.391 48.0043C159.747 48.2459 159.004 48.3753 158.151 48.3753V49.3753V50.3753C159.207 50.3753 160.192 50.2149 161.093 49.877L160.742 48.9406Z" fill="#FEEBB5" mask="url(#path-4-outside-1_715_1832)"/>
<defs>
<radialGradient id="paint0_radial_715_1832" cx="0" cy="0" r="1" gradientUnits="userSpaceOnUse" gradientTransform="translate(106.5 40) rotate(90) scale(34 122.029)">
<stop offset="0.711316" stop-color="#D27D08"/>
<stop offset="1" stop-color="#FFCB3C" stop-opacity="0.85"/>
</radialGradient>
<linearGradient id="paint1_linear_715_1832" x1="19.2736" y1="6" x2="183.095" y2="77.2969" gradientUnits="userSpaceOnUse">
<stop stop-color="#E6A121"/>
<stop offset="1" stop-color="#E6A121" stop-opacity="0"/>
</linearGradient>
<linearGradient id="paint2_linear_715_1832" x1="1.98" y1="18.4667" x2="239.833" y2="85.7427" gradientUnits="userSpaceOnUse">
<stop stop-color="#DA8207"/>
<stop offset="0.0932979" stop-color="#DD9318"/>
<stop offset="0.230387" stop-color="#FFCB3C"/>
<stop offset="0.678823" stop-color="#FFCB3C"/>
<stop offset="0.799224" stop-color="#E39C1E"/>
<stop offset="0.835628" stop-color="#FBC63A"/>
</linearGradient>
<linearGradient id="paint3_linear_715_1832" x1="106.5" y1="6" x2="106.5" y2="74" gradientUnits="userSpaceOnUse">
<stop stop-color="#FEFBEF" stop-opacity="0.59"/>
<stop offset="0.552083" stop-color="#F7C746" stop-opacity="0.705938"/>
<stop offset="1" stop-color="#FBBC28" stop-opacity="0.8"/>
</linearGradient>
<radialGradient id="paint4_radial_715_1832" cx="0" cy="0" r="1" gradientUnits="userSpaceOnUse" gradientTransform="translate(106.5 40) rotate(90) scale(49.1111 115.407)">
<stop stop-color="#FADC91"/>
<stop offset="1" stop-color="#FEE6A3" stop-opacity="0"/>
</radialGradient>
</defs>
</svg>
