<svg width="213" height="80" viewBox="0 0 213 80" fill="none" xmlns="http://www.w3.org/2000/svg">
<rect x="6.05" y="6.05" width="200.9" height="67.9" rx="28.95" stroke="url(#paint0_linear_715_1826)" stroke-width="0.1"/>
<rect x="6.75" y="6.75" width="199.5" height="66.5" rx="28.25" fill="url(#paint1_linear_715_1826)"/>
<rect x="6.75" y="6.75" width="199.5" height="66.5" rx="28.25" fill="#E7E6E6" fill-opacity="0.55"/>
<rect x="6.75" y="6.75" width="199.5" height="66.5" rx="28.25" stroke="url(#paint2_linear_715_1826)" stroke-width="1.5"/>
<rect x="3" y="3" width="207" height="74" rx="32" stroke="url(#paint3_radial_715_1826)" stroke-width="6"/>
<mask id="path-4-outside-1_715_1826" maskUnits="userSpaceOnUse" x="83.9238" y="28.1111" width="45" height="24" fill="black">
<rect fill="white" x="83.9238" y="28.1111" width="45" height="24"/>
<path d="M85.6099 50.1111L87.3003 29.7474H94.5588C96.1364 29.7474 97.4224 30.0358 98.4167 30.6125C99.4111 31.1892 100.124 31.9747 100.555 32.969C100.992 33.9634 101.161 35.0869 101.062 36.3398C100.956 37.5926 100.601 38.7195 99.9977 39.7205C99.3945 40.7148 98.546 41.5036 97.4522 42.0869C96.3651 42.6636 95.0327 42.952 93.4551 42.952H88.4636L88.6724 40.3469H93.3855C94.3864 40.3469 95.2117 40.1745 95.8613 39.8298C96.5176 39.4785 97.0147 39.0012 97.3528 38.398C97.6975 37.7948 97.903 37.1087 97.9693 36.3398C98.029 35.5708 97.9361 34.8881 97.6909 34.2915C97.4522 33.6949 97.0346 33.2276 96.438 32.8895C95.8415 32.5514 95.0361 32.3824 94.0218 32.3824H90.1639L88.6824 50.1111H85.6099ZM103.254 50.1111L104.527 34.8384H107.4L107.202 37.2645H107.361C107.699 36.4425 108.242 35.7962 108.991 35.3256C109.74 34.8483 110.562 34.6097 111.457 34.6097C111.643 34.6097 111.862 34.6163 112.113 34.6295C112.365 34.6362 112.568 34.6528 112.72 34.6793L112.481 37.523C112.362 37.4899 112.15 37.4534 111.845 37.4136C111.547 37.3672 111.242 37.344 110.93 37.344C110.228 37.344 109.591 37.4932 109.021 37.7915C108.451 38.0831 107.984 38.4908 107.619 39.0145C107.261 39.5315 107.052 40.1215 106.993 40.7844L106.227 50.1111H103.254ZM119.954 50.4193C118.509 50.4193 117.276 50.0879 116.255 49.425C115.234 48.7621 114.475 47.8374 113.978 46.6509C113.487 45.4577 113.308 44.0689 113.441 42.4847C113.567 40.907 113.968 39.5315 114.644 38.3582C115.327 37.1783 116.222 36.2635 117.329 35.6139C118.442 34.9643 119.712 34.6395 121.137 34.6395C122.582 34.6395 123.812 34.9709 124.826 35.6338C125.847 36.2967 126.602 37.228 127.093 38.4278C127.59 39.621 127.776 41.0164 127.65 42.6139C127.517 44.1783 127.109 45.5472 126.427 46.7205C125.751 47.8871 124.856 48.7953 123.742 49.4449C122.635 50.0945 121.372 50.4193 119.954 50.4193ZM120.033 47.9236C120.981 47.9236 121.783 47.675 122.439 47.1778C123.102 46.6807 123.619 46.0211 123.991 45.1992C124.368 44.3706 124.597 43.4624 124.677 42.4747C124.756 41.5069 124.68 40.6187 124.448 39.8099C124.223 39.0012 123.832 38.3516 123.275 37.8611C122.718 37.3706 121.979 37.1253 121.057 37.1253C120.109 37.1253 119.304 37.3772 118.641 37.881C117.978 38.3781 117.458 39.0443 117.08 39.8795C116.709 40.7081 116.483 41.6163 116.404 42.604C116.331 43.5652 116.404 44.4501 116.623 45.2588C116.848 46.0675 117.242 46.7138 117.806 47.1977C118.369 47.6816 119.112 47.9236 120.033 47.9236Z"/>
</mask>
<path d="M85.6099 50.1111L87.3003 29.7474H94.5588C96.1364 29.7474 97.4224 30.0358 98.4167 30.6125C99.4111 31.1892 100.124 31.9747 100.555 32.969C100.992 33.9634 101.161 35.0869 101.062 36.3398C100.956 37.5926 100.601 38.7195 99.9977 39.7205C99.3945 40.7148 98.546 41.5036 97.4522 42.0869C96.3651 42.6636 95.0327 42.952 93.4551 42.952H88.4636L88.6724 40.3469H93.3855C94.3864 40.3469 95.2117 40.1745 95.8613 39.8298C96.5176 39.4785 97.0147 39.0012 97.3528 38.398C97.6975 37.7948 97.903 37.1087 97.9693 36.3398C98.029 35.5708 97.9361 34.8881 97.6909 34.2915C97.4522 33.6949 97.0346 33.2276 96.438 32.8895C95.8415 32.5514 95.0361 32.3824 94.0218 32.3824H90.1639L88.6824 50.1111H85.6099ZM103.254 50.1111L104.527 34.8384H107.4L107.202 37.2645H107.361C107.699 36.4425 108.242 35.7962 108.991 35.3256C109.74 34.8483 110.562 34.6097 111.457 34.6097C111.643 34.6097 111.862 34.6163 112.113 34.6295C112.365 34.6362 112.568 34.6528 112.72 34.6793L112.481 37.523C112.362 37.4899 112.15 37.4534 111.845 37.4136C111.547 37.3672 111.242 37.344 110.93 37.344C110.228 37.344 109.591 37.4932 109.021 37.7915C108.451 38.0831 107.984 38.4908 107.619 39.0145C107.261 39.5315 107.052 40.1215 106.993 40.7844L106.227 50.1111H103.254ZM119.954 50.4193C118.509 50.4193 117.276 50.0879 116.255 49.425C115.234 48.7621 114.475 47.8374 113.978 46.6509C113.487 45.4577 113.308 44.0689 113.441 42.4847C113.567 40.907 113.968 39.5315 114.644 38.3582C115.327 37.1783 116.222 36.2635 117.329 35.6139C118.442 34.9643 119.712 34.6395 121.137 34.6395C122.582 34.6395 123.812 34.9709 124.826 35.6338C125.847 36.2967 126.602 37.228 127.093 38.4278C127.59 39.621 127.776 41.0164 127.65 42.6139C127.517 44.1783 127.109 45.5472 126.427 46.7205C125.751 47.8871 124.856 48.7953 123.742 49.4449C122.635 50.0945 121.372 50.4193 119.954 50.4193ZM120.033 47.9236C120.981 47.9236 121.783 47.675 122.439 47.1778C123.102 46.6807 123.619 46.0211 123.991 45.1992C124.368 44.3706 124.597 43.4624 124.677 42.4747C124.756 41.5069 124.68 40.6187 124.448 39.8099C124.223 39.0012 123.832 38.3516 123.275 37.8611C122.718 37.3706 121.979 37.1253 121.057 37.1253C120.109 37.1253 119.304 37.3772 118.641 37.881C117.978 38.3781 117.458 39.0443 117.08 39.8795C116.709 40.7081 116.483 41.6163 116.404 42.604C116.331 43.5652 116.404 44.4501 116.623 45.2588C116.848 46.0675 117.242 46.7138 117.806 47.1977C118.369 47.6816 119.112 47.9236 120.033 47.9236Z" fill="white"/>
<path d="M85.6099 50.1111L84.6133 50.0284L84.5235 51.1111H85.6099V50.1111ZM87.3003 29.7474V28.7474H86.3798L86.3037 29.6647L87.3003 29.7474ZM100.555 32.969L99.6369 33.3667L99.6392 33.3718L100.555 32.969ZM101.062 36.3398L102.058 36.4241L102.058 36.4189L101.062 36.3398ZM99.9977 39.7205L100.853 40.2391L100.854 40.2366L99.9977 39.7205ZM97.4522 42.0869L97.9209 42.9703L97.9228 42.9693L97.4522 42.0869ZM88.4636 42.952L87.4668 42.8721L87.3802 43.952H88.4636V42.952ZM88.6724 40.3469V39.3469H87.7494L87.6756 40.267L88.6724 40.3469ZM95.8613 39.8298L96.3301 40.7132L96.3333 40.7114L95.8613 39.8298ZM97.3528 38.398L96.4845 37.9019L96.4805 37.9091L97.3528 38.398ZM97.9693 36.3398L98.9656 36.4257L98.9663 36.4171L97.9693 36.3398ZM97.6909 34.2915L96.7624 34.6629L96.766 34.6717L97.6909 34.2915ZM96.438 32.8895L95.945 33.7595V33.7595L96.438 32.8895ZM90.1639 32.3824V31.3824H89.244L89.1674 32.2991L90.1639 32.3824ZM88.6824 50.1111V51.1111H89.6023L89.6789 50.1944L88.6824 50.1111ZM85.6099 50.1111L86.6065 50.1938L88.2968 29.8302L87.3003 29.7474L86.3037 29.6647L84.6133 50.0284L85.6099 50.1111ZM87.3003 29.7474V30.7474H94.5588V29.7474V28.7474H87.3003V29.7474ZM94.5588 29.7474V30.7474C96.0231 30.7474 97.1196 31.0162 97.915 31.4775L98.4167 30.6125L98.9185 29.7475C97.7253 29.0554 96.2498 28.7474 94.5588 28.7474V29.7474ZM98.4167 30.6125L97.915 31.4775C98.7363 31.9539 99.2965 32.5809 99.637 33.3666L100.555 32.969L101.472 32.5714C100.951 31.3685 100.086 30.4246 98.9185 29.7475L98.4167 30.6125ZM100.555 32.969L99.6392 33.3718C100 34.1925 100.153 35.1467 100.065 36.2607L101.062 36.3398L102.058 36.4189C102.169 35.0272 101.984 33.7343 101.47 32.5663L100.555 32.969ZM101.062 36.3398L100.065 36.2554C99.9711 37.3673 99.6594 38.3445 99.1412 39.2043L99.9977 39.7205L100.854 40.2366C101.542 39.0946 101.94 37.8179 102.058 36.4241L101.062 36.3398ZM99.9977 39.7205L99.1427 39.2018C98.6388 40.0324 97.9278 40.7 96.9817 41.2046L97.4522 42.0869L97.9228 42.9693C99.1642 42.3072 100.15 41.3972 100.853 40.2391L99.9977 39.7205ZM97.4522 42.0869L96.9836 41.2035C96.0758 41.6851 94.9142 41.952 93.4551 41.952V42.952V43.952C95.1513 43.952 96.6544 43.6422 97.9209 42.9703L97.4522 42.0869ZM93.4551 42.952V41.952H88.4636V42.952V43.952H93.4551V42.952ZM88.4636 42.952L89.4604 43.0319L89.6692 40.4268L88.6724 40.3469L87.6756 40.267L87.4668 42.8721L88.4636 42.952ZM88.6724 40.3469V41.3469H93.3855V40.3469V39.3469H88.6724V40.3469ZM93.3855 40.3469V41.3469C94.4936 41.3469 95.4934 41.1571 96.3301 40.7132L95.8613 39.8298L95.3926 38.9465C94.93 39.192 94.2793 39.3469 93.3855 39.3469V40.3469ZM95.8613 39.8298L96.3333 40.7114C97.1443 40.2773 97.7867 39.6693 98.2252 38.8869L97.3528 38.398L96.4805 37.9091C96.2428 38.3331 95.8908 38.6798 95.3894 38.9482L95.8613 39.8298ZM97.3528 38.398L98.2211 38.8942C98.6453 38.1517 98.8882 37.3229 98.9656 36.4257L97.9693 36.3398L96.973 36.2539C96.9178 36.8945 96.7497 37.4378 96.4846 37.9019L97.3528 38.398ZM97.9693 36.3398L98.9663 36.4171C99.0357 35.5224 98.9311 34.6783 98.6158 33.9112L97.6909 34.2915L96.766 34.6717C96.9412 35.0978 97.0222 35.6193 96.9723 36.2624L97.9693 36.3398ZM97.6909 34.2915L98.6194 33.9201C98.2905 33.098 97.711 32.4614 96.9311 32.0195L96.438 32.8895L95.945 33.7595C96.3583 33.9937 96.614 34.2918 96.7624 34.6629L97.6909 34.2915ZM96.438 32.8895L96.9311 32.0195C96.129 31.565 95.1319 31.3824 94.0218 31.3824V32.3824V33.3824C94.9402 33.3824 95.5539 33.5379 95.945 33.7595L96.438 32.8895ZM94.0218 32.3824V31.3824H90.1639V32.3824V33.3824H94.0218V32.3824ZM90.1639 32.3824L89.1674 32.2991L87.6858 50.0278L88.6824 50.1111L89.6789 50.1944L91.1604 32.4657L90.1639 32.3824ZM88.6824 50.1111V49.1111H85.6099V50.1111V51.1111H88.6824V50.1111ZM103.254 50.1111L102.258 50.028L102.167 51.1111H103.254V50.1111ZM104.527 34.8384V33.8384H103.607L103.53 34.7553L104.527 34.8384ZM107.4 34.8384L108.397 34.92L108.486 33.8384H107.4V34.8384ZM107.202 37.2645L106.205 37.1828L106.116 38.2645H107.202V37.2645ZM107.361 37.2645V38.2645H108.031L108.285 37.6449L107.361 37.2645ZM108.991 35.3256L109.523 36.1723L109.529 36.1689L108.991 35.3256ZM112.113 34.6295L112.061 35.6282L112.074 35.6289L112.087 35.6292L112.113 34.6295ZM112.72 34.6793L113.716 34.7629L113.793 33.8509L112.891 33.6941L112.72 34.6793ZM112.481 37.523L112.214 38.4865L113.377 38.8096L113.478 37.6066L112.481 37.523ZM111.845 37.4136L111.691 38.4018L111.703 38.4036L111.716 38.4052L111.845 37.4136ZM109.021 37.7915L109.477 38.6818L109.485 38.6775L109.021 37.7915ZM107.619 39.0145L106.798 38.4431L106.797 38.4453L107.619 39.0145ZM106.993 40.7844L105.997 40.6947L105.996 40.7026L106.993 40.7844ZM106.227 50.1111V51.1111H107.148L107.224 50.1929L106.227 50.1111ZM103.254 50.1111L104.251 50.1941L105.523 34.9214L104.527 34.8384L103.53 34.7553L102.258 50.028L103.254 50.1111ZM104.527 34.8384V35.8384H107.4V34.8384V33.8384H104.527V34.8384ZM107.4 34.8384L106.404 34.7567L106.205 37.1828L107.202 37.2645L108.198 37.3462L108.397 34.92L107.4 34.8384ZM107.202 37.2645V38.2645H107.361V37.2645V36.2645H107.202V37.2645ZM107.361 37.2645L108.285 37.6449C108.545 37.0145 108.951 36.5316 109.523 36.1723L108.991 35.3256L108.459 34.4788C107.533 35.0608 106.853 35.8706 106.436 36.8841L107.361 37.2645ZM108.991 35.3256L109.529 36.1689C110.116 35.7948 110.751 35.6097 111.457 35.6097V34.6097V33.6097C110.373 33.6097 109.365 33.9018 108.454 34.4822L108.991 35.3256ZM111.457 34.6097V35.6097C111.62 35.6097 111.821 35.6155 112.061 35.6282L112.113 34.6295L112.166 33.6309C111.902 33.6171 111.665 33.6097 111.457 33.6097V34.6097ZM112.113 34.6295L112.087 35.6292C112.317 35.6352 112.464 35.6498 112.549 35.6645L112.72 34.6793L112.891 33.6941C112.671 33.6557 112.414 33.6371 112.14 33.6299L112.113 34.6295ZM112.72 34.6793L111.724 34.5956L111.485 37.4394L112.481 37.523L113.478 37.6066L113.716 34.7629L112.72 34.6793ZM112.481 37.523L112.749 36.5595C112.554 36.5053 112.278 36.4616 111.974 36.422L111.845 37.4136L111.716 38.4052C112.022 38.4452 112.17 38.4745 112.214 38.4865L112.481 37.523ZM111.845 37.4136L111.999 36.4255C111.648 36.371 111.292 36.344 110.93 36.344V37.344V38.344C111.192 38.344 111.445 38.3635 111.691 38.4018L111.845 37.4136ZM110.93 37.344V36.344C110.081 36.344 109.284 36.5256 108.558 36.9054L109.021 37.7915L109.485 38.6775C109.899 38.4608 110.374 38.344 110.93 38.344V37.344ZM109.021 37.7915L108.566 36.9012C107.85 37.2673 107.257 37.7843 106.798 38.4431L107.619 39.0145L108.44 39.5859C108.71 39.1973 109.052 38.8989 109.477 38.6817L109.021 37.7915ZM107.619 39.0145L106.797 38.4453C106.335 39.1128 106.071 39.8701 105.997 40.6947L106.993 40.7844L107.989 40.874C108.034 40.3729 108.188 39.9502 108.441 39.5837L107.619 39.0145ZM106.993 40.7844L105.996 40.7026L105.23 50.0293L106.227 50.1111L107.224 50.1929L107.989 40.8662L106.993 40.7844ZM106.227 50.1111V49.1111H103.254V50.1111V51.1111H106.227V50.1111ZM116.255 49.425L116.799 48.5863L116.255 49.425ZM113.978 46.6509L113.053 47.0311L113.056 47.0373L113.978 46.6509ZM113.441 42.4847L114.437 42.5681L114.438 42.5642L113.441 42.4847ZM114.644 38.3582L113.778 37.8574L113.778 37.8589L114.644 38.3582ZM117.329 35.6139L116.825 34.7501L116.823 34.7515L117.329 35.6139ZM124.826 35.6338L124.279 36.4709L124.281 36.4725L124.826 35.6338ZM127.093 38.4278L126.167 38.8063L126.17 38.8125L127.093 38.4278ZM127.65 42.6139L128.646 42.6984L128.647 42.6925L127.65 42.6139ZM126.427 46.7205L125.562 46.2175L125.561 46.219L126.427 46.7205ZM123.742 49.4449L123.238 48.5811L123.236 48.5824L123.742 49.4449ZM122.439 47.1778L121.839 46.3778L121.836 46.3808L122.439 47.1778ZM123.991 45.1992L123.081 44.7843L123.079 44.7876L123.991 45.1992ZM124.677 42.4747L123.68 42.3928L123.68 42.3944L124.677 42.4747ZM124.448 39.8099L123.485 40.0784L123.487 40.0857L124.448 39.8099ZM123.275 37.8611L122.614 38.6114L123.275 37.8611ZM118.641 37.881L119.241 38.681L119.246 38.6771L118.641 37.881ZM117.08 39.8795L116.169 39.4674L116.167 39.4707L117.08 39.8795ZM116.404 42.604L115.407 42.5237L115.407 42.5283L116.404 42.604ZM116.623 45.2588L115.657 45.5199L115.659 45.5273L116.623 45.2588ZM117.806 47.1977L117.154 47.9564L117.806 47.1977ZM119.954 50.4193V49.4193C118.665 49.4193 117.63 49.1255 116.799 48.5863L116.255 49.425L115.71 50.2637C116.921 51.0502 118.352 51.4193 119.954 51.4193V50.4193ZM116.255 49.425L116.799 48.5863C115.957 48.0392 115.324 47.2768 114.9 46.2644L113.978 46.6509L113.056 47.0373C113.626 48.398 114.511 49.485 115.71 50.2637L116.255 49.425ZM113.978 46.6509L114.903 46.2706C114.485 45.2543 114.315 44.0304 114.437 42.5681L113.441 42.4847L112.444 42.4013C112.302 44.1075 112.49 45.661 113.053 47.0311L113.978 46.6509ZM113.441 42.4847L114.438 42.5642C114.554 41.1096 114.92 39.8824 115.51 38.8575L114.644 38.3582L113.778 37.8589C113.016 39.1807 112.58 40.7044 112.444 42.4051L113.441 42.4847ZM114.644 38.3582L115.51 38.8591C116.111 37.8191 116.886 37.0331 117.835 36.4764L117.329 35.6139L116.823 34.7515C115.557 35.494 114.542 36.5375 113.778 37.8574L114.644 38.3582ZM117.329 35.6139L117.833 36.4777C118.777 35.9265 119.87 35.6395 121.137 35.6395V34.6395V33.6395C119.554 33.6395 118.107 34.0021 116.825 34.7501L117.329 35.6139ZM121.137 34.6395V35.6395C122.426 35.6395 123.456 35.9334 124.279 36.4709L124.826 35.6338L125.373 34.7967C124.167 34.0085 122.738 33.6395 121.137 33.6395V34.6395ZM124.826 35.6338L124.281 36.4725C125.12 37.017 125.749 37.7822 126.167 38.8063L127.093 38.4278L128.019 38.0494C127.456 36.6739 126.574 35.5764 125.37 34.7951L124.826 35.6338ZM127.093 38.4278L126.17 38.8125C126.593 39.8283 126.769 41.0587 126.653 42.5353L127.65 42.6139L128.647 42.6925C128.782 40.9741 128.587 39.4137 128.016 38.0432L127.093 38.4278ZM127.65 42.6139L126.653 42.5295C126.531 43.9693 126.16 45.1908 125.562 46.2175L126.427 46.7205L127.291 47.2234C128.059 45.9035 128.503 44.3873 128.646 42.6984L127.65 42.6139ZM126.427 46.7205L125.561 46.219C124.968 47.2428 124.195 48.023 123.238 48.5811L123.742 49.4449L124.246 50.3087C125.516 49.5676 126.533 48.5315 127.292 47.2219L126.427 46.7205ZM123.742 49.4449L123.236 48.5824C122.298 49.1327 121.214 49.4193 119.954 49.4193V50.4193V51.4193C121.531 51.4193 122.972 51.0563 124.248 50.3074L123.742 49.4449ZM120.033 47.9236V48.9236C121.165 48.9236 122.188 48.6231 123.043 47.9749L122.439 47.1778L121.836 46.3808C121.379 46.7269 120.798 46.9236 120.033 46.9236V47.9236ZM122.439 47.1778L123.039 47.9778C123.849 47.3707 124.468 46.5724 124.902 45.6107L123.991 45.1992L123.079 44.7876C122.771 45.4698 122.356 45.9906 121.839 46.3778L122.439 47.1778ZM123.991 45.1992L124.9 45.6141C125.331 44.6709 125.585 43.6482 125.673 42.555L124.677 42.4747L123.68 42.3944C123.609 43.2766 123.406 44.0702 123.081 44.7843L123.991 45.1992ZM124.677 42.4747L125.673 42.5566C125.761 41.4867 125.679 40.4754 125.409 39.5342L124.448 39.8099L123.487 40.0857C123.681 40.7619 123.751 41.5271 123.68 42.3928L124.677 42.4747ZM124.448 39.8099L125.411 39.5415C125.141 38.5715 124.656 37.7455 123.936 37.1107L123.275 37.8611L122.614 38.6114C123.007 38.9577 123.304 39.431 123.485 40.0784L124.448 39.8099ZM123.275 37.8611L123.936 37.1107C123.155 36.4231 122.161 36.1253 121.057 36.1253V37.1253V38.1253C121.796 38.1253 122.281 38.3181 122.614 38.6114L123.275 37.8611ZM121.057 37.1253V36.1253C119.923 36.1253 118.897 36.4308 118.036 37.0848L118.641 37.881L119.246 38.6771C119.711 38.3236 120.296 38.1253 121.057 38.1253V37.1253ZM118.641 37.881L118.041 37.081C117.23 37.6896 116.609 38.4954 116.169 39.4674L117.08 39.8795L117.991 40.2917C118.307 39.5932 118.727 39.0667 119.241 38.681L118.641 37.881ZM117.08 39.8795L116.167 39.4707C115.746 40.4123 115.495 41.4329 115.407 42.5237L116.404 42.604L117.401 42.6843C117.472 41.7997 117.672 41.004 117.993 40.2884L117.08 39.8795ZM116.404 42.604L115.407 42.5283C115.327 43.586 115.405 44.5864 115.657 45.5199L116.623 45.2588L117.588 44.9977C117.403 44.3138 117.335 43.5443 117.401 42.6796L116.404 42.604ZM116.623 45.2588L115.659 45.5273C115.931 46.5009 116.422 47.3272 117.154 47.9564L117.806 47.1977L118.457 46.4391C118.063 46.1005 117.765 45.6341 117.586 44.9904L116.623 45.2588ZM117.806 47.1977L117.154 47.9564C117.94 48.6308 118.932 48.9236 120.033 48.9236V47.9236V46.9236C119.291 46.9236 118.799 46.7324 118.457 46.4391L117.806 47.1977Z" fill="#D8D5D5" mask="url(#path-4-outside-1_715_1826)"/>
<defs>
<linearGradient id="paint0_linear_715_1826" x1="19.2736" y1="6" x2="183.095" y2="77.2969" gradientUnits="userSpaceOnUse">
<stop stop-color="#848484"/>
<stop offset="1" stop-color="#848484" stop-opacity="0"/>
</linearGradient>
<linearGradient id="paint1_linear_715_1826" x1="1.98" y1="18.4667" x2="239.833" y2="85.7427" gradientUnits="userSpaceOnUse">
<stop stop-color="#717171"/>
<stop offset="0.0932979" stop-color="#7B7B7B"/>
<stop offset="0.230387" stop-color="#CBCBCB"/>
<stop offset="0.678823" stop-color="#D1D1D1"/>
<stop offset="0.799224" stop-color="#818181"/>
<stop offset="0.835628" stop-color="#9B9B9B"/>
</linearGradient>
<linearGradient id="paint2_linear_715_1826" x1="106.5" y1="6" x2="106.5" y2="74" gradientUnits="userSpaceOnUse">
<stop stop-color="white" stop-opacity="0.59"/>
<stop offset="0.552083" stop-color="#E6E6E6" stop-opacity="0.705938"/>
<stop offset="0.838542" stop-color="#B8B8B8" stop-opacity="0.8"/>
</linearGradient>
<radialGradient id="paint3_radial_715_1826" cx="0" cy="0" r="1" gradientUnits="userSpaceOnUse" gradientTransform="translate(106.5 40) rotate(90) scale(46.2778 108.749)">
<stop stop-color="#C6C6C6"/>
<stop offset="1" stop-color="white" stop-opacity="0"/>
</radialGradient>
</defs>
</svg>
