<svg width="130" height="113" viewBox="0 0 130 113" fill="none" xmlns="http://www.w3.org/2000/svg">
<g id="&#230;&#151;&#160;&#230;&#179;&#149;&#232;&#191;&#158;&#230;&#142;&#165;&#231;&#189;&#145;&#231;&#187;&#156; 1">
<g id="&#230;&#151;&#160;&#230;&#179;&#149;&#232;&#191;&#158;&#230;&#142;&#165;&#231;&#189;&#145;&#231;&#187;&#156;" opacity="0.8">
<g id="&#231;&#188;&#150;&#231;&#187;&#132;">
<g id="&#229;&#136;&#134;&#231;&#187;&#132;">
<path id="&#229;&#135;&#143;&#229;&#142;&#187; 3" d="M103.323 95.2779H28.7343C27.8719 95.2364 27.061 94.8554 26.4785 94.218C25.8961 93.5806 25.5895 92.7387 25.6258 91.876V39.6574H106.431V91.876C106.467 92.7386 106.161 93.5804 105.578 94.2177C104.996 94.8551 104.185 95.2362 103.323 95.2779ZM106.431 36.965H25.6258V27.3031C25.5895 26.4404 25.8961 25.5983 26.4785 24.9608C27.0609 24.3233 27.8719 23.9421 28.7343 23.9004H103.323C104.185 23.9421 104.996 24.3233 105.579 24.9609C106.161 25.5984 106.467 26.4404 106.431 27.3031V36.965ZM35.3862 32.0932L36.5627 33.2738C36.7196 33.4262 36.9301 33.5108 37.1489 33.5092C37.3676 33.5076 37.5769 33.42 37.7315 33.2653C37.8862 33.1106 37.9737 32.9012 37.9751 32.6824C37.9765 32.4637 37.8918 32.2532 37.7392 32.0964L36.5627 30.9167L37.7392 29.7402C37.8203 29.6638 37.8852 29.5719 37.9301 29.47C37.975 29.3681 37.999 29.2582 38.0006 29.1468C38.0023 29.0354 37.9816 28.9249 37.9397 28.8217C37.8978 28.7185 37.8357 28.6247 37.7569 28.5459C37.6782 28.4672 37.5844 28.405 37.4812 28.3632C37.378 28.3213 37.2675 28.3006 37.1561 28.3023C37.0447 28.3039 36.9348 28.3279 36.8329 28.3728C36.731 28.4177 36.6391 28.4826 36.5627 28.5637L35.3862 29.7402L34.2097 28.5637C34.1333 28.4826 34.0414 28.4177 33.9395 28.3728C33.8376 28.3279 33.7277 28.3039 33.6163 28.3023C33.505 28.3006 33.3944 28.3213 33.2912 28.3632C33.188 28.405 33.0942 28.4672 33.0155 28.5459C32.9367 28.6247 32.8746 28.7185 32.8327 28.8217C32.7908 28.9249 32.7701 29.0354 32.7718 29.1468C32.7734 29.2582 32.7974 29.3681 32.8423 29.47C32.8872 29.5719 32.9521 29.6638 33.0332 29.7402L34.2097 30.9167L33.0332 32.0932C32.8766 32.2492 32.7884 32.461 32.7881 32.6821C32.7877 32.9031 32.8751 33.1152 33.0311 33.2718C33.1872 33.4283 33.399 33.5165 33.62 33.5169C33.841 33.5172 34.0531 33.4298 34.2097 33.2738L35.3854 32.0973L35.3862 32.0932ZM52.0943 28.3447C51.6004 28.3447 51.1177 28.4911 50.7071 28.7655C50.2965 29.0398 49.9764 29.4298 49.7875 29.886C49.5985 30.3423 49.549 30.8443 49.6454 31.3287C49.7417 31.813 49.9795 32.2579 50.3287 32.6071C50.6779 32.9563 51.1228 33.1941 51.6072 33.2904C52.0915 33.3868 52.5935 33.3373 53.0498 33.1484C53.506 32.9594 53.896 32.6393 54.1703 32.2287C54.4447 31.8181 54.5911 31.3354 54.5911 30.8415C54.5905 30.1795 54.3272 29.5448 53.8591 29.0767C53.391 28.6086 52.7563 28.3453 52.0943 28.3447ZM44.0138 28.3447C43.5199 28.3445 43.0371 28.4908 42.6263 28.7651C42.2156 29.0393 41.8955 29.4292 41.7064 29.8855C41.5173 30.3417 41.4677 30.8438 41.564 31.3282C41.6602 31.8126 41.8979 32.2575 42.2471 32.6068C42.5963 32.9561 43.0412 33.194 43.5255 33.2904C44.0099 33.3868 44.512 33.3374 44.9683 33.1484C45.4246 32.9595 45.8146 32.6394 46.089 32.2288C46.3634 31.8182 46.5098 31.3354 46.5098 30.8415C46.5092 30.1797 46.246 29.5451 45.7781 29.077C45.3101 28.6089 44.6756 28.3455 44.0138 28.3447Z" fill="url(#paint0_linear_2333_4369)"/>
</g>
</g>
</g>
<g id="Group 3026" filter="url(#filter0_dd_2333_4369)">
<path id="&#229;&#135;&#143;&#229;&#142;&#187; 4" d="M107.64 42.7784L90.2218 25.3605C89.27 24.4087 88.7353 23.1177 88.7353 21.7717C88.7353 20.4256 89.27 19.1347 90.2218 18.1828C91.1736 17.231 92.4646 16.6963 93.8106 16.6963C95.1567 16.6963 96.4477 17.231 97.3995 18.1828L99.5673 20.3507C101.24 18.9088 103.372 18.1109 105.58 18.1004C107.788 18.0898 109.927 18.8672 111.614 20.2929L113.937 17.9691C113.702 17.4755 113.648 16.9144 113.786 16.385C113.924 15.8555 114.244 15.3919 114.691 15.0761C115.138 14.7602 115.682 14.6124 116.227 14.6588C116.772 14.7052 117.283 14.9429 117.67 15.3297C118.057 15.7166 118.294 16.2277 118.341 16.7728C118.387 17.3179 118.239 17.8619 117.924 18.3086C117.608 18.7552 117.144 19.0759 116.615 19.2138C116.085 19.3517 115.524 19.298 115.03 19.0622L112.707 21.386C114.132 23.0724 114.91 25.2119 114.9 27.4202C114.889 29.6284 114.092 31.7606 112.65 33.4335L114.817 35.6007C115.289 36.072 115.663 36.6315 115.918 37.2473C116.173 37.8631 116.304 38.5231 116.304 39.1896C116.304 39.8561 116.173 40.516 115.918 41.1318C115.663 41.7476 115.289 42.3071 114.817 42.7784C114.346 43.2497 113.787 43.6235 113.171 43.8786C112.555 44.1336 111.895 44.2649 111.229 44.2649C110.562 44.2649 109.902 44.1336 109.286 43.8786C108.671 43.6235 108.111 43.2497 107.64 42.7784ZM111.007 36.2041C110.737 35.9277 110.39 35.7379 110.011 35.659C109.632 35.5801 109.238 35.6155 108.88 35.7608C108.521 35.9061 108.214 36.1547 107.997 36.4751C107.78 36.7954 107.663 37.1731 107.661 37.56C107.659 37.947 107.772 38.3259 107.985 38.6484C108.199 38.971 108.504 39.2228 108.861 39.3719C109.218 39.5209 109.611 39.5604 109.991 39.4854C110.371 39.4105 110.719 39.2243 110.993 38.9507C111.358 38.588 111.564 38.0954 111.567 37.5809C111.569 37.0664 111.367 36.5719 111.006 36.2058L111.007 36.2041ZM103.902 29.099C103.632 28.8226 103.285 28.6328 102.906 28.5539C102.527 28.475 102.133 28.5104 101.775 28.6557C101.416 28.801 101.109 29.0496 100.892 29.37C100.674 29.6903 100.557 30.068 100.555 30.455C100.553 30.8419 100.666 31.2208 100.88 31.5434C101.094 31.866 101.399 32.1178 101.756 32.2668C102.113 32.4158 102.506 32.4553 102.886 32.3804C103.266 32.3054 103.614 32.1193 103.888 31.8456C104.253 31.4829 104.459 30.9903 104.461 30.4758C104.464 29.9613 104.262 29.4668 103.901 29.1007L103.902 29.099ZM96.7972 21.9939C96.5265 21.7175 96.1796 21.5277 95.8008 21.4488C95.4219 21.3699 95.0282 21.4053 94.6695 21.5506C94.3109 21.6959 94.0035 21.9445 93.7864 22.2649C93.5693 22.5853 93.4524 22.9629 93.4504 23.3499C93.4483 23.7368 93.5614 24.1157 93.7751 24.4383C93.9888 24.7609 94.2936 25.0127 94.6508 25.1617C95.0079 25.3107 95.4012 25.3503 95.7809 25.2753C96.1605 25.2003 96.5093 25.0142 96.783 24.7405C97.1479 24.3777 97.3542 23.8849 97.3564 23.3703C97.3586 22.8556 97.1567 22.3611 96.795 21.9951L96.7972 21.9939Z" fill="#FAFAFA"/>
<path id="&#231;&#155;&#180;&#231;&#186;&#191; 1" d="M86.6336 29.2065L45.423 45.3676" stroke="white" stroke-width="0.808051" stroke-dasharray="1.62 1.62"/>
<path id="&#231;&#155;&#180;&#231;&#186;&#191; 2" d="M103.603 46.9839L89.0577 93.8508" stroke="white" stroke-width="0.808051" stroke-dasharray="1.62 1.62"/>
<path id="&#231;&#159;&#169;&#229;&#189;&#162; 3982" d="M99.9688 41.733L91.2684 33.0327C90.6827 32.447 90.3537 31.6526 90.3537 30.8243C90.3537 29.996 90.6827 29.2016 91.2684 28.6159L104.386 41.733C103.8 42.3187 103.005 42.6478 102.177 42.6478C101.349 42.6478 100.555 42.3187 99.9688 41.733Z" fill="#FAFAFA"/>
</g>
</g>
<defs>
<filter id="filter0_dd_2333_4369" x="40.2755" y="9.65039" width="82.0737" height="92.3203" filterUnits="userSpaceOnUse" color-interpolation-filters="sRGB">
<feFlood flood-opacity="0" result="BackgroundImageFix"/>
<feColorMatrix in="SourceAlpha" type="matrix" values="0 0 0 0 0 0 0 0 0 0 0 0 0 0 0 0 0 0 127 0" result="hardAlpha"/>
<feOffset dx="-1" dy="-1"/>
<feGaussianBlur stdDeviation="2"/>
<feComposite in2="hardAlpha" operator="out"/>
<feColorMatrix type="matrix" values="0 0 0 0 0 0 0 0 0 0 0 0 0 0 0 0 0 0 0.1 0"/>
<feBlend mode="normal" in2="BackgroundImageFix" result="effect1_dropShadow_2333_4369"/>
<feColorMatrix in="SourceAlpha" type="matrix" values="0 0 0 0 0 0 0 0 0 0 0 0 0 0 0 0 0 0 127 0" result="hardAlpha"/>
<feOffset dy="4"/>
<feGaussianBlur stdDeviation="2"/>
<feComposite in2="hardAlpha" operator="out"/>
<feColorMatrix type="matrix" values="0 0 0 0 0 0 0 0 0 0 0 0 0 0 0 0 0 0 0.1 0"/>
<feBlend mode="normal" in2="effect1_dropShadow_2333_4369" result="effect2_dropShadow_2333_4369"/>
<feBlend mode="normal" in="SourceGraphic" in2="effect2_dropShadow_2333_4369" result="shape"/>
</filter>
<linearGradient id="paint0_linear_2333_4369" x1="32.5" y1="24" x2="100" y2="95" gradientUnits="userSpaceOnUse">
<stop stop-color="#E5E5E5"/>
<stop offset="1" stop-color="#BFBFBF"/>
</linearGradient>
</defs>
</svg>
