<svg width="48" height="48" viewBox="0 0 48 48" fill="none" xmlns="http://www.w3.org/2000/svg">
<g id="31shijian 1">
<path id="Vector" d="M37.9752 10.025C30.2695 2.31785 17.7305 2.31785 10.0247 10.025C2.31762 17.7307 2.31762 30.2698 10.0247 37.9755C17.7305 45.6826 30.2696 45.6826 37.9752 37.9755C45.6824 30.2698 45.6824 17.7307 37.9752 10.025ZM35.9694 35.9696C29.3695 42.571 18.6291 42.5695 12.0306 35.9696C5.42931 29.3697 5.42931 18.6307 12.0306 12.0301C18.6291 5.43089 29.3695 5.4295 35.9694 12.0301C42.5692 18.6293 42.5692 29.3711 35.9694 35.9696Z" fill="#F97917" stroke="#F97917"/>
<path id="Vector_2" d="M33.818 24.4449H24.1596L24.1609 13.7598C24.1609 13.0508 23.5814 12.4727 22.8718 12.4727C22.1621 12.4727 21.5854 13.0508 21.5854 13.7598V24.7808C21.5854 24.82 21.5379 25.7411 22.1523 26.3961C22.5429 26.8091 23.0916 27.019 23.7999 27.019L33.8181 27.0205C34.5278 27.0205 35.1058 26.4438 35.1058 25.7326C35.1057 25.0257 34.5291 24.449 33.818 24.4449Z" fill="#F97917" stroke="#F97917"/>
</g>
</svg>
