<svg width="20" height="20" viewBox="0 0 20 20" fill="none" xmlns="http://www.w3.org/2000/svg">
<path d="M18.0027 4.94169C17.9982 4.54049 17.9127 4.14432 17.7515 3.77691C17.5903 3.40949 17.3566 3.07837 17.0644 2.80337C15.8977 1.6967 14.0044 1.73837 12.8461 2.89753L11.2361 4.5167C10.8559 4.17015 10.3567 3.98345 9.8424 3.9954C9.32808 4.00735 8.83815 4.21703 8.47443 4.58086L7.72443 5.33086C7.60046 5.45469 7.50211 5.60174 7.43501 5.7636C7.36792 5.92547 7.33338 6.09897 7.33338 6.27419C7.33338 6.44941 7.36792 6.62291 7.43501 6.78478C7.50211 6.94664 7.60046 7.09369 7.72443 7.21752L7.89109 7.38919L3.6411 11.6392C3.23202 12.0451 2.93591 12.5507 2.78201 13.106C2.62812 13.6614 2.62178 14.2473 2.76361 14.8058L2.09694 16.34C2.00396 16.5508 1.97705 16.7849 2.01974 17.0113C2.06244 17.2377 2.17274 17.4459 2.33611 17.6083C2.52508 17.7986 2.76725 17.927 3.03071 17.9769C3.29417 18.0267 3.56654 17.9956 3.81194 17.8875L5.27193 17.25C5.82046 17.3741 6.3915 17.357 6.93162 17.2004C7.47175 17.0437 7.9633 16.7525 8.36026 16.3542L12.6102 12.1042L12.7819 12.2758C13.0319 12.5257 13.3709 12.6661 13.7244 12.6661C14.0779 12.6661 14.4169 12.5257 14.6669 12.2758L15.4169 11.5258C15.7814 11.1616 15.9912 10.6708 16.0027 10.1557C16.0142 9.64061 15.8264 9.14094 15.4786 8.76085L17.1244 7.10502C17.4089 6.82215 17.6334 6.48473 17.7843 6.11299C17.9353 5.74125 18.0095 5.34285 18.0027 4.94169ZM7.41943 15.4167C7.16288 15.6738 6.84117 15.8561 6.48882 15.9442C6.13647 16.0323 5.76678 16.0228 5.41943 15.9167C5.26713 15.8697 5.10306 15.8789 4.95693 15.9425L3.4486 16.6017L4.0861 15.1175C4.15225 14.9659 4.15968 14.7951 4.10694 14.6383C3.98612 14.2853 3.96699 13.9055 4.05172 13.5421C4.13644 13.1787 4.32161 12.8465 4.5861 12.5833L8.83609 8.33335L11.6644 11.1667L7.41943 15.4167ZM16.1802 6.16669L14.0661 8.29335C13.9414 8.41833 13.8714 8.58765 13.8714 8.76418C13.8714 8.94072 13.9414 9.11004 14.0661 9.23502L14.4736 9.64252C14.5356 9.70443 14.5847 9.77796 14.6183 9.85889C14.6518 9.93982 14.6691 10.0266 14.6691 10.1142C14.6691 10.2018 14.6518 10.2885 14.6183 10.3695C14.5847 10.4504 14.5356 10.5239 14.4736 10.5858L13.7236 11.3358L8.66942 6.27169L9.41942 5.52169C9.54443 5.39676 9.71394 5.32659 9.89067 5.32659C10.0674 5.32659 10.2369 5.39676 10.3619 5.52169L10.7694 5.92919C10.8313 5.9913 10.9049 6.04058 10.9859 6.0742C11.0669 6.10782 11.1538 6.12513 11.2415 6.12513C11.3292 6.12513 11.4161 6.10782 11.4971 6.0742C11.5781 6.04058 11.6517 5.9913 11.7136 5.92919L13.7919 3.83836C14.4427 3.1867 15.5002 3.1567 16.1494 3.77086C16.3116 3.92403 16.4413 4.10818 16.531 4.31241C16.6207 4.51664 16.6684 4.73679 16.6715 4.95982C16.6745 5.18285 16.6327 5.40422 16.5486 5.61081C16.4645 5.8174 16.3398 6.00501 16.1819 6.16252L16.1802 6.16669Z" fill="#0A1532"/>
</svg>
