<svg width="20" height="20" viewBox="0 0 20 20" fill="none" xmlns="http://www.w3.org/2000/svg">
<path d="M14.3263 7.32267H15.3602V9.06584L18 6L15.361 3V4.99025H14.3273C11.3673 4.99025 9.43651 7.27117 7.96184 9.28358C6.63825 11.0925 5.49251 12.7992 3.64625 12.7992H2V15.1325H3.64542C6.60542 15.1325 8.27568 12.7077 9.75117 10.6952C11.0748 8.88533 12.4756 7.32267 14.3263 7.32267ZM6.30492 8.65691L6.68809 8.13775C7.00266 7.71026 7.33168 7.25691 7.68983 6.80708C6.62942 5.77857 5.35291 5.01949 3.64542 5.01949H2V7.35199C2 7.35199 2.44359 7.32974 3.64542 7.35199C4.80893 7.37775 5.53867 7.872 6.3049 8.65691H6.30492ZM15.361 12.8888H14.3272C13.2 12.8888 12.0747 12.2356 11.2685 11.3689C11.1887 11.4804 11.1075 11.591 11.025 11.7005C10.6712 12.1831 10.2917 12.7031 9.87299 13.2152C10.9611 14.3173 12.5379 15.2213 14.3272 15.2213H15.361V17.2222L18 14.1511L15.361 11.1566L15.361 12.8888Z" fill="#0A1532" fill-opacity="0.4"/>
</svg>
