<svg width="20" height="20" viewBox="0 0 20 20" fill="none" xmlns="http://www.w3.org/2000/svg">
<path d="M9.31814 3.18185V2.27276C9.31814 1.90912 9.63632 1.59094 9.99996 1.59094C10.3636 1.59094 10.6818 1.90912 10.6818 2.27276V3.18185C10.6818 3.54549 10.3636 3.86367 9.99996 3.86367C9.63632 3.86367 9.31814 3.54549 9.31814 3.18185ZM4.99996 5.54549C5.13632 5.68185 5.31814 5.72731 5.49996 5.72731C5.68177 5.72731 5.86359 5.68185 5.99996 5.54549C6.27268 5.27276 6.27268 4.86367 5.99996 4.59094L5.36359 3.95458C5.09087 3.6364 4.63632 3.6364 4.36359 3.90912C4.09086 4.18185 4.09086 4.59094 4.36359 4.86367L4.99996 5.54549ZM3.63632 8.86367H2.72723C2.36359 8.86367 2.04541 9.18185 2.04541 9.54549C2.04541 9.90912 2.36359 10.2273 2.72723 10.2273H3.63632C3.99996 10.2273 4.31814 9.90912 4.31814 9.54549C4.31814 9.18185 3.99996 8.86367 3.63632 8.86367ZM4.99996 13.5455L4.36359 14.1819C4.09086 14.4546 4.09086 14.8637 4.36359 15.1364C4.49996 15.2728 4.68177 15.3182 4.86359 15.3182C5.04541 15.3182 5.22723 15.2728 5.36359 15.1364L5.99996 14.5C6.27268 14.2273 6.27268 13.8182 5.99996 13.5455C5.72723 13.2728 5.27268 13.3182 4.99996 13.5455ZM11.8181 15.2273H8.18177C7.81814 15.2273 7.49996 15.5455 7.49996 15.9091C7.49996 16.2728 7.81814 16.5909 8.18177 16.5909H11.8181C12.1818 16.5909 12.5 16.2728 12.5 15.9091C12.5 15.5455 12.1818 15.2273 11.8181 15.2273ZM10.909 17.0455H9.09087C8.72723 17.0455 8.40905 17.3637 8.40905 17.7273C8.40905 18.0909 8.72723 18.4091 9.09087 18.4091H10.909C11.2727 18.4091 11.5909 18.0909 11.5909 17.7273C11.5909 17.3637 11.2727 17.0455 10.909 17.0455ZM15 13.5455C14.7272 13.2728 14.3181 13.2728 14.0454 13.5455C13.7727 13.8182 13.7727 14.2273 14.0454 14.5L14.6818 15.1364C14.8181 15.2728 15 15.3182 15.1818 15.3182C15.3636 15.3182 15.5454 15.2728 15.6818 15.1364C15.9545 14.8637 15.9545 14.4546 15.6818 14.1819L15 13.5455ZM17.2727 8.86367H16.3636C16 8.86367 15.6818 9.18185 15.6818 9.54549C15.6818 9.90912 16 10.2273 16.3636 10.2273H17.2727C17.6363 10.2273 17.9545 9.90912 17.9545 9.54549C17.9545 9.18185 17.6363 8.86367 17.2727 8.86367ZM14.5 5.72731C14.6818 5.72731 14.8636 5.68185 15 5.54549L15.6363 4.90912C15.909 4.6364 15.909 4.22731 15.6363 3.95458C15.3636 3.68185 14.9545 3.68185 14.6818 3.95458L14 4.54549C13.7272 4.81822 13.7272 5.22731 14 5.50003C14.1363 5.68185 14.3181 5.72731 14.5 5.72731ZM9.99996 4.54549C7.22723 4.54549 4.99996 6.77276 4.99996 9.54549C4.99996 12.3182 7.22723 14.5455 9.99996 14.5455C12.7727 14.5455 15 12.3182 15 9.54549C15 6.77276 12.7727 4.54549 9.99996 4.54549Z" fill="url(#paint0_linear_40_658)"/>
<defs>
<linearGradient id="paint0_linear_40_658" x1="9.99996" y1="1.59094" x2="9.99996" y2="18.4091" gradientUnits="userSpaceOnUse">
<stop stop-color="#704CFF"/>
<stop offset="1" stop-color="#AD99FF"/>
</linearGradient>
</defs>
</svg>
