<svg width="17" height="20" viewBox="0 0 17 20" fill="none" xmlns="http://www.w3.org/2000/svg">
<path d="M14.8745 10.3616C15.4197 10.3616 15.7604 9.694 15.4878 9.15993C15.3613 8.91207 15.1275 8.75936 14.8745 8.75936C10.4974 8.6472 8.50014 6.35593 8.50014 1.54907C8.50014 1.10664 8.18301 0.747925 7.79188 0.747925C7.40075 0.747925 7.08362 1.10664 7.08362 1.54907C7.08362 6.39599 5.03676 8.68726 0.70931 8.75936C0.164096 8.75936 -0.176662 9.42701 0.0959446 9.96107C0.222491 10.2089 0.456288 10.3616 0.70931 10.3616C5.00135 10.3616 7.01988 12.6529 7.08362 17.5719C7.08362 18.0144 7.40068 18.3731 7.79188 18.3731C8.18301 18.3731 8.50014 18.0144 8.50014 17.5719C8.7197 12.6289 10.7311 10.3616 14.832 10.3616H14.8745Z" fill="url(#paint0_linear_6_548)"/>
<path d="M12.0556 3.2475H12.941V4.24893C12.941 4.71147 13.3836 5.00054 13.7378 4.76927C13.9021 4.66193 14.0034 4.46361 14.0034 4.24893V3.2475H14.8887C15.2976 3.2475 15.5531 2.74679 15.3487 2.34622C15.2538 2.16032 15.0785 2.04579 14.8887 2.04579H14.0034V1.04436C14.0034 0.581822 13.5607 0.292757 13.2066 0.524026C13.0422 0.631362 12.941 0.829686 12.941 1.04436V2.04579H12.0556C11.6467 2.04579 11.3912 2.5465 11.5956 2.94708C11.6905 3.13297 11.8659 3.2475 12.0556 3.2475Z" fill="url(#paint1_linear_6_548)"/>
<path d="M16.468 16.3702H15.5827V15.3688C15.5827 14.9063 15.14 14.6172 14.7859 14.8485C14.6216 14.9558 14.5203 15.1541 14.5203 15.3688V16.3702H13.635C13.2261 16.3702 12.9705 16.8709 13.175 17.2715C13.2699 17.4574 13.4452 17.5719 13.635 17.5719H14.5203V18.5734C14.5203 19.0359 14.963 19.325 15.3171 19.0937C15.4815 18.9864 15.5827 18.788 15.5827 18.5734V17.5719H16.468C16.8769 17.5719 17.1325 17.0712 16.928 16.6707C16.8331 16.4848 16.6578 16.3702 16.468 16.3702Z" fill="url(#paint2_linear_6_548)"/>
<defs>
<linearGradient id="paint0_linear_6_548" x1="7.79188" y1="0.747925" x2="7.79188" y2="18.3731" gradientUnits="userSpaceOnUse">
<stop stop-color="#F97917"/>
<stop offset="1" stop-color="#E0FF13"/>
</linearGradient>
<linearGradient id="paint1_linear_6_548" x1="13.4722" y1="0.442627" x2="13.4722" y2="4.85067" gradientUnits="userSpaceOnUse">
<stop stop-color="#F97917"/>
<stop offset="1" stop-color="#E0FF13"/>
</linearGradient>
<linearGradient id="paint2_linear_6_548" x1="15.0515" y1="14.7671" x2="15.0515" y2="19.1751" gradientUnits="userSpaceOnUse">
<stop stop-color="#F97917"/>
<stop offset="1" stop-color="#E0FF13"/>
</linearGradient>
</defs>
</svg>
