<svg width="40" height="40" viewBox="0 0 40 40" fill="none" xmlns="http://www.w3.org/2000/svg">
<path d="M0 8C0 3.58172 3.58172 0 8 0H32C36.4183 0 40 3.58172 40 8V32C40 36.4183 36.4183 40 32 40H8C3.58172 40 0 36.4183 0 32V8Z" fill="#F97917"/>
<path fill-rule="evenodd" clip-rule="evenodd" d="M19.5906 12.8071C19.8314 12.6198 20.1685 12.6198 20.4092 12.8071L26.4092 17.4737C26.5716 17.6 26.6666 17.7942 26.6666 18V25.3333C26.6666 25.8637 26.4559 26.3724 26.0808 26.7475C25.7057 27.1226 25.197 27.3333 24.6666 27.3333H15.3333C14.8028 27.3333 14.2941 27.1226 13.919 26.7475C13.544 26.3724 13.3333 25.8637 13.3333 25.3333V18C13.3333 17.7942 13.4282 17.6 13.5906 17.4737L19.5906 12.8071ZM14.6666 18.326V25.3333C14.6666 25.5101 14.7368 25.6797 14.8618 25.8047C14.9869 25.9297 15.1564 26 15.3333 26H24.6666C24.8434 26 25.013 25.9297 25.138 25.8047C25.263 25.6797 25.3333 25.5101 25.3333 25.3333V18.326L19.9999 14.1779L14.6666 18.326Z" fill="white"/>
<path fill-rule="evenodd" clip-rule="evenodd" d="M17.3333 20C17.3333 19.6319 17.6317 19.3334 17.9999 19.3334H21.9999C22.3681 19.3334 22.6666 19.6319 22.6666 20V26.6667C22.6666 27.0349 22.3681 27.3334 21.9999 27.3334C21.6317 27.3334 21.3333 27.0349 21.3333 26.6667V20.6667H18.6666V26.6667C18.6666 27.0349 18.3681 27.3334 17.9999 27.3334C17.6317 27.3334 17.3333 27.0349 17.3333 26.6667V20Z" fill="white"/>
</svg>
