<svg width="40" height="40" viewBox="0 0 40 40" fill="none" xmlns="http://www.w3.org/2000/svg">
<path fill-rule="evenodd" clip-rule="evenodd" d="M21.9999 12.6666C22.3681 12.6666 22.6666 12.9651 22.6666 13.3333V14.6666C22.6666 15.0348 22.3681 15.3333 21.9999 15.3333C21.6317 15.3333 21.3333 15.0348 21.3333 14.6666V13.3333C21.3333 12.9651 21.6317 12.6666 21.9999 12.6666Z" fill="#999999"/>
<path fill-rule="evenodd" clip-rule="evenodd" d="M21.9999 20.6666C22.3681 20.6666 22.6666 20.9651 22.6666 21.3333V22.6666C22.6666 23.0348 22.3681 23.3333 21.9999 23.3333C21.6317 23.3333 21.3333 23.0348 21.3333 22.6666V21.3333C21.3333 20.9651 21.6317 20.6666 21.9999 20.6666Z" fill="#999999"/>
<path fill-rule="evenodd" clip-rule="evenodd" d="M16.6667 18C16.6667 17.6319 16.9652 17.3334 17.3334 17.3334H18.6667C19.0349 17.3334 19.3334 17.6319 19.3334 18C19.3334 18.3682 19.0349 18.6667 18.6667 18.6667H17.3334C16.9652 18.6667 16.6667 18.3682 16.6667 18Z" fill="#999999"/>
<path fill-rule="evenodd" clip-rule="evenodd" d="M24.6667 18C24.6667 17.6319 24.9652 17.3334 25.3334 17.3334H26.6667C27.0349 17.3334 27.3334 17.6319 27.3334 18C27.3334 18.3682 27.0349 18.6667 26.6667 18.6667H25.3334C24.9652 18.6667 24.6667 18.3682 24.6667 18Z" fill="#999999"/>
<path fill-rule="evenodd" clip-rule="evenodd" d="M23.3952 19.3952C23.6556 19.1349 24.0777 19.1349 24.338 19.3952L25.138 20.1952C25.3984 20.4556 25.3984 20.8777 25.138 21.138C24.8777 21.3984 24.4556 21.3984 24.1952 21.138L23.3952 20.338C23.1349 20.0777 23.1349 19.6556 23.3952 19.3952Z" fill="#999999"/>
<path fill-rule="evenodd" clip-rule="evenodd" d="M25.138 14.8619C25.3984 15.1222 25.3984 15.5443 25.138 15.8047L24.338 16.6047C24.0777 16.865 23.6556 16.865 23.3952 16.6047C23.1349 16.3443 23.1349 15.9222 23.3952 15.6619L24.1952 14.8619C24.4556 14.6015 24.8777 14.6015 25.138 14.8619Z" fill="#999999"/>
<path fill-rule="evenodd" clip-rule="evenodd" d="M20.4713 19.5286C20.7317 19.789 20.7317 20.2111 20.4713 20.4714L14.4713 26.4714C14.211 26.7318 13.7889 26.7318 13.5285 26.4714C13.2682 26.2111 13.2682 25.789 13.5285 25.5286L19.5285 19.5286C19.7889 19.2683 20.211 19.2683 20.4713 19.5286Z" fill="#999999"/>
<path fill-rule="evenodd" clip-rule="evenodd" d="M18.862 14.8619C19.1224 14.6015 19.5445 14.6015 19.8048 14.8619L20.6048 15.6619C20.8652 15.9222 20.8652 16.3443 20.6048 16.6047C20.3445 16.865 19.9224 16.865 19.662 16.6047L18.862 15.8047C18.6017 15.5443 18.6017 15.1222 18.862 14.8619Z" fill="#999999"/>
</svg>
