<svg width="40" height="40" viewBox="0 0 40 40" fill="none" xmlns="http://www.w3.org/2000/svg">
<path fill-rule="evenodd" clip-rule="evenodd" d="M13.0273 14.0744C13.302 13.9325 13.6382 13.9981 13.8394 14.2328L17.2238 18.1812L19.4211 14.3359C19.5398 14.1282 19.7607 14 19.9999 14C20.2391 14 20.46 14.1282 20.5787 14.3359L22.7761 18.1812L26.1604 14.2328C26.3616 13.9981 26.6978 13.9325 26.9725 14.0744C27.2472 14.2163 27.3883 14.5284 27.3133 14.8284L25.3133 22.8284C25.2391 23.1252 24.9725 23.3334 24.6666 23.3334H15.3332C15.0273 23.3334 14.7607 23.1252 14.6865 22.8284L12.6865 14.8284C12.6115 14.5284 12.7526 14.2163 13.0273 14.0744ZM14.6649 17.2447L15.8538 22H24.1461L25.3349 17.2447L23.1727 19.7672C23.0317 19.9318 22.8193 20.0176 22.6035 19.997C22.3877 19.9765 22.1953 19.8524 22.0877 19.6641L19.9999 16.0104L17.9121 19.6641C17.8045 19.8524 17.6121 19.9765 17.3963 19.997C17.1805 20.0176 16.9682 19.9318 16.8271 19.7672L14.6649 17.2447ZM14.6666 25.3334C14.6666 24.9652 14.965 24.6667 15.3332 24.6667H24.6666C25.0348 24.6667 25.3332 24.9652 25.3332 25.3334C25.3332 25.7016 25.0348 26 24.6666 26H15.3332C14.965 26 14.6666 25.7016 14.6666 25.3334Z" fill="#999999"/>
</svg>
