<svg width="18" height="17" viewBox="0 0 18 17" fill="none" xmlns="http://www.w3.org/2000/svg">
<path d="M13.5547 0.375C13.8817 0.375002 14.1874 0.390791 14.4551 0.449219C14.7297 0.509186 15.0032 0.622532 15.2256 0.84375C15.4481 1.06515 15.5623 1.33829 15.623 1.61328C15.6822 1.88116 15.6992 2.18727 15.6992 2.51465C15.6992 2.98601 15.6723 3.28348 15.7422 3.58398L15.7988 3.79199C15.8643 4.00091 15.9532 4.21539 16.0566 4.46582C16.1871 4.78176 16.3406 5.15625 16.4229 5.56641L16.5195 6.08496C16.729 7.29945 16.8279 8.54307 16.8936 9.76953C16.9695 11.1897 17.0004 12.5517 17.1045 13.8975L17.1191 14.1162C17.1448 14.6267 17.1075 15.1476 16.7822 15.5439C16.4113 15.9958 15.8066 16.113 15.2334 16.1846H15.2324L12.0752 16.5781C11.7563 16.618 11.456 16.6395 11.1865 16.6152C10.9096 16.5903 10.6272 16.5136 10.3809 16.3262C10.1344 16.1387 9.98542 15.8867 9.8877 15.626C9.8164 15.4357 9.76587 15.2217 9.72559 14.9922L9.68848 14.7578L9.2041 11.375H8.79688L8.31152 14.7578C8.2657 15.0768 8.20746 15.3731 8.1123 15.627C8.01454 15.8877 7.8648 16.1387 7.61816 16.3262C7.37166 16.5135 7.08937 16.5904 6.8125 16.6152C6.61037 16.6334 6.39088 16.6253 6.15918 16.6035L5.92383 16.5781L2.7666 16.1846C2.19332 16.113 1.5887 15.9959 1.21777 15.5439C0.846096 15.091 0.850373 14.4751 0.894531 13.8984L1.44727 6.74316L1.50293 6.07129C1.52203 5.88436 1.5437 5.72531 1.5752 5.56738L1.57617 5.56543L1.65039 5.26562C1.73467 4.97263 1.84552 4.70271 1.94336 4.46582C2.08094 4.13272 2.19291 3.86243 2.25781 3.58398C2.29276 3.43361 2.30351 3.28353 2.30566 3.1123L2.30176 2.51465C2.30156 2.18739 2.31804 1.88206 2.37695 1.61426C2.43747 1.33923 2.55096 1.06539 2.77344 0.84375C2.99571 0.622373 3.26939 0.509194 3.54395 0.449219C3.81156 0.39077 4.11735 0.375 4.44434 0.375H13.5547ZM5.86914 3.875C5.8516 4.58549 5.77664 5.4925 5.45508 6.29688C5.23586 6.84519 4.89145 7.37672 4.34961 7.76758C3.87473 8.10996 3.28576 8.31614 2.5752 8.36328L2.1416 13.9941C2.09453 14.6092 2.1664 14.7297 2.18359 14.751C2.20122 14.7724 2.30594 14.8674 2.92188 14.9443H2.9209L6.07812 15.3369V15.3379L6.44922 15.3721C6.55128 15.3772 6.63379 15.3762 6.70117 15.3701C6.82877 15.3586 6.86075 15.3322 6.8623 15.3311C6.86623 15.3281 6.89874 15.3021 6.94141 15.1885C6.9887 15.0623 7.03229 14.8719 7.07422 14.5801L7.56348 11.168C7.40384 11.0901 7.25915 10.9946 7.12598 10.8867C6.96183 10.7538 6.81625 10.6057 6.68848 10.4697L6.30859 10.0674L6.22852 9.96875C6.06848 9.72621 6.09516 9.39712 6.30859 9.18359C6.52211 8.9701 6.85118 8.94349 7.09375 9.10352L7.19238 9.18359L7.59961 9.61328C7.72007 9.7415 7.81713 9.83907 7.91211 9.91602C8.07851 10.0508 8.23775 10.1249 8.49609 10.125H9.50391C9.7623 10.125 9.92155 10.0507 10.0879 9.91602C10.1829 9.83904 10.2798 9.74159 10.4004 9.61328C10.5129 9.49352 10.6567 9.3343 10.8086 9.18262C11.0528 8.93892 11.4485 8.93956 11.6924 9.18359C11.9363 9.42783 11.9356 9.82347 11.6914 10.0674C11.5581 10.2005 11.4473 10.3253 11.3115 10.4697C11.1837 10.6057 11.0382 10.7537 10.874 10.8867C10.7408 10.9946 10.5963 11.0901 10.4365 11.168L10.9258 14.5801L10.9902 14.9463C11.0123 15.0457 11.035 15.1245 11.0586 15.1875C11.102 15.3034 11.1346 15.3287 11.1377 15.3311C11.1397 15.3326 11.1722 15.3587 11.2988 15.3701C11.4335 15.3822 11.6287 15.3744 11.9209 15.3379V15.3369L15.0781 14.9443L15.4512 14.8848C15.7411 14.8246 15.8032 14.7671 15.8164 14.751C15.8291 14.7354 15.8728 14.6642 15.874 14.3701L15.8584 13.9941C15.7532 12.6342 15.7176 11.2008 15.6445 9.83594C15.6181 9.34208 15.5863 8.85235 15.5449 8.36816L15.4365 8.36523C14.7209 8.3195 14.1278 8.11187 13.6504 7.76758C13.1087 7.37672 12.7641 6.84513 12.5449 6.29688C12.2234 5.49256 12.1484 4.58542 12.1309 3.875H5.86914ZM13.3818 3.875C13.3994 4.51826 13.465 5.2301 13.7061 5.83301C13.8618 6.22255 14.08 6.53614 14.3818 6.75391C14.6236 6.92819 14.9518 7.0627 15.4092 7.10742C15.3515 6.66994 15.2828 6.23814 15.1973 5.81348V5.8125C15.1422 5.53752 15.0357 5.26781 14.9014 4.94238C14.806 4.71144 14.6938 4.44586 14.6045 4.16016L14.5264 3.875H13.3818ZM3.47363 3.875C3.38084 4.26963 3.22522 4.63688 3.09863 4.94336C2.96453 5.26804 2.85669 5.53666 2.80078 5.81152L2.80176 5.8125C2.77929 5.92521 2.76301 6.03999 2.74707 6.19727L2.69336 6.83887L2.67285 7.09961C3.08847 7.04743 3.39189 6.9178 3.61914 6.75391C3.92104 6.53612 4.13914 6.22265 4.29492 5.83301C4.53594 5.23009 4.60155 4.51827 4.61914 3.875H3.47363ZM4.44434 1.625C4.14401 1.625 3.94515 1.6415 3.81055 1.6709C3.68483 1.69839 3.65629 1.72842 3.65527 1.72949C3.65262 1.73203 3.62423 1.76207 3.59766 1.88281C3.56825 2.01649 3.55159 2.21382 3.55176 2.51367V2.51465L3.55273 2.625H14.4482C14.4488 2.58623 14.4492 2.54935 14.4492 2.51465C14.4492 2.21465 14.4319 2.01649 14.4023 1.88281C14.3748 1.75853 14.3449 1.73052 14.3438 1.72949C14.3403 1.72608 14.3093 1.69729 14.1885 1.6709C14.0538 1.64148 13.855 1.625 13.5547 1.625H4.44434Z" fill="#0A1532"/>
</svg>
