<svg xmlns="http://www.w3.org/2000/svg" width="20" height="20" viewBox="0 0 20 20" fill="none">
<g id="diaodai 2">
<path id="Vector" d="M7.0778 8.99434C7.03985 9.05759 6.93549 9.22521 6.76471 9.49719C6.59393 9.76917 6.38837 10.0917 6.14801 10.4649C5.90766 10.8381 5.64517 11.2366 5.36054 11.6604C5.07591 12.0842 4.80393 12.4858 4.5446 12.8653C4.28527 13.2448 4.04491 13.58 3.82353 13.871C3.60216 14.162 3.43454 14.358 3.32069 14.4592C2.99178 14.7502 2.7957 15.0064 2.73245 15.2277C2.6692 15.4491 2.78938 15.6673 3.09298 15.8824C3.24479 15.9962 3.5136 16.1227 3.89944 16.2619C4.28527 16.401 4.7723 16.537 5.36054 16.6699C5.94877 16.8027 6.63505 16.9134 7.41936 17.0019C8.20367 17.0905 9.07654 17.1348 10.038 17.1348C10.9614 17.1348 11.8027 17.0936 12.5617 17.0114C13.3207 16.9292 13.988 16.828 14.5636 16.7078C15.1392 16.5876 15.6135 16.4611 15.9867 16.3283C16.3599 16.1955 16.6287 16.0785 16.7932 15.9773L7.0778 8.99434ZM7.0778 8.99434C7.20431 8.77929 7.28337 8.60534 7.315 8.47252C7.34662 8.33969 7.37508 8.2037 7.40038 8.06455C7.42569 7.9254 7.38141 7.74829 7.26756 7.53324C7.15371 7.31819 7.0272 6.9703 6.88805 6.4896C6.673 5.76853 6.62556 5.22141 6.74574 4.84823C6.86591 4.47505 7.10943 4.17461 7.47629 3.9469L7.0778 8.99434ZM9.69272 5.12452L10.0296 5.44613L10.3743 5.13281C10.5039 5.01496 10.6396 4.89678 10.7815 4.77827C10.9005 4.69253 11.0386 4.60427 11.1968 4.51385C11.3251 4.44058 11.462 4.39021 11.6102 4.36244L11.6176 4.36105L11.6249 4.35945C11.9795 4.28187 12.1957 4.30487 12.3191 4.35421C12.4251 4.39663 12.5861 4.5227 12.7739 4.84222C12.8237 4.93041 12.8635 5.062 12.8683 5.2589C12.8737 5.48127 12.8548 5.71216 12.8101 5.95222C12.7638 6.20134 12.7 6.44789 12.6186 6.69201C12.5348 6.94362 12.4548 7.14138 12.3801 7.29066C12.2795 7.49197 12.2014 7.69669 12.1716 7.8955C12.1444 8.07687 12.1476 8.2593 12.1874 8.43867C12.2257 8.61088 12.2947 8.77553 12.3851 8.93176C12.4447 9.0347 12.51 9.16178 12.5808 9.31497C12.6488 9.46667 12.7842 9.69667 12.9641 9.98205C13.1517 10.2796 13.3767 10.6202 13.6384 11.0032C13.8973 11.382 14.172 11.7861 14.4625 12.2157C14.7564 12.65 15.0412 13.0565 15.317 13.4349C15.5912 13.8112 15.8411 14.1444 16.0664 14.4341C16.2881 14.7192 16.4802 14.9449 16.6318 15.0796L16.6327 15.0804C16.7469 15.1815 16.8067 15.2553 16.8356 15.3007C16.7903 15.3676 16.7049 15.4518 16.5451 15.5431L16.538 15.5472L16.5311 15.5514C16.4136 15.6238 16.1861 15.7266 15.8191 15.8573C15.4748 15.9798 15.0243 16.1008 14.4614 16.2184C13.9057 16.3344 13.2551 16.4334 12.5078 16.5143C11.7699 16.5943 10.947 16.6348 10.038 16.6348C9.09141 16.6348 8.23765 16.5911 7.47546 16.5051C6.70411 16.418 6.03661 16.3099 5.47067 16.1821C4.89417 16.052 4.42872 15.9213 4.06907 15.7915C3.68871 15.6544 3.48087 15.5483 3.39298 15.4824L3.39309 15.4822L3.38199 15.4744C3.28972 15.409 3.24472 15.3605 3.22462 15.3336C3.26283 15.2439 3.37635 15.0776 3.65198 14.8337L3.65287 14.8329C3.80677 14.6961 4.00006 14.4647 4.22145 14.1738C4.44908 13.8746 4.69445 13.5322 4.95742 13.1474C5.21758 12.7667 5.49031 12.3639 5.77561 11.9392C6.06177 11.5131 6.32605 11.1119 6.56837 10.7357C6.8094 10.3614 7.01606 10.0372 7.18816 9.76307C7.35777 9.49294 7.46537 9.32023 7.50655 9.25159L7.50657 9.2516L7.50877 9.24785C7.64331 9.01913 7.7524 8.79413 7.8014 8.58833C7.83518 8.44646 7.86547 8.30167 7.89232 8.15399C7.94769 7.84946 7.84165 7.54901 7.70945 7.2993C7.62083 7.1319 7.50574 6.82525 7.36833 6.35057L7.36835 6.35056L7.3672 6.34669C7.15857 5.6472 7.14997 5.22412 7.22167 5.0015C7.30173 4.75288 7.46277 4.54384 7.73972 4.37188C7.89378 4.27658 8.0437 4.2519 8.21849 4.29195C8.48046 4.35199 8.71479 4.44065 8.92413 4.55579L8.92413 4.5558L8.92695 4.55733C9.1874 4.6984 9.44289 4.88604 9.69272 5.12452Z" stroke="#F97917"/>
<path id="Vector_2" d="M8.44399 2.35294C8.44399 2.47944 8.39655 2.58381 8.30167 2.66603C8.20679 2.74826 8.08346 2.78937 7.93165 2.78937C7.77985 2.78937 7.65967 2.7451 7.57112 2.65655C7.48257 2.56799 7.43829 2.45414 7.43829 2.31499V0.417457C7.43829 0.316256 7.48257 0.221379 7.57112 0.132827C7.65967 0.0442758 7.77985 3.90625e-08 7.93165 3.90625e-08C8.08346 3.90625e-08 8.20679 0.0411133 8.30167 0.12334C8.39655 0.205566 8.44399 0.30993 8.44399 0.436433V2.35294ZM12.5427 2.35294C12.5427 2.47944 12.4952 2.58381 12.4003 2.66603C12.3055 2.74826 12.1885 2.78937 12.0493 2.78937C11.9354 2.78937 11.8279 2.74826 11.7267 2.66603C11.6255 2.58381 11.5749 2.47312 11.5749 2.33397V0.493359C11.5749 0.354206 11.6192 0.237192 11.7077 0.142315C11.7963 0.0474383 11.9101 0 12.0493 0C12.2011 0 12.3213 0.0474383 12.4098 0.142315C12.4984 0.237192 12.5427 0.335231 12.5427 0.436433V2.35294Z" fill="#F97917"/>
</g>
</svg>