<svg width="16" height="16" viewBox="0 0 16 16" fill="none" xmlns="http://www.w3.org/2000/svg">
<path d="M13.641 14.0021L11.7785 6.20246L11.7729 3.26772C11.7729 3.09276 11.7221 2.92909 11.6374 2.78236C11.7221 2.64126 11.7672 2.47759 11.7672 2.31393V1.8455C11.7672 1.33191 11.3496 0.919922 10.8417 0.919922L4.89317 0.919922C4.37959 0.919922 3.9676 1.33756 3.9676 1.8455V2.31393C3.9676 2.48324 4.01275 2.65255 4.10305 2.79364C4.01839 2.93474 3.97324 3.0984 3.97324 3.26772L3.9676 6.20246L2.10516 14.0021C2.09952 14.019 2.09952 14.036 2.09952 14.0529C2.09952 14.5665 2.51715 14.9785 3.02509 14.9785H5.5422C6.04449 14.9785 6.45648 14.5778 6.46777 14.0811L7.86742 8.21163L9.26707 14.0811C9.284 14.5778 9.69035 14.9785 10.1926 14.9785H12.7097C13.2233 14.9785 13.6353 14.5608 13.6353 14.0529C13.6466 14.036 13.641 14.019 13.641 14.0021ZM5.55349 14.0021C5.54784 14.019 5.5422 14.0416 5.5422 14.0585H3.03073L4.84802 6.42821H5.38417C5.88647 6.42821 6.29282 6.02751 6.30975 5.5365L6.92491 3.33544C6.93056 3.31287 6.9362 3.29594 6.9362 3.27336V3.26772H7.39899L7.40463 6.23068C7.40463 6.23632 7.40463 6.23632 7.40463 6.24197L5.55349 14.0021ZM5.40111 5.43491C5.39546 5.45749 5.38982 5.48006 5.38982 5.49699H4.89317L4.89881 3.26207H5.98241C5.98805 3.26207 5.99934 3.26772 6.00499 3.26772L5.40111 5.43491ZM10.853 5.49699H10.3563C10.3563 5.47442 10.3507 5.45749 10.345 5.43491L9.7355 3.26772C9.74114 3.26772 9.75243 3.26772 9.75807 3.26207H10.8473L10.853 5.49699ZM8.34149 6.22504L8.34714 3.26207H8.80992V3.26772C8.80992 3.29029 8.81557 3.30722 8.82121 3.3298L9.43638 5.53086C9.45331 6.02751 9.8653 6.42257 10.362 6.42257H10.8981L12.7154 14.0529H10.1983C10.1983 14.036 10.1983 14.019 10.1926 14.0021L8.34149 6.23632C8.34149 6.23068 8.34149 6.23068 8.34149 6.22504ZM10.8417 1.8455V2.31393H4.89317V1.8455H10.8417Z" fill="#999999"/>
</svg>
