<svg width="16" height="16" viewBox="0 0 16 16" fill="none" xmlns="http://www.w3.org/2000/svg">
<path d="M11.7625 2.23755C11.8125 2.23755 11.8609 2.25786 11.8953 2.29224L14.9312 5.32817C15.0172 5.41411 15.0172 5.55161 14.9312 5.63755L13.5 7.07036L12 5.57036V13.9844H6.99999V14H3.99999V5.58599L2.49999 7.08599L1.06874 5.65474C0.982806 5.5688 0.982806 5.4313 1.06874 5.34536L4.10937 2.30474C4.14531 2.2688 4.19218 2.25005 4.24218 2.25005H5.48437C6.00624 2.67036 6.93124 3.25005 8.05624 3.25005C9.18281 3.25005 10.1094 2.6688 10.6312 2.24692L11.7609 2.23755H11.7625ZM11.7625 1.23755H11.7531L10.4437 1.24849C10.325 1.25005 10.2094 1.29224 10.1203 1.37036C9.81406 1.63599 9.00624 2.25005 8.05624 2.25005C7.10937 2.25005 6.30156 1.63911 5.99374 1.37192C5.90312 1.29224 5.78593 1.25005 5.66562 1.25005H4.24374C3.92812 1.25005 3.62656 1.37505 3.40468 1.59849L0.360931 4.63755C-0.115631 5.11411 -0.115631 5.88442 0.360931 6.36099L1.99999 8.00005C2.13749 8.13755 2.31874 8.20786 2.49999 8.20786C2.68124 8.20786 2.86249 8.13911 2.99999 8.00005V14.5C2.99999 14.7766 3.22343 15 3.49999 15H7.99999V14.9844H12.5C12.7766 14.9844 13 14.761 13 14.4844V7.98442C13.1375 8.12192 13.3187 8.19224 13.5 8.19224C13.6812 8.19224 13.8625 8.12349 14 7.98442L15.6375 6.34692C16.1141 5.87036 16.1141 5.10005 15.6375 4.62349L12.6016 1.58599C12.3797 1.36411 12.0766 1.23755 11.7625 1.23755Z" fill="#F97917"/>
</svg>
