<svg width="18" height="18" viewBox="0 0 18 18" fill="none" xmlns="http://www.w3.org/2000/svg">
<path d="M5.70497 8.9164H12.3048M10.6383 11.5C10.6383 11.5 12.2883 13.3712 12.2883 16.2586M7.33841 11.5C7.33841 11.5 5.68846 13.3712 5.68846 16.2586M5.38323 0.788755L5.53997 0.755756C5.94256 0.673259 6.14385 0.63201 6.2742 0.701308C6.40372 0.769781 6.51344 1.02717 6.73206 1.54278C7.12392 2.46593 8.03552 3.11436 9.00486 3.11436C9.97421 3.11436 10.8858 2.46593 11.2777 1.54278C11.4963 1.02717 11.606 0.769781 11.7355 0.701308C11.865 0.632835 12.0672 0.674084 12.4698 0.756581L12.6265 0.788755C13.666 0.978499 13.6816 0.987574 14.3944 1.81585C14.9966 2.51543 15.8587 3.22985 16.2894 4.07133C16.6062 4.69171 16.3364 5.22299 15.9808 5.7155C15.5362 6.3301 14.9595 6.92161 14.1791 6.4423C13.6808 6.13706 13.2832 5.49193 12.8963 5.04562C12.8963 5.04562 13.1297 8.02955 12.3048 8.85947C13.0538 9.39983 14.2368 10.4492 15.1757 12.5991C15.5106 13.3663 15.961 14.2391 15.5172 15.0575C14.0075 17.8385 4.0344 17.8995 2.49252 15.0575C2.04868 14.2391 2.49912 13.3663 2.83323 12.5991C3.77288 10.4492 4.95589 9.39983 5.70497 8.85947C4.87999 8.02955 5.11346 5.04562 5.11346 5.04562C4.72655 5.49193 4.32974 6.13706 3.83063 6.4423C3.0502 6.92079 2.47355 6.3301 2.02888 5.7155C1.67415 5.22299 1.40355 4.69171 1.72034 4.07133C2.15098 3.22985 3.0139 2.51543 3.61531 1.81585C4.32809 0.987574 4.34459 0.978499 5.38323 0.788755Z" stroke="#0A1532" stroke-width="1.19996" stroke-linecap="round" stroke-linejoin="round"/>
</svg>
