<svg width="20" height="20" viewBox="0 0 20 20" fill="none" xmlns="http://www.w3.org/2000/svg">
<path d="M7.12646 2.04883L7.19775 2.28516C7.60286 3.44692 8.70806 4.27998 10.0073 4.28027C11.3933 4.28027 12.5587 3.33237 12.8892 2.04883L12.894 2.0293H13.1138L15.0767 2.36035L15.2065 2.39355C15.3327 2.43752 15.4464 2.51311 15.5356 2.61328L18.8286 6.31055L18.8999 6.40234C19.0255 6.59493 19.0579 6.83313 18.9888 7.05176L18.9458 7.15918L17.2808 10.5459C17.0912 10.9313 16.6199 11.0917 16.229 10.9053L16.1685 10.873L16.1665 10.8721L15.4438 10.4033L16.0327 16.2686L16.0376 16.3486C16.0413 16.7417 15.742 17.0806 15.3374 17.125L15.3364 17.126L15.2788 17.1299C13.8777 17.1771 12.3552 17.3426 10.7144 17.627L10.0044 17.7559C8.0976 18.1181 6.34386 18.0208 4.74463 17.4629L4.42627 17.3457C4.09748 17.2165 3.89681 16.8861 3.93604 16.5391L4.55127 10.4443C4.55158 10.4395 4.55184 10.4345 4.55225 10.4297L4.55322 10.4189L4.5542 10.4033L3.8335 10.8721L3.83252 10.873C3.46006 11.093 2.97615 10.9735 2.75244 10.6064L2.71924 10.5469L1.05322 7.15918C0.915526 6.87875 0.961926 6.5437 1.17041 6.30957L4.46338 2.61328L4.56104 2.52148C4.66499 2.43882 4.78929 2.38284 4.92236 2.36035L6.88232 2.03027L6.88623 2.0293H7.12158L7.12646 2.04883ZM5.28662 3.56152L2.31299 6.89941L3.60889 9.5332L4.71826 8.8125L4.80811 7.94727L4.8335 7.82422C4.92024 7.54799 5.19152 7.36097 5.49072 7.3916L5.60498 7.41406C5.86142 7.49017 6.04263 7.72508 6.04932 7.99512V7.99902L6.04736 8.06445L6.04639 8.0752L5.81885 10.2891L5.21045 16.3057L5.23389 16.3145L5.48877 16.3955C6.77 16.7772 8.1745 16.8287 9.71729 16.543L9.77197 16.5332L10.1958 16.4541L10.3013 16.4355L10.4058 16.417L11.2095 16.2832C11.474 16.2419 11.736 16.2041 11.9946 16.1689L12.0952 16.1553L12.1948 16.1426L12.2446 16.1357L12.3433 16.123L12.4429 16.1104L12.4917 16.1045L12.689 16.0811L13.3208 16.0137L13.4165 16.0039L13.5122 15.9951L13.5601 15.9902L13.6558 15.9824L13.7505 15.9736L14.4536 15.9229L14.5464 15.917L14.73 15.9072L14.7446 15.9053L14.2124 10.6084L14.2046 10.5566L14.2036 10.5469L13.9487 8.0752C13.9135 7.73335 14.1617 7.42721 14.5034 7.3916H14.6284C14.914 7.41929 15.1508 7.64274 15.186 7.9375L15.187 7.94727L15.2759 8.80957L16.3901 9.5332L17.6851 6.89941L14.7124 3.56152L13.6792 3.3877L13.6733 3.39844C13.0422 4.5024 11.9328 5.27985 10.6499 5.47656V7.26953C10.6497 7.61321 10.3706 7.8916 10.0269 7.8916C9.68672 7.89123 9.41029 7.6182 9.40479 7.2793V5.48145C8.10544 5.29459 6.9798 4.51453 6.34229 3.39941L6.3335 3.38477L5.28662 3.56152Z" fill="#0A1532"/>
</svg>
