<svg width="17" height="16" viewBox="0 0 17 16" fill="none" xmlns="http://www.w3.org/2000/svg">
<g id="li:sparkles">
<path id="Vector" fill-rule="evenodd" clip-rule="evenodd" d="M8.49992 1.3335C8.78785 1.3335 9.04324 1.51835 9.13321 1.79186L10.4079 5.6672L10.4079 5.6672C10.4405 5.76637 10.4959 5.8565 10.5698 5.93032C10.6436 6.00414 10.7337 6.05959 10.8329 6.0922L10.8329 6.09221L14.7082 7.36687C14.9817 7.45684 15.1666 7.71223 15.1666 8.00016C15.1666 8.28809 14.9817 8.54349 14.7082 8.63345L10.8329 9.90812L10.8329 9.90812C10.7337 9.94074 10.6436 9.99619 10.5698 10.07C10.4959 10.1438 10.4405 10.234 10.4079 10.3331L10.4079 10.3331L9.13321 14.2085C9.04324 14.482 8.78785 14.6668 8.49992 14.6668C8.21199 14.6668 7.95659 14.482 7.86663 14.2085L6.59196 10.3331L6.59196 10.3331C6.55934 10.234 6.50389 10.1438 6.43007 10.07C6.35625 9.99619 6.26613 9.94074 6.16696 9.90812L6.16695 9.90812L2.29162 8.63345C2.0181 8.54349 1.83325 8.28809 1.83325 8.00016C1.83325 7.71223 2.0181 7.45684 2.29162 7.36687L6.16695 6.09221L6.16696 6.0922C6.26613 6.05959 6.35625 6.00414 6.43007 5.93032C6.50389 5.8565 6.55934 5.76637 6.59196 5.6672L6.59196 5.6672L7.86663 1.79186C7.95659 1.51835 8.21199 1.3335 8.49992 1.3335ZM7.85854 6.08379C7.85854 6.08379 7.85854 6.08379 7.85854 6.0838C7.76069 6.3813 7.59434 6.65167 7.37288 6.87313C7.15143 7.09458 6.88106 7.26093 6.58355 7.35879C6.58355 7.35879 6.58355 7.35879 6.58354 7.35879L4.63359 8.00016L6.58354 8.64154C6.58355 8.64154 6.58355 8.64154 6.58355 8.64154C6.88106 8.73939 7.15143 8.90575 7.37288 9.1272C7.59434 9.34866 7.76069 9.61902 7.85854 9.91653C7.85854 9.91653 7.85854 9.91654 7.85854 9.91654L8.49992 11.8665L9.14129 9.91654C9.14129 9.91654 9.1413 9.91653 9.1413 9.91653C9.23915 9.61902 9.4055 9.34866 9.62696 9.1272C9.84841 8.90575 10.1188 8.73939 10.4163 8.64154C10.4163 8.64154 10.4163 8.64154 10.4163 8.64154L12.3662 8.00016L10.4163 7.35879C10.4163 7.35879 10.4163 7.35879 10.4163 7.35879C10.1188 7.26093 9.84841 7.09458 9.62696 6.87313C9.4055 6.65167 9.23915 6.3813 9.1413 6.0838C9.1413 6.08379 9.14129 6.08379 9.14129 6.08379L8.49992 4.13383L7.85854 6.08379Z" fill="white"/>
<path id="Vector_2" fill-rule="evenodd" clip-rule="evenodd" d="M3.83341 1.3335C4.2016 1.3335 4.50008 1.63197 4.50008 2.00016V4.66683C4.50008 5.03502 4.2016 5.3335 3.83341 5.3335C3.46522 5.3335 3.16675 5.03502 3.16675 4.66683V2.00016C3.16675 1.63197 3.46522 1.3335 3.83341 1.3335Z" fill="#FAFAFA"/>
<path id="Vector_3" fill-rule="evenodd" clip-rule="evenodd" d="M13.1667 10.6665C13.5349 10.6665 13.8333 10.965 13.8333 11.3332V13.9998C13.8333 14.368 13.5349 14.6665 13.1667 14.6665C12.7985 14.6665 12.5 14.368 12.5 13.9998V11.3332C12.5 10.965 12.7985 10.6665 13.1667 10.6665Z" fill="#FAFAFA"/>
<path id="Vector_4" fill-rule="evenodd" clip-rule="evenodd" d="M1.83325 3.33317C1.83325 2.96498 2.13173 2.6665 2.49992 2.6665H5.16659C5.53478 2.6665 5.83325 2.96498 5.83325 3.33317C5.83325 3.70136 5.53478 3.99984 5.16659 3.99984H2.49992C2.13173 3.99984 1.83325 3.70136 1.83325 3.33317Z" fill="#FAFAFA"/>
<path id="Vector_5" fill-rule="evenodd" clip-rule="evenodd" d="M11.1667 12.6667C11.1667 12.2985 11.4652 12 11.8334 12H14.5001C14.8683 12 15.1667 12.2985 15.1667 12.6667C15.1667 13.0349 14.8683 13.3333 14.5001 13.3333H11.8334C11.4652 13.3333 11.1667 13.0349 11.1667 12.6667Z" fill="#FAFAFA"/>
</g>
</svg>
